<svg width="24" height="24" viewBox="0 0 24 24" fill="none" xmlns="http://www.w3.org/2000/svg">
<path d="M18 11.4459C18.1846 11.7228 18.3692 11.9998 18.4615 12.4613H15.5077C15.5077 12.369 15.5077 12.1844 15.6 11.9998C15.6923 11.8151 15.6923 11.7228 15.8769 11.5382C15.9692 11.3536 16.1538 11.2613 16.3385 11.169C16.5231 11.0767 16.8 10.9844 17.0769 10.9844C17.4462 11.0767 17.8154 11.169 18 11.4459ZM9.50769 10.7998C9.69231 10.6151 9.87692 10.3382 9.87692 9.96899C9.87692 9.78437 9.87692 9.59976 9.78462 9.41514C9.69231 9.32283 9.6 9.13822 9.50769 9.13822C9.41538 9.04591 9.23077 9.04591 9.04615 8.9536H6.64615V11.0767H8.67692C8.95385 11.0767 9.23077 10.9844 9.50769 10.7998ZM8.76923 12.369H6.64615V14.8613H8.76923C8.95385 14.8613 9.13846 14.8613 9.32308 14.769C9.50769 14.769 9.69231 14.6767 9.78462 14.5844C9.87692 14.4921 10.0615 14.3998 10.1538 14.2151C10.2462 14.0305 10.2462 13.8459 10.2462 13.6613C10.2462 13.1998 10.1538 12.8305 9.87692 12.6459C9.6 12.4613 9.23077 12.369 8.76923 12.369ZM24 4.52283V19.4767C24 21.969 21.9692 23.9998 19.4769 23.9998H4.52308C2.03077 23.9998 0 21.969 0 19.4767V4.52283C0 2.03053 2.03077 -0.000244141 4.52308 -0.000244141H19.4769C21.9692 -0.000244141 24 2.03053 24 4.52283ZM15.1385 8.86129H18.8308V7.93822H15.1385V8.86129ZM12.1846 13.8459C12.1846 13.2921 12.0923 12.8305 11.8154 12.369C11.5385 11.9998 11.1692 11.7228 10.6154 11.5382C10.9846 11.3536 11.3538 11.0767 11.5385 10.7998C11.7231 10.5228 11.8154 10.1536 11.8154 9.69206C11.8154 9.23053 11.7231 8.9536 11.6308 8.58437C11.4462 8.30745 11.2615 8.03053 11.0769 7.93822C10.8 7.7536 10.5231 7.66129 10.1538 7.56899C9.69231 7.38437 9.32308 7.38437 8.86154 7.38437H4.61538V16.4305H9.04615C9.41538 16.4305 9.87692 16.3382 10.2462 16.2459C10.6154 16.1536 10.9846 15.969 11.2615 15.7844C11.5385 15.5998 11.8154 15.3228 12 14.9536C12.0923 14.6767 12.1846 14.3074 12.1846 13.8459ZM15.5077 13.569H20.2154C20.2154 13.0151 20.2154 12.5536 20.1231 12.0921C20.0308 11.6305 19.8462 11.169 19.5692 10.8921C19.2923 10.5228 18.9231 10.2459 18.5538 10.0613C18.0923 9.87668 17.6308 9.69206 17.0769 9.69206C16.6154 9.69206 16.1538 9.78437 15.6923 9.96899C15.3231 10.1536 14.9538 10.4305 14.5846 10.7074C14.3077 10.9844 14.0308 11.3536 13.9385 11.8151C13.7538 12.2767 13.6615 12.7382 13.6615 13.1998C13.6615 13.6613 13.7538 14.2151 13.9385 14.5844C14.1231 15.0459 14.3077 15.4151 14.5846 15.6921C14.8615 15.969 15.2308 16.2459 15.6 16.4305C16.0615 16.6151 16.5231 16.7074 16.9846 16.7074C17.7231 16.7074 18.3692 16.5228 18.9231 16.1536C19.4769 15.7844 19.8462 15.2305 20.1231 14.4921H18.5538C18.4615 14.6767 18.3692 14.8613 18.0923 15.0459C17.8154 15.2305 17.5385 15.3228 17.1692 15.3228C16.7077 15.3228 16.2462 15.2305 15.9692 14.9536C15.6923 14.5844 15.5077 14.1228 15.5077 13.569Z" fill="white"/>
</svg>
