<svg width="63" height="74" viewBox="0 0 63 74" fill="none" xmlns="http://www.w3.org/2000/svg">
<path d="M62.3994 13.2995L53.2249 7.497C52.4793 7.02544 51.6152 6.77512 50.7331 6.77512L13.4974 6.77512C5.70151 7.70962 5.70151 15.6529 7.67958 18.4564L42.8195 58.523H21.8752L13.4974 49.178C13.7689 47.932 14.2189 44.342 13.8465 39.9498C13.4742 35.5577 10.2007 31.2668 8.61044 29.6703L4.53793 25.2315C1.65227 22.7083 0 18.2227 0 16.5874L0 12.3821C0.581786 3.738 8.76558 0.545124 12.3339 0L49.7997 0C51.2405 0 52.6003 0.666177 53.4833 1.80462L62.3994 13.2995Z" fill="#070D29"/>
<path d="M9.53795 57.8603L17.4502 66.7381H47.9359C55.8482 66.5044 56.3136 58.2108 53.7537 55.0568L18.6138 14.9902L39.5581 14.9902L47.9359 24.3352C47.6644 25.5812 47.4472 29.0544 47.8195 33.4465C48.1918 37.8387 51.2326 42.2464 52.8229 43.8428L56.8954 48.2817C59.6879 50.7348 61.2006 54.1223 61.666 57.1595V61.3647C60.7352 70.4761 52.8229 73.5132 49.0994 73.5132H0.578442L9.53795 57.8603Z" fill="#070D29"/>
</svg>
