<svg width="14" height="15" viewBox="0 0 14 15" fill="none" xmlns="http://www.w3.org/2000/svg">
<path d="M7 0.876709C3.1325 0.876709 0 4.00921 0 7.87671C0 10.9742 2.00375 13.5905 4.78625 14.518C5.13625 14.5792 5.2675 14.3692 5.2675 14.1855C5.2675 14.0192 5.25875 13.468 5.25875 12.8817C3.5 13.2055 3.045 12.453 2.905 12.0592C2.82625 11.858 2.485 11.2367 2.1875 11.0705C1.9425 10.9392 1.5925 10.6155 2.17875 10.6067C2.73 10.598 3.12375 11.1142 3.255 11.3242C3.885 12.383 4.89125 12.0855 5.29375 11.9017C5.355 11.4467 5.53875 11.1405 5.74 10.9655C4.1825 10.7905 2.555 10.1867 2.555 7.50921C2.555 6.74796 2.82625 6.11796 3.2725 5.62796C3.2025 5.45296 2.9575 4.73546 3.3425 3.77296C3.3425 3.77296 3.92875 3.58921 5.2675 4.49046C5.8275 4.33296 6.4225 4.25421 7.0175 4.25421C7.6125 4.25421 8.2075 4.33296 8.7675 4.49046C10.1063 3.58046 10.6925 3.77296 10.6925 3.77296C11.0775 4.73546 10.8325 5.45296 10.7625 5.62796C11.2088 6.11796 11.48 6.73921 11.48 7.50921C11.48 10.1955 9.84375 10.7905 8.28625 10.9655C8.54 11.1842 8.75875 11.6042 8.75875 12.2605C8.75875 13.1967 8.75 13.9492 8.75 14.1855C8.75 14.3692 8.88125 14.588 9.23125 14.518C10.6211 14.0492 11.8288 13.1562 12.6844 11.9647C13.5399 10.7733 14 9.34348 14 7.87671C14 4.00921 10.8675 0.876709 7 0.876709Z" fill="white"/>
</svg>
