<svg width="71" height="57" viewBox="0 0 71 57" fill="none" xmlns="http://www.w3.org/2000/svg">
<path opacity="0.7" d="M23.1457 1.188C23.1457 1.188 34.689 -2.64415 46.02 3.45684C57.3509 9.55797 63.0683 21.6692 67.978 31.3707C72.8876 41.0723 70.0616 50.9404 61.4119 55.4401C52.7622 59.9396 46.8806 53.3067 34.7464 52.9837C22.6121 52.6608 19.3487 54.2803 9.27989 47.8805C-0.789084 41.4807 -2.60923 26.3666 5.33355 15.1832C13.2765 3.99976 23.1457 1.188 23.1457 1.188Z" fill="#C0C0C0"/>
<path d="M10.3574 16.7859V30.1752C10.3574 30.6764 10.7657 31.0827 11.2692 31.0827H15.1832" stroke="#C4EBFF" stroke-width="0.316599" stroke-miterlimit="10"/>
<path d="M10.2017 25.5795C10.7908 25.5795 11.2684 25.1041 11.2684 24.5178C11.2684 23.9314 10.7908 23.4561 10.2017 23.4561C9.6125 23.4561 9.13489 23.9314 9.13489 24.5178C9.13489 25.1041 9.6125 25.5795 10.2017 25.5795Z" fill="#55B3F2" stroke="#C4EBFF" stroke-width="0.316599" stroke-miterlimit="10"/>
<path d="M10.7208 24.5093C10.7208 24.7978 10.4859 25.0316 10.196 25.0316C9.90618 25.0316 9.67126 24.7978 9.67126 24.5093C9.67126 24.2209 9.90618 23.9871 10.196 23.9871C10.4859 23.9871 10.7208 24.2209 10.7208 24.5093Z" fill="white"/>
<path d="M16.3347 50.7408H10.5473C9.70067 50.7408 9.01428 50.0576 9.01428 49.2151V43.8157H18.1048V48.9791C18.1046 49.9521 17.3122 50.7408 16.3347 50.7408Z" stroke="#C4EBFF" stroke-width="0.316599" stroke-miterlimit="10"/>
<path d="M14.2307 50.6071C14.2307 51.1935 13.7531 51.6688 13.1639 51.6688C12.5748 51.6688 12.0972 51.1935 12.0972 50.6071C12.0972 50.0207 12.5748 49.5454 13.1639 49.5454C13.753 49.5454 14.2307 50.0207 14.2307 50.6071Z" fill="#55B3F2" stroke="#C4EBFF" stroke-width="0.316599" stroke-miterlimit="10"/>
<path d="M13.6829 50.5989C13.6829 50.8874 13.448 51.1212 13.1582 51.1212C12.8683 51.1212 12.6334 50.8874 12.6334 50.5989C12.6334 50.3105 12.8683 50.0767 13.1582 50.0767C13.448 50.0767 13.6829 50.3105 13.6829 50.5989Z" fill="white"/>
<path d="M32.2538 54.6882C40.8258 54.6882 47.7749 54.2336 47.7749 53.6729C47.7749 53.1122 40.8258 52.6577 32.2538 52.6577C23.6817 52.6577 16.7327 53.1122 16.7327 53.6729C16.7327 54.2336 23.6817 54.6882 32.2538 54.6882Z" fill="#00AAFF"/>
<path d="M55.901 7.07766C55.901 7.60733 55.7997 8.11147 55.6154 8.57104H48.6352C48.4509 8.11147 48.3496 7.60717 48.3496 7.07766C48.3496 6.66899 48.4094 6.27449 48.5215 5.90395C49.0037 4.31667 50.4347 3.16675 52.1252 3.16675C53.7022 3.16675 55.0518 4.16559 55.6168 5.58744C55.7997 6.047 55.901 6.54957 55.901 7.07766Z" fill="white"/>
<path d="M59.458 8.5711H53.2177C53.3897 7.29168 54.2792 6.2492 55.4525 5.89535C55.7335 5.80838 56.0308 5.7627 56.3379 5.7627C57.9282 5.76285 59.2446 6.98367 59.458 8.5711Z" fill="white"/>
<path d="M50.6319 8.57102H45.9861C45.9888 7.24464 47.0271 6.17065 48.309 6.17065C48.3737 6.17065 48.4385 6.17349 48.5018 6.17916C49.6914 6.28046 50.6292 7.31176 50.6319 8.57102Z" fill="white"/>
<path d="M52.5309 11.1039V7.21753H50.2185V11.1039H49.4329L50.4039 12.2092L51.3747 13.3145L52.3457 12.2092L53.3167 11.1039H52.5309Z" fill="#0097E3"/>
<path d="M64.1638 28.1338V38.8382C64.1638 39.8207 63.3636 40.6171 62.3766 40.6171H57.4445" stroke="#C4EBFF" stroke-width="0.316599" stroke-miterlimit="10"/>
<path d="M65.1666 34.3534C65.1666 34.9398 64.689 35.4151 64.0999 35.4151C63.5107 35.4151 63.0331 34.9398 63.0331 34.3534C63.0331 33.7671 63.5107 33.2917 64.0999 33.2917C64.689 33.2917 65.1666 33.7671 65.1666 34.3534Z" fill="#55B3F2" stroke="#C4EBFF" stroke-width="0.316599" stroke-miterlimit="10"/>
<path d="M64.6191 34.3448C64.6191 34.6332 64.3842 34.867 64.0943 34.867C63.8045 34.867 63.5696 34.6332 63.5696 34.3448C63.5696 34.0563 63.8045 33.8225 64.0943 33.8225C64.3842 33.8225 64.6191 34.0565 64.6191 34.3448Z" fill="white"/>
<path d="M24.1398 11.2781L21.9592 10.2668V7.40992C21.9592 6.81534 21.4748 6.33325 20.8774 6.33325H13.1284C12.531 6.33325 12.0466 6.81534 12.0466 7.40992V12.506C12.0466 13.1006 12.531 13.5827 13.1284 13.5827H20.8774C21.4748 13.5827 21.9592 13.1006 21.9592 12.506V11.7675L24.1398 11.2781Z" fill="white"/>
<path d="M40.6382 42.762H32.6985V52.6393H40.6382V42.762Z" fill="#E6E6E6"/>
<path d="M40.6831 32.7223L32.1982 47.0198V52.7778H40.6831V32.7223Z" fill="#070D29"/>
<path d="M60.7301 16.3109V46.3659C60.7301 46.8952 60.2995 47.3238 59.7692 47.3238H13.5759C13.0456 47.3238 12.615 46.8952 12.615 46.3659V16.3109C12.615 15.7816 13.0456 15.353 13.5759 15.353H59.7692C60.2995 15.353 60.7301 15.7816 60.7301 16.3109Z" fill="white"/>
<path d="M60.7301 16.3109V40.48H12.615V16.3109C12.615 15.7816 13.0456 15.353 13.5759 15.353H59.7692C60.2995 15.353 60.7301 15.7816 60.7301 16.3109Z" fill="#070D29"/>
<path d="M44.8675 53.4026H28.6877C28.6972 52.7866 29.2022 52.2903 29.8243 52.2903H43.7309C44.3531 52.2904 44.858 52.7866 44.8675 53.4026Z" fill="white"/>
<path d="M58.8115 17.6298V38.2651C58.8115 38.5487 58.5803 38.7787 58.2954 38.7787H14.8327C14.5478 38.7787 14.3182 38.5487 14.3182 38.2651V17.6298C14.3182 17.3462 14.5478 17.1162 14.8327 17.1162H58.2954C58.5803 17.1162 58.8115 17.3462 58.8115 17.6298Z" fill="#2A303B"/>
<path d="M37.783 43.5935C37.783 44.1813 37.3043 44.6577 36.7137 44.6577C36.1231 44.6577 35.6444 44.1813 35.6444 43.5935C35.6444 43.0057 36.1231 42.5293 36.7137 42.5293C37.3043 42.5295 37.783 43.0059 37.783 43.5935Z" fill="#E6E6E6"/>
<path d="M58.8115 17.6298V20.2403H14.3182V17.6298C14.3182 17.3462 14.5478 17.1162 14.8327 17.1162H58.2954C58.5803 17.1162 58.8115 17.3462 58.8115 17.6298Z" fill="white"/>
<path d="M53.8676 18.756C53.8676 18.9786 53.6863 19.159 53.4627 19.159C53.239 19.159 53.0577 18.9786 53.0577 18.756C53.0577 18.5334 53.239 18.353 53.4627 18.353C53.6863 18.353 53.8676 18.5334 53.8676 18.756Z" fill="#F28500"/>
<path d="M55.2411 19.159C55.4647 19.159 55.646 18.9786 55.646 18.756C55.646 18.5335 55.4647 18.353 55.2411 18.353C55.0175 18.353 54.8362 18.5335 54.8362 18.756C54.8362 18.9786 55.0175 19.159 55.2411 19.159Z" fill="#0097E3"/>
<path d="M57.0192 19.159C57.2428 19.159 57.4241 18.9786 57.4241 18.756C57.4241 18.5335 57.2428 18.353 57.0192 18.353C56.7955 18.353 56.6143 18.5335 56.6143 18.756C56.6143 18.9786 56.7955 19.159 57.0192 19.159Z" fill="#00AAFF"/>
<path d="M20.0565 21.8723H16.8558V22.7716H20.0565V21.8723Z" fill="#0097E3"/>
<path d="M28.8115 21.925H21.1405V22.7719H28.8115V21.925Z" fill="#0097E3"/>
<path d="M20.0565 24.1753H16.8558V25.0746H20.0565V24.1753Z" fill="#FFDA38"/>
<path d="M26.7549 24.2275H21.1405V25.0743H26.7549V24.2275Z" fill="#00AB80"/>
<path d="M35.4547 24.2275H27.8872V25.0743H35.4547V24.2275Z" fill="#0097E3"/>
<path d="M26.7549 26.2659H21.1405V27.1127H26.7549V26.2659Z" fill="#0097E3"/>
<path d="M35.4547 26.2659H27.8872V27.1127H35.4547V26.2659Z" fill="#00AAFF"/>
<path d="M26.7549 28.3037H21.1405V29.1505H26.7549V28.3037Z" fill="#0097E3"/>
<path d="M35.4547 28.3037H27.8872V29.1505H35.4547V28.3037Z" fill="#0097E3"/>
<path d="M20.0565 30.2896H16.8558V31.1888H20.0565V30.2896Z" fill="#FFDA38"/>
<path d="M26.7549 30.342H21.1405V31.1888H26.7549V30.342Z" fill="#00AB80"/>
<path d="M26.7549 32.3799H21.1405V33.2267H26.7549V32.3799Z" fill="#0097E3"/>
<path d="M35.4547 32.3799H27.8872V33.2267H35.4547V32.3799Z" fill="#0097E3"/>
<path d="M26.7549 34.4182H21.1405V35.265H26.7549V34.4182Z" fill="#0097E3"/>
<path d="M35.4547 34.4182H27.8872V35.265H35.4547V34.4182Z" fill="#0097E3"/>
<path d="M26.7549 36.4563H21.1405V37.3031H26.7549V36.4563Z" fill="#0097E3"/>
<path d="M35.4547 36.4563H27.8872V37.3031H35.4547V36.4563Z" fill="#0097E3"/>
<path d="M40.9868 21.8723H37.7861V22.7716H40.9868V21.8723Z" fill="#0097E3"/>
<path d="M49.742 21.925H42.0709V22.7719H49.742V21.925Z" fill="#0097E3"/>
<path d="M40.9868 24.1753H37.7861V25.0746H40.9868V24.1753Z" fill="#FFDA38"/>
<path d="M47.6853 24.2275H42.0709V25.0743H47.6853V24.2275Z" fill="#00AB80"/>
<path d="M56.3853 24.2275H48.8177V25.0743H56.3853V24.2275Z" fill="#0097E3"/>
<path d="M47.6853 26.2659H42.0709V27.1127H47.6853V26.2659Z" fill="#0097E3"/>
<path d="M56.3853 26.2659H48.8177V27.1127H56.3853V26.2659Z" fill="#00AAFF"/>
<path d="M47.6853 28.3037H42.0709V29.1505H47.6853V28.3037Z" fill="#0097E3"/>
<path d="M56.3853 28.3037H48.8177V29.1505H56.3853V28.3037Z" fill="#0097E3"/>
<path d="M40.9868 30.2896H37.7861V31.1888H40.9868V30.2896Z" fill="#FFDA38"/>
<path d="M47.6853 30.342H42.0709V31.1888H47.6853V30.342Z" fill="#00AB80"/>
<path d="M56.3853 30.342H48.8177V31.1888H56.3853V30.342Z" fill="#0097E3"/>
<path d="M56.3853 32.3799H48.8177V33.2267H56.3853V32.3799Z" fill="#0097E3"/>
<path d="M47.6853 34.4182H42.0709V35.265H47.6853V34.4182Z" fill="#0097E3"/>
<path d="M56.3853 34.4182H48.8177V35.265H56.3853V34.4182Z" fill="#0097E3"/>
<path d="M47.6853 36.4563H42.0709V37.3031H47.6853V36.4563Z" fill="#0097E3"/>
<path d="M56.3853 36.4563H48.8177V37.3031H56.3853V36.4563Z" fill="#0097E3"/>
<path d="M18.6148 17.9446H7.59964C6.54102 17.9446 5.68298 17.3956 5.68298 16.7183V9.67085C5.68298 8.99355 6.54102 8.44458 7.59964 8.44458H18.6148C19.6734 8.44458 20.5315 8.99355 20.5315 9.67085V16.7183C20.5315 17.3956 19.6732 17.9446 18.6148 17.9446Z" fill="#0097E3"/>
<path d="M7.67591 13.7961V11.9392H8.32512C8.45447 11.9392 8.56116 11.9616 8.64518 12.0063C8.72921 12.0504 8.79177 12.11 8.83287 12.1849C8.87398 12.2593 8.89453 12.3418 8.89453 12.4325C8.89453 12.5122 8.88032 12.5781 8.85191 12.6301C8.82411 12.6821 8.78724 12.7232 8.7413 12.7534C8.69596 12.7837 8.6467 12.806 8.5935 12.8205V12.8387C8.65032 12.8423 8.70745 12.8622 8.76487 12.8985C8.82229 12.9348 8.87035 12.9868 8.90904 13.0545C8.94772 13.1222 8.96707 13.205 8.96707 13.3029C8.96707 13.396 8.94591 13.4797 8.9036 13.5541C8.86128 13.6284 8.79449 13.6873 8.70321 13.7309C8.61194 13.7744 8.49316 13.7961 8.34688 13.7961H7.67591ZM7.90078 13.5967H8.34688C8.49376 13.5967 8.59804 13.5683 8.65969 13.5114C8.72195 13.454 8.75308 13.3845 8.75308 13.3029C8.75308 13.24 8.73706 13.182 8.70503 13.1288C8.67299 13.075 8.62735 13.0321 8.56811 13.0001C8.50888 12.9674 8.43876 12.9511 8.35776 12.9511H7.90078V13.5967ZM7.90078 12.7552H8.31786C8.38556 12.7552 8.44662 12.7419 8.50102 12.7153C8.55602 12.6887 8.59955 12.6513 8.63158 12.6029C8.66423 12.5546 8.68055 12.4977 8.68055 12.4325C8.68055 12.3508 8.65214 12.2816 8.59532 12.2248C8.5385 12.1674 8.44843 12.1387 8.32512 12.1387H7.90078V12.7552ZM9.87332 13.8252C9.74759 13.8252 9.63727 13.7952 9.54237 13.7354C9.44807 13.6756 9.37433 13.5918 9.32114 13.4842C9.26855 13.3766 9.24225 13.2509 9.24225 13.107C9.24225 12.962 9.26855 12.8353 9.32114 12.7271C9.37433 12.6189 9.44807 12.5349 9.54237 12.4751C9.63727 12.4152 9.74759 12.3853 9.87332 12.3853C9.99905 12.3853 10.1091 12.4152 10.2034 12.4751C10.2983 12.5349 10.372 12.6189 10.4246 12.7271C10.4778 12.8353 10.5044 12.962 10.5044 13.107C10.5044 13.2509 10.4778 13.3766 10.4246 13.4842C10.372 13.5918 10.2983 13.6756 10.2034 13.7354C10.1091 13.7952 9.99905 13.8252 9.87332 13.8252ZM9.87332 13.6329C9.96883 13.6329 10.0474 13.6085 10.1091 13.5595C10.1707 13.5105 10.2164 13.4462 10.246 13.3664C10.2756 13.2866 10.2904 13.2001 10.2904 13.107C10.2904 13.014 10.2756 12.9272 10.246 12.8468C10.2164 12.7664 10.1707 12.7014 10.1091 12.6519C10.0474 12.6023 9.96883 12.5775 9.87332 12.5775C9.77781 12.5775 9.69923 12.6023 9.63758 12.6519C9.57592 12.7014 9.53028 12.7664 9.50066 12.8468C9.47104 12.9272 9.45624 13.014 9.45624 13.107C9.45624 13.2001 9.47104 13.2866 9.50066 13.3664C9.53028 13.4462 9.57592 13.5105 9.63758 13.5595C9.69923 13.6085 9.77781 13.6329 9.87332 13.6329ZM11.3968 13.8252C11.2711 13.8252 11.1608 13.7952 11.0659 13.7354C10.9716 13.6756 10.8978 13.5918 10.8446 13.4842C10.792 13.3766 10.7657 13.2509 10.7657 13.107C10.7657 12.962 10.792 12.8353 10.8446 12.7271C10.8978 12.6189 10.9716 12.5349 11.0659 12.4751C11.1608 12.4152 11.2711 12.3853 11.3968 12.3853C11.5225 12.3853 11.6326 12.4152 11.7269 12.4751C11.8218 12.5349 11.8955 12.6189 11.9481 12.7271C12.0013 12.8353 12.0279 12.962 12.0279 13.107C12.0279 13.2509 12.0013 13.3766 11.9481 13.4842C11.8955 13.5918 11.8218 13.6756 11.7269 13.7354C11.6326 13.7952 11.5225 13.8252 11.3968 13.8252ZM11.3968 13.6329C11.4923 13.6329 11.5709 13.6085 11.6326 13.5595C11.6942 13.5105 11.7399 13.4462 11.7695 13.3664C11.7991 13.2866 11.8139 13.2001 11.8139 13.107C11.8139 13.014 11.7991 12.9272 11.7695 12.8468C11.7399 12.7664 11.6942 12.7014 11.6326 12.6519C11.5709 12.6023 11.4923 12.5775 11.3968 12.5775C11.3013 12.5775 11.2227 12.6023 11.1611 12.6519C11.0994 12.7014 11.0538 12.7664 11.0242 12.8468C10.9945 12.9272 10.9797 13.014 10.9797 13.107C10.9797 13.2001 10.9945 13.2866 11.0242 13.3664C11.0538 13.4462 11.0994 13.5105 11.1611 13.5595C11.2227 13.6085 11.3013 13.6329 11.3968 13.6329ZM12.9602 12.4034V12.5848H12.2385V12.4034H12.9602ZM12.4488 12.0698H12.6628V13.3972C12.6628 13.4576 12.6716 13.503 12.6891 13.5332C12.7072 13.5628 12.7302 13.5828 12.758 13.593C12.7864 13.6027 12.8163 13.6075 12.8478 13.6075C12.8714 13.6075 12.8907 13.6063 12.9058 13.6039C12.9209 13.6009 12.933 13.5985 12.9421 13.5967L12.9856 13.7889C12.9711 13.7943 12.9508 13.7998 12.9248 13.8052C12.8989 13.8113 12.8659 13.8143 12.826 13.8143C12.7656 13.8143 12.7063 13.8013 12.6483 13.7753C12.5909 13.7493 12.5431 13.7097 12.505 13.6565C12.4676 13.6033 12.4488 13.5362 12.4488 13.4552V12.0698ZM14.2437 12.7153L14.0514 12.7697C14.0393 12.7377 14.0215 12.7066 13.9979 12.6764C13.975 12.6455 13.9435 12.6201 13.9036 12.6002C13.8637 12.5802 13.8127 12.5703 13.7504 12.5703C13.6652 12.5703 13.5941 12.5899 13.5373 12.6292C13.4811 12.6679 13.453 12.7172 13.453 12.777C13.453 12.8302 13.4723 12.8722 13.511 12.903C13.5497 12.9339 13.6102 12.9596 13.6924 12.9801L13.8991 13.0309C14.0236 13.0611 14.1164 13.1073 14.1775 13.1696C14.2385 13.2313 14.269 13.3108 14.269 13.4081C14.269 13.4879 14.2461 13.5592 14.2001 13.6221C14.1548 13.6849 14.0913 13.7345 14.0097 13.7708C13.9281 13.807 13.8332 13.8252 13.725 13.8252C13.583 13.8252 13.4654 13.7943 13.3723 13.7327C13.2792 13.671 13.2203 13.581 13.1955 13.4625L13.3986 13.4117C13.4179 13.4867 13.4545 13.5429 13.5083 13.5803C13.5627 13.6178 13.6337 13.6366 13.7214 13.6366C13.8211 13.6366 13.9003 13.6154 13.9589 13.5731C14.0182 13.5302 14.0478 13.4788 14.0478 13.419C14.0478 13.3706 14.0309 13.3301 13.997 13.2975C13.9632 13.2642 13.9112 13.2394 13.8411 13.2231L13.609 13.1687C13.4814 13.1385 13.3877 13.0916 13.3279 13.0282C13.2686 12.9641 13.239 12.884 13.239 12.7879C13.239 12.7093 13.2611 12.6398 13.3052 12.5793C13.3499 12.5189 13.4107 12.4714 13.4875 12.437C13.5648 12.4025 13.6525 12.3853 13.7504 12.3853C13.8882 12.3853 13.9964 12.4155 14.075 12.476C14.1542 12.5364 14.2104 12.6162 14.2437 12.7153ZM15.1968 12.4034V12.5848H14.4751V12.4034H15.1968ZM14.6854 12.0698H14.8994V13.3972C14.8994 13.4576 14.9082 13.503 14.9257 13.5332C14.9439 13.5628 14.9668 13.5828 14.9946 13.593C15.023 13.6027 15.053 13.6075 15.0844 13.6075C15.108 13.6075 15.1273 13.6063 15.1424 13.6039C15.1575 13.6009 15.1696 13.5985 15.1787 13.5967L15.2222 13.7889C15.2077 13.7943 15.1875 13.7998 15.1615 13.8052C15.1355 13.8113 15.1025 13.8143 15.0626 13.8143C15.0022 13.8143 14.943 13.8013 14.8849 13.7753C14.8275 13.7493 14.7797 13.7097 14.7417 13.6565C14.7042 13.6033 14.6854 13.5362 14.6854 13.4552V12.0698ZM15.5187 13.7961V12.4034H15.7254V12.6138H15.7399C15.7653 12.5449 15.8113 12.489 15.8778 12.4461C15.9443 12.4031 16.0192 12.3817 16.1026 12.3817C16.1183 12.3817 16.138 12.382 16.1616 12.3826C16.1851 12.3832 16.203 12.3841 16.2151 12.3853V12.6029C16.2078 12.6011 16.1912 12.5984 16.1652 12.5948C16.1398 12.5905 16.1129 12.5884 16.0845 12.5884C16.0168 12.5884 15.9564 12.6026 15.9032 12.631C15.8506 12.6588 15.8089 12.6975 15.778 12.7471C15.7478 12.796 15.7327 12.852 15.7327 12.9148V13.7961H15.5187ZM16.8785 13.8288C16.7903 13.8288 16.7102 13.8122 16.6383 13.7789C16.5663 13.7451 16.5092 13.6964 16.4669 13.6329C16.4246 13.5689 16.4034 13.4915 16.4034 13.4008C16.4034 13.321 16.4191 13.2563 16.4506 13.2068C16.482 13.1566 16.524 13.1173 16.5766 13.0889C16.6292 13.0605 16.6872 13.0393 16.7507 13.0254C16.8148 13.0109 16.8792 12.9994 16.9438 12.991C17.0285 12.9801 17.0971 12.9719 17.1497 12.9665C17.2028 12.9605 17.2415 12.9505 17.2657 12.9366C17.2905 12.9227 17.3029 12.8985 17.3029 12.864V12.8568C17.3029 12.7673 17.2784 12.6978 17.2294 12.6482C17.1811 12.5987 17.1076 12.5739 17.0091 12.5739C16.907 12.5739 16.8269 12.5963 16.7688 12.641C16.7108 12.6857 16.67 12.7335 16.6464 12.7843L16.4433 12.7117C16.4796 12.6271 16.528 12.5612 16.5884 12.5141C16.6495 12.4663 16.7159 12.4331 16.7879 12.4143C16.8604 12.395 16.9317 12.3853 17.0019 12.3853C17.0466 12.3853 17.098 12.3907 17.156 12.4016C17.2146 12.4119 17.2712 12.4334 17.3256 12.466C17.3806 12.4986 17.4262 12.5479 17.4625 12.6138C17.4987 12.6797 17.5169 12.7679 17.5169 12.8786V13.7961H17.3029V13.6075H17.292C17.2775 13.6378 17.2533 13.6701 17.2195 13.7046C17.1856 13.739 17.1406 13.7683 17.0844 13.7925C17.0282 13.8167 16.9595 13.8288 16.8785 13.8288ZM16.9112 13.6366C16.9958 13.6366 17.0671 13.6199 17.1252 13.5867C17.1838 13.5534 17.2279 13.5105 17.2576 13.4579C17.2878 13.4054 17.3029 13.35 17.3029 13.292V13.0962C17.2938 13.107 17.2739 13.117 17.243 13.1261C17.2128 13.1345 17.1778 13.1421 17.1379 13.1488C17.0986 13.1548 17.0602 13.1602 17.0227 13.1651C16.9858 13.1693 16.9559 13.1729 16.933 13.176C16.8773 13.1832 16.8254 13.195 16.777 13.2113C16.7292 13.227 16.6906 13.2509 16.6609 13.2829C16.6319 13.3144 16.6174 13.3573 16.6174 13.4117C16.6174 13.486 16.6449 13.5423 16.6999 13.5803C16.7555 13.6178 16.826 13.6366 16.9112 13.6366ZM17.9074 14.3184V12.4034H18.1142V12.6247H18.1396C18.1553 12.6005 18.177 12.5697 18.2048 12.5322C18.2332 12.4941 18.2737 12.4603 18.3263 12.4306C18.3795 12.4004 18.4515 12.3853 18.5421 12.3853C18.6594 12.3853 18.7628 12.4146 18.8522 12.4733C18.9417 12.5319 19.0115 12.615 19.0617 12.7226C19.1118 12.8302 19.1369 12.9571 19.1369 13.1034C19.1369 13.2509 19.1118 13.3788 19.0617 13.487C19.0115 13.5946 18.942 13.678 18.8531 13.7372C18.7643 13.7958 18.6618 13.8252 18.5458 13.8252C18.4563 13.8252 18.3847 13.8103 18.3309 13.7807C18.2771 13.7505 18.2357 13.7164 18.2066 13.6783C18.1776 13.6396 18.1553 13.6075 18.1396 13.5822H18.1214V14.3184H17.9074ZM18.1178 13.0998C18.1178 13.205 18.1332 13.2978 18.164 13.3782C18.1949 13.4579 18.2399 13.5205 18.2991 13.5658C18.3584 13.6106 18.4309 13.6329 18.5167 13.6329C18.6062 13.6329 18.6809 13.6094 18.7407 13.5622C18.8011 13.5145 18.8465 13.4504 18.8767 13.37C18.9075 13.289 18.9229 13.1989 18.9229 13.0998C18.9229 13.0019 18.9078 12.9136 18.8776 12.835C18.848 12.7558 18.803 12.6933 18.7425 12.6473C18.6827 12.6008 18.6074 12.5775 18.5167 12.5775C18.4297 12.5775 18.3566 12.5996 18.2973 12.6437C18.2381 12.6872 18.1934 12.7483 18.1631 12.8269C18.1329 12.9048 18.1178 12.9958 18.1178 13.0998Z" fill="white"/>
<path d="M19.9953 10.1075C19.9953 10.1075 19.9742 17.25 19.9742 16.9806L19.4677 10.6325C19.4677 9.93767 18.9025 9.37524 18.2044 9.37524L12.0543 8.84888C11.7836 8.84888 18.732 8.8503 18.732 8.8503C19.4286 8.8503 19.9953 9.41431 19.9953 10.1075Z" fill="#00AAFF"/>
<path d="M65.8995 28.9412H58.6405C57.9429 28.9412 57.3774 28.3784 57.3774 27.6841V20.4597C57.3774 19.7654 57.9429 19.2026 58.6405 19.2026H65.8995C66.5971 19.2026 67.1626 19.7654 67.1626 20.4597V27.6841C67.1626 28.3784 66.5971 28.9412 65.8995 28.9412Z" fill="#0097E3"/>
<path d="M58.7445 24.4504V22.5935H58.9694V23.4204H59.9595V22.5935H60.1844V24.4504H59.9595V23.6199H58.9694V24.4504H58.7445ZM60.533 22.793V22.5935H61.9257V22.793H61.3418V24.4504H61.1169V22.793H60.533ZM62.2727 22.5935H62.5411L63.1722 24.1349H63.194L63.825 22.5935H64.0934V24.4504H63.8831V23.0396H63.8649L63.2846 24.4504H63.0815L62.5012 23.0396H62.4831V24.4504H62.2727V22.5935ZM64.5443 24.4504V22.5935H64.7691V24.251H65.6323V24.4504H64.5443Z" fill="white"/>
<path d="M66.845 20.7528C66.845 20.7528 66.8239 27.8953 66.8239 27.6259L66.3174 21.2777C66.3174 20.5829 65.7523 20.0205 65.0542 20.0205L58.9041 19.4941C58.6334 19.4941 65.5818 19.4956 65.5818 19.4956C66.2783 19.4956 66.845 20.0596 66.845 20.7528Z" fill="#00AAFF"/>
<path d="M20.691 53.8898H19.5082L22.9322 32.4524H24.115L20.691 53.8898Z" fill="#FFEA8C"/>
<path d="M20.3798 53.8898H19.197L22.621 32.4524H23.8039L20.3798 53.8898Z" fill="#FFDA38"/>
<path d="M25.1733 53.8898H23.9905L27.4145 32.4524H28.5973L25.1733 53.8898Z" fill="#FFEA8C"/>
<path d="M24.8621 53.8898H23.6793L27.1033 32.4524H28.2862L24.8621 53.8898Z" fill="#FFDA38"/>
<path d="M25.1144 49.8489H20.3007V50.6613H25.1144V49.8489Z" fill="#FFDA38"/>
<path d="M25.7618 45.3381H20.9481V46.1506H25.7618V45.3381Z" fill="#FFDA38"/>
<path d="M26.4093 40.8276H21.5956V41.6401H26.4093V40.8276Z" fill="#FFDA38"/>
<path d="M27.0568 36.3167H22.243V37.1291H27.0568V36.3167Z" fill="#FFDA38"/>
<path d="M14.7207 45.6616H7.46168C6.76405 45.6616 6.19861 45.0989 6.19861 44.4046V37.1802C6.19861 36.4858 6.76405 35.9231 7.46168 35.9231H14.7207C15.4183 35.9231 15.9837 36.4858 15.9837 37.1802V44.4046C15.9837 45.0989 15.4181 45.6616 14.7207 45.6616Z" fill="#0097E3"/>
<path d="M10.584 40.8344H10.3591C10.3458 40.7698 10.3226 40.7129 10.2893 40.664C10.2567 40.615 10.2168 40.5739 10.1696 40.5407C10.1231 40.5068 10.0714 40.4814 10.0146 40.4645C9.95775 40.4476 9.89852 40.4391 9.83686 40.4391C9.72443 40.4391 9.62257 40.4675 9.5313 40.5243C9.44063 40.5812 9.36839 40.6649 9.3146 40.7755C9.2614 40.8861 9.23481 41.0218 9.23481 41.1826C9.23481 41.3434 9.2614 41.4791 9.3146 41.5897C9.36839 41.7003 9.44063 41.7841 9.5313 41.8409C9.62257 41.8977 9.72443 41.9261 9.83686 41.9261C9.89852 41.9261 9.95775 41.9177 10.0146 41.9007C10.0714 41.8838 10.1231 41.8587 10.1696 41.8255C10.2168 41.7916 10.2567 41.7502 10.2893 41.7013C10.3226 41.6517 10.3458 41.5949 10.3591 41.5308H10.584C10.5671 41.6257 10.5362 41.7106 10.4915 41.7856C10.4468 41.8605 10.3912 41.9243 10.3247 41.9769C10.2582 42.0289 10.1835 42.0685 10.1007 42.0957C10.0185 42.1229 9.93055 42.1365 9.83686 42.1365C9.67849 42.1365 9.53765 42.0978 9.41433 42.0204C9.29102 41.943 9.194 41.833 9.12328 41.6904C9.05256 41.5477 9.0172 41.3785 9.0172 41.1826C9.0172 40.9868 9.05256 40.8175 9.12328 40.6749C9.194 40.5322 9.29102 40.4222 9.41433 40.3448C9.53765 40.2674 9.67849 40.2288 9.83686 40.2288C9.93055 40.2288 10.0185 40.2424 10.1007 40.2696C10.1835 40.2968 10.2582 40.3367 10.3247 40.3892C10.3912 40.4412 10.4468 40.5047 10.4915 40.5797C10.5362 40.654 10.5671 40.7389 10.584 40.8344ZM11.9629 40.7184C11.952 40.6265 11.9079 40.5552 11.8305 40.5044C11.7531 40.4536 11.6582 40.4282 11.5458 40.4282C11.4636 40.4282 11.3916 40.4415 11.33 40.4681C11.2689 40.4947 11.2212 40.5313 11.1867 40.5778C11.1529 40.6244 11.1359 40.6773 11.1359 40.7365C11.1359 40.7861 11.1477 40.8287 11.1713 40.8644C11.1955 40.8994 11.2263 40.9287 11.2638 40.9523C11.3013 40.9753 11.3406 40.9943 11.3817 41.0094C11.4228 41.0239 11.4605 41.0357 11.495 41.0448L11.6836 41.0956C11.732 41.1083 11.7858 41.1258 11.845 41.1482C11.9048 41.1705 11.962 41.2011 12.0164 41.2397C12.0714 41.2778 12.1167 41.3268 12.1524 41.3866C12.188 41.4465 12.2059 41.5199 12.2059 41.607C12.2059 41.7073 12.1796 41.798 12.127 41.879C12.075 41.96 11.9988 42.0243 11.8985 42.0721C11.7987 42.1198 11.6776 42.1437 11.5349 42.1437C11.4019 42.1437 11.2868 42.1223 11.1894 42.0793C11.0927 42.0364 11.0166 41.9766 10.961 41.8998C10.9059 41.8231 10.8748 41.7339 10.8676 41.6323H11.0997C11.1057 41.7025 11.1293 41.7605 11.1704 41.8064C11.2121 41.8518 11.2647 41.8856 11.3282 41.908C11.3922 41.9297 11.4612 41.9406 11.5349 41.9406C11.6207 41.9406 11.6978 41.9267 11.7661 41.8989C11.8344 41.8705 11.8885 41.8312 11.9284 41.781C11.9683 41.7303 11.9883 41.671 11.9883 41.6033C11.9883 41.5417 11.971 41.4915 11.9366 41.4528C11.9021 41.4141 11.8568 41.3827 11.8006 41.3585C11.7443 41.3343 11.6836 41.3132 11.6183 41.295L11.3898 41.2298C11.2448 41.1881 11.1299 41.1285 11.0453 41.0511C10.9606 40.9738 10.9183 40.8725 10.9183 40.7474C10.9183 40.6434 10.9464 40.5528 11.0027 40.4754C11.0595 40.3974 11.1356 40.337 11.2311 40.294C11.3273 40.2505 11.4346 40.2288 11.553 40.2288C11.6727 40.2288 11.7791 40.2502 11.8722 40.2931C11.9653 40.3354 12.039 40.3935 12.0934 40.4672C12.1484 40.541 12.1775 40.6247 12.1805 40.7184H11.9629ZM13.5911 40.7184C13.5802 40.6265 13.5361 40.5552 13.4587 40.5044C13.3813 40.4536 13.2864 40.4282 13.174 40.4282C13.0918 40.4282 13.0199 40.4415 12.9582 40.4681C12.8972 40.4947 12.8494 40.5313 12.8149 40.5778C12.7811 40.6244 12.7642 40.6773 12.7642 40.7365C12.7642 40.7861 12.776 40.8287 12.7995 40.8644C12.8237 40.8994 12.8545 40.9287 12.892 40.9523C12.9295 40.9753 12.9688 40.9943 13.0099 41.0094C13.051 41.0239 13.0888 41.0357 13.1232 41.0448L13.3118 41.0956C13.3602 41.1083 13.414 41.1258 13.4732 41.1482C13.5331 41.1705 13.5902 41.2011 13.6446 41.2397C13.6996 41.2778 13.7449 41.3268 13.7806 41.3866C13.8163 41.4465 13.8341 41.5199 13.8341 41.607C13.8341 41.7073 13.8078 41.798 13.7552 41.879C13.7032 41.96 13.6271 42.0243 13.5267 42.0721C13.427 42.1198 13.3058 42.1437 13.1631 42.1437C13.0301 42.1437 12.915 42.1223 12.8177 42.0793C12.7209 42.0364 12.6448 41.9766 12.5892 41.8998C12.5342 41.8231 12.503 41.7339 12.4958 41.6323H12.7279C12.7339 41.7025 12.7575 41.7605 12.7986 41.8064C12.8403 41.8518 12.8929 41.8856 12.9564 41.908C13.0205 41.9297 13.0894 41.9406 13.1631 41.9406C13.249 41.9406 13.326 41.9267 13.3943 41.8989C13.4626 41.8705 13.5167 41.8312 13.5566 41.781C13.5965 41.7303 13.6165 41.671 13.6165 41.6033C13.6165 41.5417 13.5992 41.4915 13.5648 41.4528C13.5303 41.4141 13.485 41.3827 13.4288 41.3585C13.3726 41.3343 13.3118 41.3132 13.2465 41.295L13.018 41.2298C12.873 41.1881 12.7581 41.1285 12.6735 41.0511C12.5889 40.9738 12.5466 40.8725 12.5466 40.7474C12.5466 40.6434 12.5747 40.5528 12.6309 40.4754C12.6877 40.3974 12.7639 40.337 12.8594 40.294C12.9555 40.2505 13.0628 40.2288 13.1813 40.2288C13.3009 40.2288 13.4073 40.2502 13.5004 40.2931C13.5935 40.3354 13.6672 40.3935 13.7217 40.4672C13.7767 40.541 13.8057 40.6247 13.8087 40.7184H13.5911Z" fill="white"/>
<path d="M15.6325 37.5741C15.6325 37.5741 15.6114 44.7165 15.6114 44.4471L15.1049 38.099C15.1049 37.4042 14.5397 36.8418 13.8416 36.8418L7.69155 36.3154C7.42085 36.3154 14.3692 36.3168 14.3692 36.3168C15.0658 36.3168 15.6325 36.8809 15.6325 37.5741Z" fill="#00AAFF"/>
</svg>
