<svg width="24" height="24" viewBox="0 0 24 24" fill="none" xmlns="http://www.w3.org/2000/svg">
<g clip-path="url(#clip0_200_29)">
<path d="M12 9.14226C11.4349 9.14247 10.8825 9.31024 10.4128 9.62435C9.94298 9.93847 9.57689 10.3848 9.36078 10.907C9.14467 11.4291 9.08823 12.0037 9.19861 12.5579C9.30899 13.1121 9.58122 13.6212 9.98089 14.0207C10.3806 14.4202 10.8897 14.6923 11.444 14.8024C11.9983 14.9126 12.5728 14.8559 13.0948 14.6396C13.6169 14.4233 14.0631 14.0571 14.3771 13.5872C14.691 13.1173 14.8586 12.5649 14.8586 11.9998C14.858 11.2419 14.5566 10.5152 14.0206 9.97945C13.4846 9.44365 12.7579 9.14254 12 9.14226ZM18.6809 6.94583C18.5354 6.57717 18.3158 6.24234 18.0355 5.9621C17.7553 5.68186 17.4204 5.46219 17.0518 5.31672C15.9268 4.87261 13.2482 4.97226 12 4.97226C10.7518 4.97226 8.07589 4.86886 6.94768 5.31672C6.57902 5.46219 6.24419 5.68186 5.96395 5.9621C5.68371 6.24234 5.46404 6.57717 5.31857 6.94583C4.875 8.07083 4.97411 10.7521 4.97411 11.9992C4.97411 13.2464 4.875 15.9244 5.32071 17.0531C5.46618 17.4218 5.68585 17.7566 5.96609 18.0369C6.24633 18.3171 6.58117 18.5368 6.94982 18.6823C8.07482 19.1264 10.7534 19.0267 12.0021 19.0267C13.2509 19.0267 15.9257 19.1301 17.0539 18.6823C17.4226 18.5368 17.7574 18.3171 18.0377 18.0369C18.3179 17.7566 18.5376 17.4218 18.683 17.0531C19.1304 15.9281 19.0275 13.2469 19.0275 11.9998C19.0275 10.7526 19.1304 8.07511 18.683 6.94636L18.6809 6.94583ZM12 16.3926C11.1312 16.3926 10.2819 16.135 9.55946 15.6523C8.83706 15.1696 8.27401 14.4835 7.94153 13.6808C7.60904 12.8781 7.52205 11.9949 7.69155 11.1428C7.86105 10.2906 8.27943 9.50789 8.89378 8.89354C9.50813 8.27918 10.2909 7.86081 11.143 7.69131C11.9951 7.52181 12.8784 7.6088 13.6811 7.94129C14.4838 8.27377 15.1698 8.83681 15.6525 9.55922C16.1352 10.2816 16.3929 11.1309 16.3929 11.9998C16.3936 12.5768 16.2804 13.1484 16.0599 13.6817C15.8394 14.2149 15.5158 14.6995 15.1078 15.1075C14.6997 15.5156 14.2152 15.8392 13.6819 16.0597C13.1486 16.2802 12.5771 16.3933 12 16.3926ZM16.5739 8.44797C16.3711 8.44808 16.1728 8.38803 16.0041 8.27543C15.8354 8.16282 15.7039 8.00272 15.6262 7.81537C15.5486 7.62802 15.5282 7.42184 15.5677 7.2229C15.6072 7.02397 15.7048 6.84122 15.8482 6.69777C15.9915 6.55431 16.1742 6.4566 16.3732 6.417C16.5721 6.37739 16.7783 6.39766 16.9657 6.47526C17.153 6.55285 17.3132 6.68427 17.4259 6.8529C17.5386 7.02153 17.5988 7.21979 17.5988 7.42261C17.5993 7.5573 17.5733 7.69077 17.5221 7.81537C17.471 7.93997 17.3958 8.05326 17.3008 8.14872C17.2058 8.24418 17.0928 8.31994 16.9685 8.37166C16.8441 8.42338 16.7108 8.45004 16.5761 8.45011L16.5739 8.44797ZM21.4286 -0.000244141H2.57143C1.88944 -0.000244141 1.23539 0.270674 0.753154 0.75291C0.270918 1.23515 0 1.8892 0 2.57118L0 21.4283C0 22.1103 0.270918 22.7644 0.753154 23.2466C1.23539 23.7288 1.88944 23.9998 2.57143 23.9998H21.4286C22.1106 23.9998 22.7646 23.7288 23.2468 23.2466C23.7291 22.7644 24 22.1103 24 21.4283V2.57118C24 1.8892 23.7291 1.23515 23.2468 0.75291C22.7646 0.270674 22.1106 -0.000244141 21.4286 -0.000244141ZM20.5114 15.5355C20.4423 16.9085 20.1289 18.1251 19.1266 19.1248C18.1243 20.1244 16.9088 20.4442 15.5373 20.5096C14.1225 20.5894 9.88071 20.5894 8.46589 20.5096C7.09286 20.4405 5.88054 20.1265 4.87661 19.1248C3.87268 18.123 3.55714 16.9058 3.49179 15.5355C3.41196 14.1201 3.41196 9.87779 3.49179 8.46404C3.56089 7.09101 3.87054 5.8744 4.87661 4.87476C5.88268 3.87511 7.09821 3.55904 8.46589 3.49368C9.88071 3.41386 14.1225 3.41386 15.5373 3.49368C16.9104 3.56279 18.1264 3.87672 19.1266 4.87851C20.1268 5.88029 20.4461 7.09743 20.5114 8.47047C20.5913 9.88047 20.5913 14.119 20.5114 15.5355Z" fill="white"/>
</g>
<defs>
<clipPath id="clip0_200_29">
<rect width="24" height="24" fill="white" transform="translate(0 -0.000244141)"/>
</clipPath>
</defs>
</svg>
