<svg width="14" height="15" viewBox="0 0 14 15" fill="none" xmlns="http://www.w3.org/2000/svg">
<g clip-path="url(#clip0_158_8)">
<path d="M6.84497 10.3125C6.84497 10.3125 6.37622 10.3125 5.43872 10.3125C4.50122 10.3125 4.03247 9.375 4.03247 7.5C4.03247 5.625 4.96997 4.6875 6.84497 4.6875C8.71997 4.6875 9.65747 5.625 9.65747 7.5C9.65747 9.375 8.71997 10.3125 6.84497 10.3125ZM4.06763 4.72266C3.57544 5.21484 3.24731 5.76562 3.08325 6.375H0.0949707V2.4375C0.0949707 1.94531 0.259033 1.54688 0.587158 1.24219C0.962158 0.914062 1.37231 0.75 1.81763 0.75H11.9426C12.3879 0.75 12.7747 0.914062 13.1028 1.24219C13.4309 1.57031 13.595 1.96875 13.595 2.4375V6.375H10.6418C10.4778 5.76562 10.1497 5.21484 9.65747 4.72266C8.88403 3.94922 7.94653 3.5625 6.84497 3.5625C5.76685 3.5625 4.84106 3.94922 4.06763 4.72266ZM12.47 3.70312V2.33203C12.47 2.21484 12.4231 2.10938 12.3293 2.01562C12.2356 1.92188 12.1301 1.875 12.0129 1.875H10.677C10.5598 1.875 10.4543 1.92188 10.3606 2.01562C10.2668 2.10938 10.22 2.21484 10.22 2.33203V3.70312C10.22 3.82031 10.2668 3.92578 10.3606 4.01953C10.4309 4.08984 10.5364 4.125 10.677 4.125H12.0129C12.1536 4.125 12.259 4.08984 12.3293 4.01953C12.4231 3.92578 12.47 3.82031 12.47 3.70312ZM9.65747 10.2773C10.4075 9.52734 10.7825 8.60156 10.7825 7.5H13.595V12.5625C13.595 12.9844 13.4309 13.3828 13.1028 13.7578C12.7981 14.0859 12.4114 14.25 11.9426 14.25H1.81763C1.34888 14.25 0.950439 14.0859 0.622314 13.7578C0.270752 13.4062 0.0949707 13.0078 0.0949707 12.5625V7.5H2.94263C2.94263 8.60156 3.31763 9.52734 4.06763 10.2773C4.84106 11.0508 5.76685 11.4375 6.84497 11.4375C7.94653 11.4375 8.88403 11.0508 9.65747 10.2773Z" fill="white"/>
</g>
<defs>
<clipPath id="clip0_158_8">
<rect width="14" height="15" fill="white" transform="matrix(1 0 0 -1 0 15)"/>
</clipPath>
</defs>
</svg>
