<svg width="24" height="24" viewBox="0 0 24 24" fill="none" xmlns="http://www.w3.org/2000/svg">
<path d="M21.3333 -0.000244141C22.0406 -0.000244141 22.7189 0.280707 23.219 0.780804C23.719 1.2809 24 1.95918 24 2.66642V21.3331C24 22.0403 23.719 22.7186 23.219 23.2187C22.7189 23.7188 22.0406 23.9998 21.3333 23.9998H2.66667C1.95942 23.9998 1.28115 23.7188 0.781048 23.2187C0.280951 22.7186 0 22.0403 0 21.3331V2.66642C0 1.95918 0.280951 1.2809 0.781048 0.780804C1.28115 0.280707 1.95942 -0.000244141 2.66667 -0.000244141H21.3333ZM20.6667 20.6664V13.5998C20.6667 12.4469 20.2087 11.3414 19.3936 10.5262C18.5784 9.71104 17.4728 9.25309 16.32 9.25309C15.1867 9.25309 13.8667 9.94642 13.2267 10.9864V9.50642H9.50667V20.6664H13.2267V14.0931C13.2267 13.0664 14.0533 12.2264 15.08 12.2264C15.5751 12.2264 16.0499 12.4231 16.3999 12.7732C16.75 13.1232 16.9467 13.598 16.9467 14.0931V20.6664H20.6667ZM5.17333 7.41309C5.76742 7.41309 6.33717 7.17709 6.75725 6.75701C7.17733 6.33693 7.41333 5.76717 7.41333 5.17309C7.41333 3.93309 6.41333 2.91976 5.17333 2.91976C4.57571 2.91976 4.00257 3.15716 3.57999 3.57974C3.1574 4.00232 2.92 4.57547 2.92 5.17309C2.92 6.41309 3.93333 7.41309 5.17333 7.41309ZM7.02667 20.6664V9.50642H3.33333V20.6664H7.02667Z" fill="white"/>
</svg>
