<svg width="200" height="77" viewBox="0 0 200 77" fill="none" xmlns="http://www.w3.org/2000/svg">
<path d="M63.1674 14.2995L53.993 8.497C53.2474 8.02544 52.3833 7.77512 51.5011 7.77512L14.2655 7.77512C6.46957 8.70962 6.46957 16.6529 8.44765 19.4564L43.5875 59.523H22.6432L14.2655 50.178C14.537 48.932 14.9869 45.342 14.6146 40.9498C14.2422 36.5577 10.9687 32.2668 9.37851 30.6703L5.306 26.2315C2.42034 23.7083 0.768066 19.2227 0.768066 17.5874L0.768066 13.3821C1.34985 4.738 9.53365 1.54512 13.1019 1L50.5678 1C52.0085 1 53.3683 1.66618 54.2514 2.80462L63.1674 14.2995Z" fill="white"/>
<path d="M10.306 58.8603L18.2183 67.7381H48.7039C56.6162 67.5044 57.0816 59.2108 54.5218 56.0568L19.3819 15.9902L40.3262 15.9902L48.7039 25.3352C48.4324 26.5812 48.2152 30.0544 48.5876 34.4465C48.9599 38.8387 52.0007 43.2464 53.5909 44.8428L57.6634 49.2817C60.456 51.7348 61.9687 55.1223 62.4341 58.1595V62.3647C61.5032 71.4761 53.5909 74.5132 49.8675 74.5132H1.34651L10.306 58.8603Z" fill="white"/>
<path d="M75.065 28.455C75.065 27.965 75.2283 27.72 75.555 27.72C75.8583 27.72 76.045 27.8367 76.115 28.07C76.3483 28.63 76.5583 29.12 76.745 29.54C76.955 29.9367 77.2817 30.4383 77.725 31.045C78.1683 31.6283 78.6467 32.1183 79.16 32.515C79.6733 32.8883 80.3267 33.215 81.12 33.495C81.9367 33.775 82.8233 33.915 83.78 33.915C85.53 33.915 86.93 33.46 87.98 32.55C89.0533 31.6167 89.59 30.4033 89.59 28.91C89.59 27.8133 89.2283 26.9033 88.505 26.18C87.7817 25.4333 86.9533 24.9083 86.02 24.605C85.0867 24.2783 83.8967 23.8583 82.45 23.345C81.0267 22.8083 79.86 22.2717 78.95 21.735C76.8267 20.475 75.765 18.76 75.765 16.59C75.765 14.5133 76.5117 12.8567 78.005 11.62C79.5217 10.36 81.4817 9.73 83.885 9.73C84.7717 9.73 85.8217 9.92833 87.035 10.325C88.2717 10.6983 88.9017 10.885 88.925 10.885C88.995 10.885 89.1233 10.8383 89.31 10.745C89.4967 10.6517 89.6367 10.605 89.73 10.605C90.0333 10.605 90.2083 10.6983 90.255 10.885C90.745 13.7083 90.99 15.295 90.99 15.645C90.99 16.2983 90.8267 16.625 90.5 16.625C90.29 16.625 90.1267 16.4617 90.01 16.135C89.73 15.4583 89.45 14.91 89.17 14.49C88.9133 14.07 88.7267 13.8017 88.61 13.685C88.4933 13.5683 88.19 13.2883 87.7 12.845C86.44 11.725 84.9117 11.165 83.115 11.165C81.6683 11.165 80.455 11.515 79.475 12.215C78.495 12.915 78.005 13.86 78.005 15.05C78.005 16.1 78.285 16.9633 78.845 17.64C79.4283 18.3167 80.1983 18.8417 81.155 19.215C82.1117 19.5883 83.115 19.9383 84.165 20.265C85.215 20.5917 86.3233 21.0467 87.49 21.63C88.68 22.2133 89.66 22.9133 90.43 23.73C91.3633 24.7333 91.83 25.9817 91.83 27.475C91.83 29.925 91.0483 31.8733 89.485 33.32C87.9217 34.7433 85.985 35.455 83.675 35.455C82.065 35.455 80.77 35.3617 79.79 35.175C78.81 35.0117 77.8067 34.6617 76.78 34.125C76.4767 33.9383 76.115 33.0283 75.695 31.395C75.275 29.7617 75.065 28.7817 75.065 28.455ZM94.5496 10.605C94.5496 10.4183 94.6663 10.2667 94.8996 10.15C95.1563 10.01 95.5063 9.88167 95.9496 9.765C96.4163 9.64833 96.7546 9.54333 96.9646 9.45C98.4346 8.79667 99.2746 8.47 99.4846 8.47C99.7879 8.47 99.9396 8.73833 99.9396 9.275C99.9396 9.39167 99.8929 9.67167 99.7996 10.115C99.7296 10.5583 99.6946 11.0017 99.6946 11.445C99.6713 13.545 99.6363 15.33 99.5896 16.8C99.5663 18.2467 99.5429 19.2267 99.5196 19.74C99.4963 20.23 99.4729 20.6383 99.4496 20.965C99.4496 21.2917 99.4496 21.5483 99.4496 21.735C99.4496 22.1783 99.5429 22.4 99.7296 22.4C99.7763 22.4 100.01 22.19 100.43 21.77C100.873 21.3267 101.468 20.895 102.215 20.475C102.985 20.0317 103.801 19.81 104.665 19.81C106.555 19.81 108.025 20.37 109.075 21.49C110.125 22.61 110.65 24.3483 110.65 26.705V31.78C110.65 32.0133 110.673 32.27 110.72 32.55C110.766 32.8067 110.883 33.075 111.07 33.355C111.256 33.635 111.501 33.7867 111.805 33.81C113.065 33.9267 113.695 34.1717 113.695 34.545C113.695 34.9183 113.333 35.105 112.61 35.105C112.493 35.105 112.038 35.07 111.245 35C110.475 34.9533 109.95 34.93 109.67 34.93C109.46 34.93 108.97 34.9533 108.2 35C107.453 35.0233 107.045 35.035 106.975 35.035C106.438 35.035 106.17 34.9183 106.17 34.685C106.17 34.4283 106.263 34.265 106.45 34.195C106.66 34.1017 106.881 34.055 107.115 34.055C107.348 34.055 107.558 33.9267 107.745 33.67C107.955 33.4133 108.06 33.0167 108.06 32.48C108.06 32.3867 108.06 32.27 108.06 32.13C108.083 31.99 108.095 31.8033 108.095 31.57C108.095 31.3133 108.095 30.765 108.095 29.925C108.118 29.085 108.13 28 108.13 26.67C108.13 25.2467 107.698 24.0217 106.835 22.995C105.971 21.945 104.956 21.42 103.79 21.42C102.693 21.42 101.561 21.875 100.395 22.785C99.9746 23.1117 99.7063 23.6483 99.5896 24.395C99.4729 25.1183 99.4146 26.74 99.4146 29.26V30.065C99.4146 31.115 99.4963 31.9667 99.6596 32.62C99.8463 33.25 100.231 33.6933 100.815 33.95C101.001 34.02 101.258 34.0667 101.585 34.09C101.911 34.1133 102.156 34.16 102.32 34.23C102.506 34.2767 102.6 34.3933 102.6 34.58C102.6 34.86 102.471 35 102.215 35L101.305 34.965C100.698 34.9417 100.08 34.9183 99.4496 34.895C98.8429 34.8483 98.5163 34.825 98.4696 34.825C98.3063 34.825 97.8979 34.86 97.2446 34.93C96.5913 34.9767 96.1713 35 95.9846 35C95.6813 35 95.4479 34.9883 95.2846 34.965C95.1446 34.9183 95.0629 34.8833 95.0396 34.86C95.0396 34.8133 95.0396 34.7433 95.0396 34.65C95.0396 34.4167 95.1796 34.265 95.4596 34.195C96.1363 34.0083 96.5679 33.7167 96.7546 33.32C96.9646 32.9 97.0696 32.2933 97.0696 31.5L97.2096 19.565V17.85C97.2096 14.3267 97.1163 12.285 96.9296 11.725C96.7663 11.235 96.3696 10.99 95.7396 10.99C95.5296 10.99 95.3779 10.99 95.2846 10.99L95.1446 10.955C94.7479 10.955 94.5496 10.8383 94.5496 10.605ZM116.072 32.025C116.072 31.185 116.247 30.485 116.597 29.925C116.947 29.3417 117.472 28.8983 118.172 28.595C118.895 28.2683 119.642 28.0117 120.412 27.825C121.182 27.6383 122.115 27.4517 123.212 27.265C123.352 27.2417 123.457 27.23 123.527 27.23C123.597 27.2067 123.69 27.195 123.807 27.195C123.923 27.1717 124.028 27.1483 124.122 27.125C124.285 27.1017 124.39 27.0783 124.437 27.055C124.507 27.0317 124.565 26.985 124.612 26.915C124.682 26.8217 124.717 26.705 124.717 26.565C124.717 26.3317 124.728 26.0167 124.752 25.62C124.775 25.2 124.787 24.9083 124.787 24.745C124.787 23.415 124.402 22.4583 123.632 21.875C122.862 21.2683 122.115 20.965 121.392 20.965C119.712 20.965 118.872 21.665 118.872 23.065C118.872 23.2517 118.895 23.485 118.942 23.765C118.988 24.045 119.012 24.2317 119.012 24.325C119.012 24.7917 118.802 25.025 118.382 25.025C118.242 25.025 118.067 25.0133 117.857 24.99C117.647 24.9433 117.402 24.885 117.122 24.815C116.865 24.7217 116.643 24.5817 116.457 24.395C116.293 24.185 116.212 23.94 116.212 23.66C116.212 22.75 116.818 21.8867 118.032 21.07C119.268 20.23 120.622 19.81 122.092 19.81C123.095 19.81 123.947 19.9267 124.647 20.16C125.347 20.3933 125.86 20.6617 126.187 20.965C126.537 21.245 126.805 21.63 126.992 22.12C127.178 22.5867 127.283 22.96 127.307 23.24C127.33 23.4967 127.342 23.8233 127.342 24.22C127.342 25.9 127.307 27.23 127.237 28.21C127.19 29.1667 127.167 30.0067 127.167 30.73C127.167 31.5933 127.26 32.2817 127.447 32.795C127.633 33.285 127.855 33.6 128.112 33.74C128.368 33.88 128.625 33.9617 128.882 33.985C129.138 34.0083 129.36 34.055 129.547 34.125C129.733 34.195 129.827 34.335 129.827 34.545C129.827 35.035 129.092 35.28 127.622 35.28C127.015 35.28 126.49 35.1167 126.047 34.79C125.627 34.4633 125.323 34.1483 125.137 33.845C124.95 33.5183 124.845 33.355 124.822 33.355C124.798 33.355 124.705 33.4367 124.542 33.6C124.378 33.74 124.145 33.915 123.842 34.125C123.562 34.335 123.235 34.545 122.862 34.755C122.512 34.965 122.092 35.14 121.602 35.28C121.135 35.4433 120.668 35.525 120.202 35.525C118.708 35.525 117.623 35.175 116.947 34.475C116.363 33.8917 116.072 33.075 116.072 32.025ZM118.802 31.5C118.802 32.2933 119.035 32.935 119.502 33.425C119.968 33.8917 120.633 34.125 121.497 34.125C122.103 34.125 122.617 34.0317 123.037 33.845C123.48 33.6583 123.807 33.4483 124.017 33.215C124.227 32.9817 124.39 32.6783 124.507 32.305C124.623 31.9083 124.682 31.605 124.682 31.395C124.705 31.185 124.717 30.905 124.717 30.555V28.035C124.717 27.825 124.635 27.72 124.472 27.72C124.425 27.72 124.367 27.7317 124.297 27.755C124.227 27.7783 124.168 27.79 124.122 27.79C123.585 27.8833 123.247 27.9417 123.107 27.965C122.967 27.9883 122.64 28.0583 122.127 28.175C121.613 28.2917 121.252 28.3967 121.042 28.49C120.855 28.5833 120.575 28.735 120.202 28.945C119.852 29.1317 119.595 29.3417 119.432 29.575C119.292 29.785 119.152 30.065 119.012 30.415C118.872 30.7417 118.802 31.1033 118.802 31.5ZM131.224 10.605C131.224 10.4183 131.341 10.2667 131.574 10.15C131.831 10.01 132.181 9.88167 132.624 9.765C133.091 9.64833 133.429 9.54333 133.639 9.45C135.109 8.79667 135.949 8.47 136.159 8.47C136.463 8.47 136.614 8.73833 136.614 9.275C136.614 9.39167 136.568 9.67167 136.474 10.115C136.404 10.5583 136.369 11.0017 136.369 11.445C136.346 13.545 136.311 15.33 136.264 16.8C136.241 18.2467 136.218 19.2267 136.194 19.74C136.171 20.23 136.148 20.6383 136.124 20.965C136.124 21.2917 136.124 21.5483 136.124 21.735C136.124 22.1783 136.218 22.4 136.404 22.4C136.451 22.4 136.684 22.19 137.104 21.77C137.548 21.3267 138.143 20.895 138.889 20.475C139.659 20.0317 140.476 19.81 141.339 19.81C143.229 19.81 144.699 20.37 145.749 21.49C146.799 22.61 147.324 24.3483 147.324 26.705V31.78C147.324 32.0133 147.348 32.27 147.394 32.55C147.441 32.8067 147.558 33.075 147.744 33.355C147.931 33.635 148.176 33.7867 148.479 33.81C149.739 33.9267 150.369 34.1717 150.369 34.545C150.369 34.9183 150.008 35.105 149.284 35.105C149.168 35.105 148.713 35.07 147.919 35C147.149 34.9533 146.624 34.93 146.344 34.93C146.134 34.93 145.644 34.9533 144.874 35C144.128 35.0233 143.719 35.035 143.649 35.035C143.113 35.035 142.844 34.9183 142.844 34.685C142.844 34.4283 142.938 34.265 143.124 34.195C143.334 34.1017 143.556 34.055 143.789 34.055C144.023 34.055 144.233 33.9267 144.419 33.67C144.629 33.4133 144.734 33.0167 144.734 32.48C144.734 32.3867 144.734 32.27 144.734 32.13C144.758 31.99 144.769 31.8033 144.769 31.57C144.769 31.3133 144.769 30.765 144.769 29.925C144.793 29.085 144.804 28 144.804 26.67C144.804 25.2467 144.373 24.0217 143.509 22.995C142.646 21.945 141.631 21.42 140.464 21.42C139.368 21.42 138.236 21.875 137.069 22.785C136.649 23.1117 136.381 23.6483 136.264 24.395C136.148 25.1183 136.089 26.74 136.089 29.26V30.065C136.089 31.115 136.171 31.9667 136.334 32.62C136.521 33.25 136.906 33.6933 137.489 33.95C137.676 34.02 137.933 34.0667 138.259 34.09C138.586 34.1133 138.831 34.16 138.994 34.23C139.181 34.2767 139.274 34.3933 139.274 34.58C139.274 34.86 139.146 35 138.889 35L137.979 34.965C137.373 34.9417 136.754 34.9183 136.124 34.895C135.518 34.8483 135.191 34.825 135.144 34.825C134.981 34.825 134.573 34.86 133.919 34.93C133.266 34.9767 132.846 35 132.659 35C132.356 35 132.123 34.9883 131.959 34.965C131.819 34.9183 131.738 34.8833 131.714 34.86C131.714 34.8133 131.714 34.7433 131.714 34.65C131.714 34.4167 131.854 34.265 132.134 34.195C132.811 34.0083 133.243 33.7167 133.429 33.32C133.639 32.9 133.744 32.2933 133.744 31.5L133.884 19.565V17.85C133.884 14.3267 133.791 12.285 133.604 11.725C133.441 11.235 133.044 10.99 132.414 10.99C132.204 10.99 132.053 10.99 131.959 10.99L131.819 10.955C131.423 10.955 131.224 10.8383 131.224 10.605ZM151.145 10.815C151.145 10.605 151.261 10.4183 151.495 10.255C151.728 10.0917 152.101 9.92833 152.615 9.765C153.128 9.57833 153.396 9.485 153.42 9.485C153.583 9.415 153.84 9.29833 154.19 9.135C154.563 8.94833 154.878 8.80833 155.135 8.715C155.391 8.59833 155.566 8.54 155.66 8.54C155.776 8.54 155.893 8.59833 156.01 8.715C156.126 8.83166 156.185 8.98333 156.185 9.17C156.185 9.38 156.185 9.625 156.185 9.905C156.185 10.1617 156.173 10.5233 156.15 10.99C156.15 11.4333 156.15 12.4833 156.15 14.14C156.15 15.7967 156.15 17.955 156.15 20.615C156.15 21.455 156.231 21.875 156.395 21.875C156.488 21.875 156.628 21.7583 156.815 21.525C157.001 21.2683 157.223 21 157.48 20.72C157.76 20.4167 158.285 20.1483 159.055 19.915C159.825 19.6583 160.781 19.53 161.925 19.53C164.001 19.53 165.611 20.2533 166.755 21.7C167.921 23.1467 168.505 24.8383 168.505 26.775C168.505 27.8717 168.213 29.1433 167.63 30.59C167.07 32.0133 166.3 33.0983 165.32 33.845C163.966 34.8717 162.345 35.385 160.455 35.385C159.498 35.385 158.611 35.2217 157.795 34.895C156.978 34.545 156.36 34.2067 155.94 33.88C155.543 33.53 155.333 33.355 155.31 33.355C155.216 33.355 154.983 33.7283 154.61 34.475C154.26 35.2217 153.921 35.595 153.595 35.595C153.315 35.595 153.175 35.4433 153.175 35.14C153.175 34.8133 153.198 34.265 153.245 33.495C153.291 32.7017 153.315 32.2933 153.315 32.27C153.315 31.5 153.361 30.1233 153.455 28.14C153.571 26.1567 153.63 24.4533 153.63 23.03V14.385C153.63 12.2617 153.105 11.2 152.055 11.2H151.705C151.331 11.2 151.145 11.0717 151.145 10.815ZM156.15 30.38C156.15 31.01 156.605 31.7917 157.515 32.725C158.448 33.6583 159.696 34.125 161.26 34.125C162.87 34.125 164.095 33.5883 164.935 32.515C165.798 31.4183 166.23 30.0883 166.23 28.525C166.23 26.6817 165.67 25.0367 164.55 23.59C163.453 22.1433 161.96 21.42 160.07 21.42C158.973 21.42 158.04 21.7467 157.27 22.4C156.523 23.0067 156.15 23.555 156.15 24.045V30.38ZM171.545 32.025C171.545 31.185 171.72 30.485 172.07 29.925C172.42 29.3417 172.945 28.8983 173.645 28.595C174.369 28.2683 175.115 28.0117 175.885 27.825C176.655 27.6383 177.589 27.4517 178.685 27.265C178.825 27.2417 178.93 27.23 179 27.23C179.07 27.2067 179.164 27.195 179.28 27.195C179.397 27.1717 179.502 27.1483 179.595 27.125C179.759 27.1017 179.864 27.0783 179.91 27.055C179.98 27.0317 180.039 26.985 180.085 26.915C180.155 26.8217 180.19 26.705 180.19 26.565C180.19 26.3317 180.202 26.0167 180.225 25.62C180.249 25.2 180.26 24.9083 180.26 24.745C180.26 23.415 179.875 22.4583 179.105 21.875C178.335 21.2683 177.589 20.965 176.865 20.965C175.185 20.965 174.345 21.665 174.345 23.065C174.345 23.2517 174.369 23.485 174.415 23.765C174.462 24.045 174.485 24.2317 174.485 24.325C174.485 24.7917 174.275 25.025 173.855 25.025C173.715 25.025 173.54 25.0133 173.33 24.99C173.12 24.9433 172.875 24.885 172.595 24.815C172.339 24.7217 172.117 24.5817 171.93 24.395C171.767 24.185 171.685 23.94 171.685 23.66C171.685 22.75 172.292 21.8867 173.505 21.07C174.742 20.23 176.095 19.81 177.565 19.81C178.569 19.81 179.42 19.9267 180.12 20.16C180.82 20.3933 181.334 20.6617 181.66 20.965C182.01 21.245 182.279 21.63 182.465 22.12C182.652 22.5867 182.757 22.96 182.78 23.24C182.804 23.4967 182.815 23.8233 182.815 24.22C182.815 25.9 182.78 27.23 182.71 28.21C182.664 29.1667 182.64 30.0067 182.64 30.73C182.64 31.5933 182.734 32.2817 182.92 32.795C183.107 33.285 183.329 33.6 183.585 33.74C183.842 33.88 184.099 33.9617 184.355 33.985C184.612 34.0083 184.834 34.055 185.02 34.125C185.207 34.195 185.3 34.335 185.3 34.545C185.3 35.035 184.565 35.28 183.095 35.28C182.489 35.28 181.964 35.1167 181.52 34.79C181.1 34.4633 180.797 34.1483 180.61 33.845C180.424 33.5183 180.319 33.355 180.295 33.355C180.272 33.355 180.179 33.4367 180.015 33.6C179.852 33.74 179.619 33.915 179.315 34.125C179.035 34.335 178.709 34.545 178.335 34.755C177.985 34.965 177.565 35.14 177.075 35.28C176.609 35.4433 176.142 35.525 175.675 35.525C174.182 35.525 173.097 35.175 172.42 34.475C171.837 33.8917 171.545 33.075 171.545 32.025ZM174.275 31.5C174.275 32.2933 174.509 32.935 174.975 33.425C175.442 33.8917 176.107 34.125 176.97 34.125C177.577 34.125 178.09 34.0317 178.51 33.845C178.954 33.6583 179.28 33.4483 179.49 33.215C179.7 32.9817 179.864 32.6783 179.98 32.305C180.097 31.9083 180.155 31.605 180.155 31.395C180.179 31.185 180.19 30.905 180.19 30.555V28.035C180.19 27.825 180.109 27.72 179.945 27.72C179.899 27.72 179.84 27.7317 179.77 27.755C179.7 27.7783 179.642 27.79 179.595 27.79C179.059 27.8833 178.72 27.9417 178.58 27.965C178.44 27.9883 178.114 28.0583 177.6 28.175C177.087 28.2917 176.725 28.3967 176.515 28.49C176.329 28.5833 176.049 28.735 175.675 28.945C175.325 29.1317 175.069 29.3417 174.905 29.575C174.765 29.785 174.625 30.065 174.485 30.415C174.345 30.7417 174.275 31.1033 174.275 31.5ZM187.398 34.475C187.398 34.3583 187.398 34.265 187.398 34.195C187.421 34.1017 187.445 34.0317 187.468 33.985C187.491 33.915 187.538 33.8217 187.608 33.705C187.678 33.5883 187.748 33.4833 187.818 33.39C187.888 33.2967 187.993 33.145 188.133 32.935C188.296 32.7017 188.448 32.4917 188.588 32.305C192.858 26.145 194.993 22.89 194.993 22.54C194.993 22.4233 194.725 22.365 194.188 22.365C193.908 22.365 193.185 22.4117 192.018 22.505C190.875 22.575 190.175 22.61 189.918 22.61C189.498 22.6333 189.136 22.8083 188.833 23.135C188.553 23.4617 188.331 23.7883 188.168 24.115C188.005 24.4417 187.865 24.605 187.748 24.605C187.561 24.605 187.468 24.4767 187.468 24.22C187.468 23.8 187.491 23.3683 187.538 22.925C187.608 22.4817 187.69 22.0267 187.783 21.56C187.876 21.07 187.923 20.79 187.923 20.72C187.97 20.3 188.203 20.09 188.623 20.09C188.693 20.09 188.891 20.1017 189.218 20.125C189.545 20.1483 189.988 20.1717 190.548 20.195C191.108 20.195 191.715 20.195 192.368 20.195C193.091 20.195 194.013 20.1833 195.133 20.16C196.253 20.1133 197.046 20.09 197.513 20.09C197.793 20.09 197.933 20.2067 197.933 20.44C197.933 20.6033 197.863 20.79 197.723 21C197.606 21.1867 197.455 21.3967 197.268 21.63C197.081 21.84 196.965 21.98 196.918 22.05C195.938 23.5667 194.83 25.2 193.593 26.95C192.38 28.6767 191.493 29.96 190.933 30.8C190.396 31.6167 190.128 32.165 190.128 32.445C190.128 32.655 190.7 32.76 191.843 32.76C192.1 32.76 192.426 32.76 192.823 32.76C193.22 32.7367 193.465 32.725 193.558 32.725C194.165 32.725 194.678 32.69 195.098 32.62C195.518 32.5267 195.833 32.3983 196.043 32.235C196.276 32.0483 196.44 31.8967 196.533 31.78C196.626 31.64 196.72 31.43 196.813 31.15C196.93 30.87 197.011 30.6833 197.058 30.59C197.221 30.2633 197.42 30.1 197.653 30.1C198.026 30.1 198.213 30.2633 198.213 30.59C198.213 30.73 197.933 31.4417 197.373 32.725C197.303 32.8883 197.221 33.1217 197.128 33.425C197.058 33.7283 196.988 33.985 196.918 34.195C196.871 34.3817 196.79 34.5567 196.673 34.72C196.58 34.86 196.451 34.93 196.288 34.93H192.298C192.158 34.93 191.785 34.9417 191.178 34.965C190.595 34.965 190.116 34.965 189.743 34.965H189.148C188.751 34.965 188.471 34.9767 188.308 35H188.063C187.62 35 187.398 34.825 187.398 34.475Z" fill="white"/>
<path d="M73.48 64.808C73.48 64.584 73.6 64.432 73.84 64.352C74.352 64.16 74.8 63.736 75.184 63.08C75.568 62.408 76.52 60.416 78.04 57.104C79.608 53.712 80.992 50.736 82.192 48.176C82.304 47.936 82.4 47.784 82.48 47.72C82.576 47.656 82.72 47.624 82.912 47.624C83.056 47.624 83.152 47.656 83.2 47.72C83.248 47.784 83.352 48.048 83.512 48.512C83.608 48.784 83.688 49.016 83.752 49.208C83.832 49.4 83.952 49.712 84.112 50.144C84.272 50.576 84.448 51.024 84.64 51.488C85.152 52.752 86.032 54.848 87.28 57.776C88.544 60.688 89.232 62.264 89.344 62.504C89.616 63.048 89.92 63.464 90.256 63.752C90.592 64.024 90.88 64.176 91.12 64.208C91.376 64.224 91.584 64.264 91.744 64.328C91.92 64.376 92.008 64.496 92.008 64.688C92.008 64.928 91.792 65.048 91.36 65.048C91.184 65.048 90.84 65.024 90.328 64.976C89.816 64.928 89.44 64.904 89.2 64.904C88.896 64.904 88.504 64.92 88.024 64.952C87.544 64.984 87.192 65 86.968 65C86.472 65 86.152 64.984 86.008 64.952C85.88 64.904 85.816 64.808 85.816 64.664C85.816 64.552 85.88 64.464 86.008 64.4C86.136 64.32 86.272 64.272 86.416 64.256C86.56 64.224 86.696 64.152 86.824 64.04C86.952 63.912 87.016 63.744 87.016 63.536C87.016 63.184 86.816 62.464 86.416 61.376C86.016 60.288 85.68 59.488 85.408 58.976C85.264 58.704 84.936 58.568 84.424 58.568C84.344 58.568 83.992 58.576 83.368 58.592C82.744 58.608 82.128 58.616 81.52 58.616H80.248C79.528 58.616 79.072 58.656 78.88 58.736C78.704 58.816 78.544 59.008 78.4 59.312C78.304 59.52 78.144 59.856 77.92 60.32C77.696 60.768 77.544 61.08 77.464 61.256C77.384 61.432 77.28 61.664 77.152 61.952C77.04 62.224 76.96 62.448 76.912 62.624C76.88 62.784 76.864 62.928 76.864 63.056C76.864 63.424 76.952 63.704 77.128 63.896C77.32 64.088 77.528 64.2 77.752 64.232C77.976 64.248 78.176 64.288 78.352 64.352C78.544 64.416 78.64 64.528 78.64 64.688C78.64 64.8 78.616 64.888 78.568 64.952C78.52 65 78.408 65.024 78.232 65.024C78.136 65.024 77.856 65.016 77.392 65C76.944 65 76.56 65 76.24 65C75.888 65 75.488 65.016 75.04 65.048C74.608 65.08 74.32 65.096 74.176 65.096C73.712 65.096 73.48 65 73.48 64.808ZM79.504 56.888C79.504 57.096 79.576 57.224 79.72 57.272C79.864 57.32 80.2 57.344 80.728 57.344H81.472L83.752 57.32C84.376 57.32 84.688 57.192 84.688 56.936C84.688 56.728 84.296 55.744 83.512 53.984C82.728 52.208 82.232 51.32 82.024 51.32C81.88 51.32 81.424 52.208 80.656 53.984C79.888 55.744 79.504 56.712 79.504 56.888ZM92.9566 48.368C92.9566 48.272 92.9646 48.2 92.9806 48.152C93.0126 48.104 93.0686 48.064 93.1486 48.032C93.2286 47.984 93.3166 47.952 93.4126 47.936C93.5246 47.904 93.6926 47.856 93.9166 47.792C94.1406 47.712 94.3646 47.624 94.5886 47.528C94.7166 47.48 94.9166 47.392 95.1886 47.264C95.4606 47.136 95.6926 47.04 95.8846 46.976C96.0926 46.896 96.2686 46.856 96.4126 46.856C96.6046 46.856 96.7006 47.008 96.7006 47.312C96.7006 47.376 96.6846 47.568 96.6526 47.888C96.6206 48.192 96.5886 48.624 96.5566 49.184C96.5246 49.728 96.5086 50.32 96.5086 50.96V52.304C96.5086 53.056 96.5006 53.696 96.4846 54.224C96.4686 54.736 96.4606 55.16 96.4606 55.496V62.648C96.4606 62.984 96.4846 63.264 96.5326 63.488C96.5966 63.696 96.7806 63.904 97.0846 64.112C97.4046 64.304 97.8446 64.4 98.4046 64.4C98.4846 64.4 98.5566 64.44 98.6206 64.52C98.6846 64.6 98.7166 64.68 98.7166 64.76C98.7166 64.984 98.4686 65.096 97.9726 65.096C97.8286 65.096 97.4526 65.064 96.8446 65C96.2526 64.952 95.8206 64.928 95.5486 64.928C95.1326 64.928 94.7326 64.96 94.3486 65.024C93.9806 65.088 93.7326 65.12 93.6046 65.12C93.4926 65.12 93.3966 65.088 93.3166 65.024C93.2526 64.976 93.2206 64.928 93.2206 64.88C93.2206 64.752 93.2526 64.664 93.3166 64.616C93.3966 64.552 93.5166 64.504 93.6766 64.472C93.8526 64.424 93.9726 64.384 94.0366 64.352C94.3086 64.224 94.4846 64.048 94.5646 63.824C94.6446 63.6 94.6846 63.256 94.6846 62.792C94.6846 62.728 94.6766 62.632 94.6606 62.504C94.6606 62.36 94.6606 62.248 94.6606 62.168V60.392C94.6606 59.8 94.6766 58.232 94.7086 55.688C94.7406 53.128 94.7566 51.296 94.7566 50.192C94.7566 49.824 94.6926 49.496 94.5646 49.208C94.4526 48.904 94.3246 48.72 94.1806 48.656C94.0366 48.592 93.7166 48.56 93.2206 48.56C93.0446 48.56 92.9566 48.496 92.9566 48.368ZM100.332 62.96C100.332 62.384 100.452 61.904 100.692 61.52C100.932 61.12 101.292 60.816 101.772 60.608C102.268 60.384 102.78 60.208 103.308 60.08C103.836 59.952 104.476 59.824 105.228 59.696C105.324 59.68 105.396 59.672 105.444 59.672C105.492 59.656 105.556 59.648 105.636 59.648C105.716 59.632 105.788 59.616 105.852 59.6C105.964 59.584 106.036 59.568 106.068 59.552C106.116 59.536 106.156 59.504 106.188 59.456C106.236 59.392 106.26 59.312 106.26 59.216C106.26 59.056 106.268 58.84 106.284 58.568C106.3 58.28 106.308 58.08 106.308 57.968C106.308 57.056 106.044 56.4 105.516 56C104.988 55.584 104.476 55.376 103.98 55.376C102.828 55.376 102.252 55.856 102.252 56.816C102.252 56.944 102.268 57.104 102.3 57.296C102.332 57.488 102.348 57.616 102.348 57.68C102.348 58 102.204 58.16 101.916 58.16C101.82 58.16 101.7 58.152 101.556 58.136C101.412 58.104 101.244 58.064 101.052 58.016C100.876 57.952 100.724 57.856 100.596 57.728C100.484 57.584 100.428 57.416 100.428 57.224C100.428 56.6 100.844 56.008 101.676 55.448C102.524 54.872 103.452 54.584 104.46 54.584C105.148 54.584 105.732 54.664 106.212 54.824C106.692 54.984 107.044 55.168 107.268 55.376C107.508 55.568 107.692 55.832 107.82 56.168C107.948 56.488 108.02 56.744 108.036 56.936C108.052 57.112 108.06 57.336 108.06 57.608C108.06 58.76 108.036 59.672 107.988 60.344C107.956 61 107.94 61.576 107.94 62.072C107.94 62.664 108.004 63.136 108.132 63.488C108.26 63.824 108.412 64.04 108.588 64.136C108.764 64.232 108.94 64.288 109.116 64.304C109.292 64.32 109.444 64.352 109.572 64.4C109.7 64.448 109.764 64.544 109.764 64.688C109.764 65.024 109.26 65.192 108.252 65.192C107.836 65.192 107.476 65.08 107.172 64.856C106.884 64.632 106.676 64.416 106.548 64.208C106.42 63.984 106.348 63.872 106.332 63.872C106.316 63.872 106.252 63.928 106.14 64.04C106.028 64.136 105.868 64.256 105.66 64.4C105.468 64.544 105.244 64.688 104.988 64.832C104.748 64.976 104.46 65.096 104.124 65.192C103.804 65.304 103.484 65.36 103.164 65.36C102.14 65.36 101.396 65.12 100.932 64.64C100.532 64.24 100.332 63.68 100.332 62.96ZM102.204 62.6C102.204 63.144 102.364 63.584 102.684 63.92C103.004 64.24 103.46 64.4 104.052 64.4C104.468 64.4 104.82 64.336 105.108 64.208C105.412 64.08 105.636 63.936 105.78 63.776C105.924 63.616 106.036 63.408 106.116 63.152C106.196 62.88 106.236 62.672 106.236 62.528C106.252 62.384 106.26 62.192 106.26 61.952V60.224C106.26 60.08 106.204 60.008 106.092 60.008C106.06 60.008 106.02 60.016 105.972 60.032C105.924 60.048 105.884 60.056 105.852 60.056C105.484 60.12 105.252 60.16 105.156 60.176C105.06 60.192 104.836 60.24 104.484 60.32C104.132 60.4 103.884 60.472 103.74 60.536C103.612 60.6 103.42 60.704 103.164 60.848C102.924 60.976 102.748 61.12 102.636 61.28C102.54 61.424 102.444 61.616 102.348 61.856C102.252 62.08 102.204 62.328 102.204 62.6ZM110.986 55.688C110.986 55.544 111.082 55.44 111.274 55.376C111.466 55.296 111.754 55.216 112.138 55.136C112.522 55.056 112.842 54.96 113.098 54.848C113.194 54.816 113.298 54.768 113.41 54.704C113.522 54.64 113.602 54.6 113.65 54.584C113.714 54.552 113.786 54.528 113.866 54.512C113.962 54.496 114.058 54.488 114.154 54.488C114.346 54.488 114.442 54.72 114.442 55.184C114.442 55.296 114.418 55.48 114.37 55.736C114.338 55.992 114.322 56.144 114.322 56.192C114.322 56.384 114.37 56.48 114.466 56.48C114.482 56.48 114.53 56.424 114.61 56.312C114.706 56.184 114.826 56.04 114.97 55.88C115.13 55.704 115.322 55.536 115.546 55.376C115.77 55.2 116.066 55.056 116.434 54.944C116.818 54.816 117.242 54.752 117.706 54.752C118.298 54.752 118.81 54.856 119.242 55.064C119.674 55.256 119.97 55.472 120.13 55.712C120.306 55.936 120.45 56.152 120.562 56.36C120.674 56.552 120.746 56.648 120.778 56.648C120.794 56.648 120.938 56.488 121.21 56.168C121.498 55.832 121.898 55.504 122.41 55.184C122.938 54.848 123.49 54.68 124.066 54.68C125.234 54.68 126.13 55.024 126.754 55.712C127.394 56.4 127.77 57.256 127.882 58.28C127.978 59.224 128.026 60.24 128.026 61.328V62.096C128.026 62.816 128.066 63.336 128.146 63.656C128.226 63.976 128.41 64.184 128.698 64.28C128.714 64.28 128.786 64.296 128.914 64.328C129.042 64.344 129.146 64.36 129.226 64.376C129.322 64.392 129.41 64.432 129.49 64.496C129.57 64.56 129.61 64.64 129.61 64.736C129.61 64.976 129.346 65.096 128.818 65.096C128.722 65.096 128.474 65.08 128.074 65.048C127.69 65.016 127.41 65 127.234 65C126.994 65 126.682 65.016 126.298 65.048C125.93 65.08 125.666 65.096 125.506 65.096C125.122 65.096 124.93 65.016 124.93 64.856C124.93 64.68 125.098 64.528 125.434 64.4C125.77 64.272 125.97 64.136 126.034 63.992C126.098 63.816 126.13 63.448 126.13 62.888V62.504C126.13 61.96 126.122 61.488 126.106 61.088C126.106 60.672 126.106 60.296 126.106 59.96C126.106 59.608 126.09 59.304 126.058 59.048C126.042 58.792 126.034 58.576 126.034 58.4C126.034 58.208 126.01 58.04 125.962 57.896C125.914 57.736 125.882 57.616 125.866 57.536C125.866 57.456 125.826 57.36 125.746 57.248C125.666 57.136 125.618 57.064 125.602 57.032C125.586 57 125.522 56.92 125.41 56.792C125.314 56.664 125.25 56.584 125.218 56.552C124.802 56.056 124.202 55.808 123.418 55.808C123.05 55.808 122.666 55.904 122.266 56.096C121.866 56.288 121.546 56.488 121.306 56.696C121.066 56.888 120.946 57.024 120.946 57.104C120.946 57.152 120.954 57.264 120.97 57.44C121.002 57.616 121.026 57.936 121.042 58.4C121.074 58.848 121.09 59.432 121.09 60.152V62.192C121.09 62.928 121.194 63.472 121.402 63.824C121.61 64.16 122.058 64.376 122.746 64.472C122.906 64.488 123.018 64.544 123.082 64.64C123.146 64.72 123.178 64.792 123.178 64.856C123.178 65.032 123.026 65.12 122.722 65.12C122.61 65.12 122.354 65.096 121.954 65.048C121.554 65.016 121.226 65 120.97 65C120.81 65 120.418 65.016 119.794 65.048C119.17 65.096 118.834 65.12 118.786 65.12C118.434 65.12 118.258 65.016 118.258 64.808C118.258 64.696 118.29 64.616 118.354 64.568C118.418 64.504 118.57 64.424 118.81 64.328C118.906 64.296 118.978 64.264 119.026 64.232C119.09 64.2 119.162 64.064 119.242 63.824C119.322 63.584 119.362 63.256 119.362 62.84C119.362 62.776 119.362 62.712 119.362 62.648C119.362 62.584 119.362 62.504 119.362 62.408C119.378 62.296 119.386 62.056 119.386 61.688C119.386 61.304 119.386 60.816 119.386 60.224C119.386 59.872 119.378 59.592 119.362 59.384C119.362 59.16 119.362 59.016 119.362 58.952C119.362 58.888 119.354 58.84 119.338 58.808C119.338 58.76 119.338 58.728 119.338 58.712C119.338 57.864 119.122 57.184 118.69 56.672C118.258 56.16 117.658 55.904 116.89 55.904C116.218 55.904 115.618 56.08 115.09 56.432C114.562 56.784 114.298 57.192 114.298 57.656V57.992V62.504C114.298 63.08 114.402 63.52 114.61 63.824C114.818 64.128 115.05 64.304 115.306 64.352C115.562 64.384 115.794 64.424 116.002 64.472C116.21 64.52 116.314 64.6 116.314 64.712C116.314 64.856 116.29 64.952 116.242 65C116.194 65.048 116.05 65.072 115.81 65.072C115.746 65.072 115.49 65.056 115.042 65.024C114.61 65.008 114.194 65 113.794 65C113.426 65 113.034 65.008 112.618 65.024C112.202 65.056 111.962 65.072 111.898 65.072C111.514 65.072 111.322 64.952 111.322 64.712C111.322 64.6 111.362 64.52 111.442 64.472C111.538 64.424 111.642 64.392 111.754 64.376C111.866 64.36 111.986 64.296 112.114 64.184C112.242 64.056 112.346 63.88 112.426 63.656C112.554 63.208 112.618 61.992 112.618 60.008C112.618 59.704 112.61 59.224 112.594 58.568C112.594 57.912 112.594 57.416 112.594 57.08C112.594 56.696 112.506 56.424 112.33 56.264C112.17 56.104 111.986 56.032 111.778 56.048C111.586 56.048 111.402 56.032 111.226 56C111.066 55.952 110.986 55.848 110.986 55.688Z" fill="white"/>
</svg>
