<svg width="64" height="75" viewBox="0 0 64 75" fill="none" xmlns="http://www.w3.org/2000/svg">
<path d="M63.1674 13.9568L53.993 8.15423C53.2474 7.68267 52.3833 7.43234 51.5011 7.43234L14.2655 7.43234C6.46957 8.36684 6.46957 16.3101 8.44765 19.1136L43.5875 59.1802H22.6432L14.2655 49.8352C14.537 48.5892 14.9869 44.9992 14.6146 40.6071C14.2422 36.2149 10.9687 31.924 9.37851 30.3276L5.306 25.8887C2.42034 23.3656 0.768066 18.88 0.768066 17.2446L0.768066 13.0393C1.34985 4.39522 9.53365 1.20235 13.1019 0.657227L50.5678 0.657227C52.0085 0.657227 53.3683 1.3234 54.2514 2.46184L63.1674 13.9568Z" fill="white"/>
<path d="M10.306 58.5176L18.2183 67.3953H48.7039C56.6162 67.1617 57.0816 58.868 54.5218 55.7141L19.3819 15.6474L40.3262 15.6474L48.7039 24.9924C48.4324 26.2384 48.2152 29.7116 48.5876 34.1038C48.9599 38.4959 52.0007 42.9036 53.5909 44.5001L57.6634 48.9389C60.456 51.392 61.9687 54.7796 62.4341 57.8167V62.0219C61.5032 71.1333 53.5909 74.1704 49.8675 74.1704H1.34651L10.306 58.5176Z" fill="white"/>
</svg>
