<svg width="213" height="92" viewBox="0 0 213 92" fill="none" xmlns="http://www.w3.org/2000/svg">
<path fill-rule="evenodd" clip-rule="evenodd" d="M53.1104 91.8581C75.1393 88.4248 92 69.2918 92 46.2033C92 38.0822 89.914 30.4504 86.2507 23.8191C86.2981 24.4504 86.3218 24.8367 86.3218 24.9781C86.3218 26.9555 86.2032 28.221 85.9659 28.7746C85.7286 29.2492 85.2145 29.4864 84.4236 29.4864C83.7908 29.4864 83.3558 29.0119 83.1186 28.0628C82.4858 25.7691 81.9322 24.2268 81.4576 23.4358C80.983 22.5658 79.9548 21.8144 78.373 21.1817C76.7911 20.5489 74.3788 20.2326 71.136 20.2326H55.7128C53.8146 20.2326 52.6282 20.628 52.1536 21.419C51.7582 22.1308 51.5604 24.2663 51.5604 27.8255V33.6388C51.5604 44.2373 51.4813 53.5703 51.3232 61.6378C51.2441 69.7052 51.2045 74.8463 51.2045 77.0609C51.2045 78.1682 51.165 79.5919 51.0859 81.3319V84.7725C51.0859 88.1735 51.6395 90.4276 52.7468 91.5349C52.8664 91.6453 52.9876 91.753 53.1104 91.8581ZM39.8352 91.9953C17.3451 88.9697 0 69.6211 0 46.2033C0 36.21 3.15868 26.9577 8.52794 19.3987C7.95185 23.4238 7.66381 26.7864 7.66381 29.4864C7.66381 30.831 8.09882 31.5033 8.96884 31.5033C9.68068 31.5033 10.1948 31.266 10.5112 30.7915C10.9066 30.2378 11.1439 29.6051 11.223 28.8932C11.3812 28.1023 11.658 27.1532 12.0535 26.0459C12.528 24.8595 13.1212 23.7917 13.8331 22.8426C14.4658 22.0517 15.0195 21.5376 15.494 21.3003C15.9686 20.9839 17.59 20.6676 20.3582 20.3512C23.2056 20.0348 27.3975 19.8766 32.934 19.8766C37.2051 19.8766 39.7756 20.0744 40.6456 20.4698C41.5156 20.7862 41.9506 21.6958 41.9506 23.1985L42.0693 44.435C42.0693 67.372 41.6738 82.3206 40.8829 89.2808C40.7483 90.3573 40.3991 91.2622 39.8352 91.9953ZM13.8647 13.1439C15.5852 13.2033 18.4616 13.3516 22.4937 13.5887C27.9512 13.9051 35.7814 14.0633 45.9844 14.0633C60.5069 14.0633 71.3933 13.9256 78.6434 13.6501C70.31 5.21994 58.7619 0 46 0C33.4955 0 22.1563 5.01149 13.8647 13.1439Z" fill="white"/>
<path fill-rule="evenodd" clip-rule="evenodd" d="M53.1104 91.8581C75.1393 88.4248 92 69.2918 92 46.2033C92 38.0822 89.914 30.4504 86.2507 23.8191C86.2981 24.4504 86.3218 24.8367 86.3218 24.9781C86.3218 26.9555 86.2032 28.221 85.9659 28.7746C85.7286 29.2492 85.2145 29.4864 84.4236 29.4864C83.7908 29.4864 83.3558 29.0119 83.1186 28.0628C82.4858 25.7691 81.9322 24.2268 81.4576 23.4358C80.983 22.5658 79.9548 21.8144 78.373 21.1817C76.7911 20.5489 74.3788 20.2326 71.136 20.2326H55.7128C53.8146 20.2326 52.6282 20.628 52.1536 21.419C51.7582 22.1308 51.5604 24.2663 51.5604 27.8255V33.6388C51.5604 44.2373 51.4813 53.5703 51.3232 61.6378C51.2441 69.7052 51.2045 74.8463 51.2045 77.0609C51.2045 78.1682 51.165 79.5919 51.0859 81.3319V84.7725C51.0859 88.1735 51.6395 90.4276 52.7468 91.5349C52.8664 91.6453 52.9876 91.753 53.1104 91.8581ZM39.8352 91.9953C17.3451 88.9697 0 69.6211 0 46.2033C0 36.21 3.15868 26.9577 8.52794 19.3987C7.95185 23.4238 7.66381 26.7864 7.66381 29.4864C7.66381 30.831 8.09882 31.5033 8.96884 31.5033C9.68068 31.5033 10.1948 31.266 10.5112 30.7915C10.9066 30.2378 11.1439 29.6051 11.223 28.8932C11.3812 28.1023 11.658 27.1532 12.0535 26.0459C12.528 24.8595 13.1212 23.7917 13.8331 22.8426C14.4658 22.0517 15.0195 21.5376 15.494 21.3003C15.9686 20.9839 17.59 20.6676 20.3582 20.3512C23.2056 20.0348 27.3975 19.8766 32.934 19.8766C37.2051 19.8766 39.7756 20.0744 40.6456 20.4698C41.5156 20.7862 41.9506 21.6958 41.9506 23.1985L42.0693 44.435C42.0693 67.372 41.6738 82.3206 40.8829 89.2808C40.7483 90.3573 40.3991 91.2622 39.8352 91.9953ZM13.8647 13.1439C15.5852 13.2033 18.4616 13.3516 22.4937 13.5887C27.9512 13.9051 35.7814 14.0633 45.9844 14.0633C60.5069 14.0633 71.3933 13.9256 78.6434 13.6501C70.31 5.21994 58.7619 0 46 0C33.4955 0 22.1563 5.01149 13.8647 13.1439Z" fill="url(#paint0_linear_38_38324)"/>
<path d="M107.9 38.545C107.9 38.125 108.32 37.915 109.16 37.915C109.28 37.915 109.475 37.93 109.745 37.96C110.015 37.99 110.225 38.005 110.375 38.005C110.465 38.005 111.875 38.05 114.605 38.14C117.335 38.2 119.585 38.23 121.355 38.23C121.985 38.23 123.53 38.2 125.99 38.14C128.48 38.08 129.935 38.05 130.355 38.05C130.925 38.05 131.21 38.395 131.21 39.085C131.21 39.265 131.12 39.865 130.94 40.885C130.76 41.875 130.67 42.805 130.67 43.675C130.67 43.945 130.595 44.185 130.445 44.395C130.295 44.575 130.13 44.665 129.95 44.665C129.5 44.665 129.275 44.35 129.275 43.72C129.275 42.91 129.02 42.175 128.51 41.515C128 40.855 127.37 40.51 126.62 40.48C123.92 40.27 121.85 40.165 120.41 40.165H119.24C117.68 40.165 116.765 40.285 116.495 40.525C116.255 40.735 116.105 41.53 116.045 42.91C115.925 45.07 115.865 47.575 115.865 50.425C115.865 51.925 116.15 52.69 116.72 52.72H117.845H119.735H121.13C122.93 52.72 124.13 52.66 124.73 52.54C125.33 52.42 125.87 52.195 126.35 51.865C126.92 51.475 127.265 50.92 127.385 50.2C127.475 49.69 127.685 49.435 128.015 49.435C128.285 49.435 128.45 49.48 128.51 49.57C128.57 49.66 128.6 49.855 128.6 50.155C128.6 50.365 128.54 51.055 128.42 52.225C128.3 53.395 128.24 54.28 128.24 54.88C128.24 55.45 128.255 55.99 128.285 56.5C128.345 57.01 128.375 57.385 128.375 57.625C128.375 58.375 128.27 58.75 128.06 58.75C127.61 58.75 127.28 58.39 127.07 57.67C126.65 56.41 126.275 55.675 125.945 55.465C125.315 55.045 123.875 54.835 121.625 54.835C120.725 54.835 119.99 54.835 119.42 54.835C118.88 54.835 118.52 54.835 118.34 54.835C118.19 54.805 118.055 54.79 117.935 54.79C117.845 54.79 117.755 54.79 117.665 54.79C116.435 54.79 115.82 55.075 115.82 55.645C115.82 56.515 115.805 57.61 115.775 58.93C115.745 60.22 115.73 61.285 115.73 62.125V63.925C115.73 66.085 116.09 67.27 116.81 67.48C117.56 67.72 118.205 67.84 118.745 67.84C120.995 67.84 122.96 67.735 124.64 67.525C126.35 67.315 127.625 67.06 128.465 66.76C129.335 66.43 130.055 66.085 130.625 65.725C131.195 65.335 131.555 64.99 131.705 64.69C131.885 64.36 132.05 64.09 132.2 63.88C132.38 63.67 132.56 63.565 132.74 63.565C133.1 63.565 133.28 63.82 133.28 64.33C133.28 65.62 132.635 66.925 131.345 68.245C130.055 69.565 128.93 70.225 127.97 70.225C125.81 70.225 123.365 70.15 120.635 70C117.935 69.85 116.255 69.775 115.595 69.775C114.755 69.775 113.705 69.85 112.445 70C111.185 70.12 110.195 70.18 109.475 70.18C108.845 70.18 108.53 70.03 108.53 69.73C108.53 69.46 108.53 69.28 108.53 69.19C108.53 69.1 108.575 69.025 108.665 68.965C108.755 68.905 108.845 68.875 108.935 68.875C109.055 68.845 109.25 68.785 109.52 68.695C109.82 68.605 110.135 68.485 110.465 68.335C111.185 67.975 111.65 67.27 111.86 66.22C112.1 65.17 112.22 62.965 112.22 59.605V54.025C112.22 53.215 112.235 51.955 112.265 50.245C112.325 48.535 112.355 47.2 112.355 46.24C112.355 45.43 112.325 44.065 112.265 42.145C112.235 41.275 111.86 40.6 111.14 40.12C110.42 39.64 109.58 39.385 108.62 39.355C108.14 39.355 107.9 39.085 107.9 38.545ZM135.058 69.64C135.058 69.22 135.283 68.935 135.733 68.785C136.693 68.425 137.533 67.63 138.253 66.4C138.973 65.14 140.758 61.405 143.608 55.195C146.548 48.835 149.143 43.255 151.393 38.455C151.603 38.005 151.783 37.72 151.933 37.6C152.113 37.48 152.383 37.42 152.743 37.42C153.013 37.42 153.193 37.48 153.283 37.6C153.373 37.72 153.568 38.215 153.868 39.085C154.048 39.595 154.198 40.03 154.318 40.39C154.468 40.75 154.693 41.335 154.993 42.145C155.293 42.955 155.623 43.795 155.983 44.665C156.943 47.035 158.593 50.965 160.933 56.455C163.303 61.915 164.593 64.87 164.803 65.32C165.313 66.34 165.883 67.12 166.513 67.66C167.143 68.17 167.683 68.455 168.133 68.515C168.613 68.545 169.003 68.62 169.303 68.74C169.633 68.83 169.798 69.055 169.798 69.415C169.798 69.865 169.393 70.09 168.583 70.09C168.253 70.09 167.608 70.045 166.648 69.955C165.688 69.865 164.983 69.82 164.533 69.82C163.963 69.82 163.228 69.85 162.328 69.91C161.428 69.97 160.768 70 160.348 70C159.418 70 158.818 69.97 158.548 69.91C158.308 69.82 158.188 69.64 158.188 69.37C158.188 69.16 158.308 68.995 158.548 68.875C158.788 68.725 159.043 68.635 159.313 68.605C159.583 68.545 159.838 68.41 160.078 68.2C160.318 67.96 160.438 67.645 160.438 67.255C160.438 66.595 160.063 65.245 159.313 63.205C158.563 61.165 157.933 59.665 157.423 58.705C157.153 58.195 156.538 57.94 155.578 57.94C155.428 57.94 154.768 57.955 153.598 57.985C152.428 58.015 151.273 58.03 150.133 58.03H147.748C146.398 58.03 145.543 58.105 145.183 58.255C144.853 58.405 144.553 58.765 144.283 59.335C144.103 59.725 143.803 60.355 143.383 61.225C142.963 62.065 142.678 62.65 142.528 62.98C142.378 63.31 142.183 63.745 141.943 64.285C141.733 64.795 141.583 65.215 141.493 65.545C141.433 65.845 141.403 66.115 141.403 66.355C141.403 67.045 141.568 67.57 141.898 67.93C142.258 68.29 142.648 68.5 143.068 68.56C143.488 68.59 143.863 68.665 144.193 68.785C144.553 68.905 144.733 69.115 144.733 69.415C144.733 69.625 144.688 69.79 144.598 69.91C144.508 70 144.298 70.045 143.968 70.045C143.788 70.045 143.263 70.03 142.393 70C141.553 70 140.833 70 140.233 70C139.573 70 138.823 70.03 137.983 70.09C137.173 70.15 136.633 70.18 136.363 70.18C135.493 70.18 135.058 70 135.058 69.64ZM146.353 54.79C146.353 55.18 146.488 55.42 146.758 55.51C147.028 55.6 147.658 55.645 148.648 55.645H150.043L154.318 55.6C155.488 55.6 156.073 55.36 156.073 54.88C156.073 54.49 155.338 52.645 153.868 49.345C152.398 46.015 151.468 44.35 151.078 44.35C150.808 44.35 149.953 46.015 148.513 49.345C147.073 52.645 146.353 54.46 146.353 54.79ZM171.577 38.725C171.577 38.275 171.847 38.05 172.387 38.05C172.567 38.05 172.972 38.08 173.602 38.14C174.262 38.2 174.652 38.23 174.772 38.23C175.222 38.23 175.837 38.215 176.617 38.185C177.397 38.155 177.907 38.14 178.147 38.14C178.717 38.14 179.077 38.35 179.227 38.77C179.587 39.55 180.232 40.96 181.162 43C182.092 45.01 182.827 46.615 183.367 47.815C183.937 49.015 184.657 50.545 185.527 52.405C186.397 54.265 187.102 55.78 187.642 56.95C188.182 58.09 188.737 59.245 189.307 60.415C189.907 61.585 190.357 62.455 190.657 63.025C190.987 63.565 191.197 63.835 191.287 63.835C191.377 63.835 191.467 63.79 191.557 63.7C191.677 63.58 191.782 63.43 191.872 63.25C191.992 63.07 192.082 62.89 192.142 62.71C192.232 62.53 192.337 62.305 192.457 62.035C192.607 61.735 192.712 61.51 192.772 61.36L198.577 49.39C199.237 48.04 199.822 46.825 200.332 45.745C200.842 44.665 201.247 43.795 201.547 43.135C201.847 42.475 202.102 41.905 202.312 41.425C202.522 40.945 202.672 40.585 202.762 40.345C202.882 40.105 202.957 39.925 202.987 39.805C203.047 39.655 203.092 39.55 203.122 39.49C203.152 39.4 203.182 39.325 203.212 39.265C203.242 39.205 203.287 39.07 203.347 38.86C203.437 38.65 203.512 38.515 203.572 38.455C203.662 38.365 203.812 38.275 204.022 38.185C204.262 38.095 204.562 38.05 204.922 38.05C205.492 38.05 206.017 38.065 206.497 38.095C207.007 38.125 207.772 38.14 208.792 38.14C209.302 38.14 209.557 38.335 209.557 38.725C209.557 39.025 209.452 39.25 209.242 39.4C209.062 39.52 208.672 39.625 208.072 39.715C207.322 39.805 206.797 40.18 206.497 40.84C206.197 41.5 206.047 42.76 206.047 44.62C206.047 48.67 206.137 52.345 206.317 55.645C206.497 58.915 206.587 60.97 206.587 61.81C206.587 64.81 206.827 66.73 207.307 67.57C207.787 68.38 208.792 68.785 210.322 68.785C210.532 68.785 210.712 68.86 210.862 69.01C211.042 69.16 211.132 69.295 211.132 69.415C211.132 69.595 211.117 69.73 211.087 69.82C211.057 69.91 210.997 69.985 210.907 70.045C210.817 70.105 210.727 70.135 210.637 70.135C210.547 70.135 210.382 70.135 210.142 70.135C209.242 70.135 208.357 70.105 207.487 70.045C206.617 69.985 205.972 69.955 205.552 69.955C204.712 69.955 203.842 69.985 202.942 70.045C202.042 70.135 201.352 70.18 200.872 70.18C200.332 70.18 200.062 69.97 200.062 69.55C200.062 69.28 200.182 69.085 200.422 68.965C200.662 68.845 200.932 68.77 201.232 68.74C201.562 68.71 201.892 68.53 202.222 68.2C202.582 67.84 202.837 67.315 202.987 66.625C203.107 66.025 203.167 65.065 203.167 63.745C203.167 62.785 203.137 61.63 203.077 60.28C203.047 58.93 203.002 57.625 202.942 56.365C202.882 55.075 202.822 53.875 202.762 52.765C202.702 51.625 202.657 50.695 202.627 49.975L202.537 48.895C202.537 47.605 202.402 46.96 202.132 46.96C202.102 46.96 202.057 46.975 201.997 47.005C201.937 47.035 201.877 47.08 201.817 47.14C201.787 47.2 201.742 47.26 201.682 47.32C201.622 47.38 201.562 47.485 201.502 47.635C201.442 47.755 201.382 47.86 201.322 47.95C201.262 48.04 201.187 48.175 201.097 48.355C201.007 48.505 200.932 48.64 200.872 48.76C200.812 48.88 200.722 49.045 200.602 49.255C200.512 49.465 200.437 49.645 200.377 49.795L194.122 62.44C193.402 63.91 192.637 65.485 191.827 67.165C191.287 68.305 190.957 68.98 190.837 69.19C190.717 69.37 190.567 69.46 190.387 69.46C190.117 69.46 189.892 69.34 189.712 69.1C189.532 68.83 189.262 68.26 188.902 67.39C188.542 66.52 188.227 65.8 187.957 65.23C182.467 54.07 179.647 48.385 179.497 48.175C179.407 48.055 179.317 47.995 179.227 47.995C178.987 47.995 178.867 48.595 178.867 49.795C178.837 52.135 178.762 54.445 178.642 56.725C178.522 59.005 178.462 60.655 178.462 61.675V63.7C178.462 64.48 178.477 65.08 178.507 65.5C178.567 65.92 178.687 66.415 178.867 66.985C179.077 67.525 179.437 67.945 179.947 68.245C180.457 68.545 181.117 68.74 181.927 68.83C182.077 68.83 182.212 68.89 182.332 69.01C182.482 69.1 182.557 69.205 182.557 69.325C182.557 69.655 182.512 69.88 182.422 70C182.332 70.09 182.152 70.135 181.882 70.135C181.282 70.135 180.382 70.105 179.182 70.045C177.982 69.985 177.322 69.955 177.202 69.955C177.142 69.955 176.707 69.97 175.897 70C175.087 70.06 174.292 70.09 173.512 70.09C173.272 70.09 173.092 70.075 172.972 70.045C172.882 70.015 172.792 69.955 172.702 69.865C172.612 69.745 172.567 69.58 172.567 69.37C172.567 69.13 172.702 68.965 172.972 68.875C173.242 68.785 173.542 68.74 173.872 68.74C174.232 68.71 174.622 68.47 175.042 68.02C175.462 67.54 175.777 66.85 175.987 65.95C176.137 65.29 176.317 62.68 176.527 58.12C176.737 53.56 176.842 50.185 176.842 47.995C176.842 44.995 176.542 42.925 175.942 41.785C175.372 40.645 174.112 39.85 172.162 39.4C171.772 39.31 171.577 39.085 171.577 38.725Z" fill="#263C92"/>
<defs>
<linearGradient id="paint0_linear_38_38324" x1="-3.09063" y1="2.9072" x2="80.2076" y2="106.909" gradientUnits="userSpaceOnUse">
<stop stop-color="#263C92"/>
<stop offset="0.446604" stop-color="#9E00FF"/>
<stop offset="0.935151" stop-color="#263C92"/>
</linearGradient>
</defs>
</svg>
