<svg width="313" height="313" viewBox="0 0 313 313" fill="none" xmlns="http://www.w3.org/2000/svg">
<path fill-rule="evenodd" clip-rule="evenodd" d="M156.5 313C242.933 313 313 242.933 313 156.5C313 131.314 307.05 107.517 296.48 86.4385C287.735 111.067 282.47 124.978 280.685 128.173C276.787 135.15 273.093 137.663 269.605 135.714C267.362 134.461 266.593 131.742 267.296 127.558C268.344 118.661 268.625 111.135 268.141 104.979C267.907 98.9619 267.514 94.9826 266.965 93.0405C266.415 91.0985 264.846 86.2984 262.259 78.6403C255.487 59.1614 242.507 44.0616 223.321 33.3409C207.872 24.7087 192.826 21.2064 178.184 22.834C163.542 24.4616 152.67 31.6293 145.569 44.3373C139.304 55.5502 137.143 66.4405 139.085 77.0081C141.277 87.7149 146.367 97.9159 154.356 107.611C162.344 117.306 170.97 127.031 180.234 136.785C189.498 146.539 198.618 158.011 207.596 171.202C216.824 184.532 223.112 197.855 226.462 211.171C230.442 227.454 227.977 243.57 219.066 259.517C204.447 285.68 184.474 301.822 159.147 307.943C147.848 310.577 136.602 311.233 125.408 309.912C135.457 311.937 145.854 313 156.5 313ZM18.1527 229.726C18.8874 223.714 20.6266 215.505 23.3705 205.101C28.6314 185.153 32.2365 173.434 34.1857 169.946C37.1096 164.713 40.3157 163.071 43.8042 165.02C47.0434 166.83 48.3407 169.19 47.6959 172.1C46.8462 179.472 46.1649 185.958 45.6522 191.557C45.5279 197.046 46.0229 204.352 47.1372 213.476C48.3908 222.351 50.5751 230.438 53.69 237.737C56.9442 244.787 61.9719 252.174 68.7731 259.898C75.8235 267.761 84.4568 274.547 94.673 280.255C113.361 290.697 131.027 294.192 147.67 290.74C164.701 287.177 177.672 277.422 186.583 261.475C193.126 249.764 194.694 237.888 191.286 225.847C188.017 213.558 182.304 203.009 174.147 194.2C166.129 185.142 155.927 173.557 143.541 159.442C131.544 145.218 122.287 132.526 115.772 121.365C100.615 95.2395 99.511 70.5901 112.459 47.4168C124.851 25.2402 142.71 12.0041 166.036 7.70851C182.63 4.62581 199.702 6.13241 217.251 12.2283C198.572 4.35333 178.044 0 156.5 0C70.0674 0 0 70.0674 0 156.5C0 182.955 6.56421 207.877 18.1527 229.726Z" fill="url(#paint0_linear_38_38289)"/>
<defs>
<linearGradient id="paint0_linear_38_38289" x1="-10.5148" y1="10.7212" x2="267.863" y2="363.394" gradientUnits="userSpaceOnUse">
<stop stop-color="#00FFC2"/>
<stop offset="0.446604" stop-color="#70FF00"/>
<stop offset="0.935151" stop-color="#00FF94"/>
</linearGradient>
</defs>
</svg>
