<svg width="65" height="61" viewBox="0 0 65 61" fill="none" xmlns="http://www.w3.org/2000/svg">
<path d="M0.390414 37.425C0.390414 37.425 2.47 49.0126 13.0127 55.2921C23.5553 61.5716 36.6608 60.074 47.3125 59.1487C57.9643 58.2236 65.1525 50.7736 64.9975 41.2496C64.8426 31.7257 56.3826 30.2567 50.4458 20.3237C44.509 10.3906 44.3834 6.83776 34.1716 1.76289C23.96 -3.31198 10.0834 2.98094 4.14753 15.3693C-1.78821 27.7578 0.390414 37.425 0.390414 37.425Z" fill="#C0C0C0"/>
<path d="M54.366 54.262H17.0083C16.1254 54.262 15.4097 53.5526 15.4097 52.6774V3.81605C15.4097 2.94087 16.1254 2.23145 17.0083 2.23145H54.366C55.249 2.23145 55.9647 2.94087 55.9647 3.81605V52.6774C55.9647 53.5526 55.249 54.262 54.366 54.262Z" stroke="#263238" stroke-width="0.163528" stroke-miterlimit="10" stroke-linecap="round" stroke-linejoin="round"/>
<path d="M32.4373 16.5298V16.6917H32.2738" stroke="#263238" stroke-width="0.163528" stroke-linecap="round" stroke-linejoin="round"/>
<path d="M31.9514 16.6919H22.4399" stroke="#263238" stroke-width="0.163528" stroke-linecap="round" stroke-linejoin="round" stroke-dasharray="0.32 0.32"/>
<path d="M22.2787 16.6917H22.1152V16.5298" stroke="#263238" stroke-width="0.163528" stroke-linecap="round" stroke-linejoin="round"/>
<path d="M22.1152 16.218V8.88525" stroke="#263238" stroke-width="0.163528" stroke-linecap="round" stroke-linejoin="round" stroke-dasharray="0.31 0.31"/>
<path d="M22.1152 8.72924V8.56714H22.2787" stroke="#263238" stroke-width="0.163528" stroke-linecap="round" stroke-linejoin="round"/>
<path d="M22.601 8.56714H32.1127" stroke="#263238" stroke-width="0.163528" stroke-linecap="round" stroke-linejoin="round" stroke-dasharray="0.32 0.32"/>
<path d="M32.2738 8.56714H32.4373V8.72924" stroke="#263238" stroke-width="0.163528" stroke-linecap="round" stroke-linejoin="round"/>
<path d="M32.4373 9.04126V16.3738" stroke="#263238" stroke-width="0.163528" stroke-linecap="round" stroke-linejoin="round" stroke-dasharray="0.31 0.31"/>
<path d="M30.7893 9.86426H23.7632V15.3947H30.7893V9.86426Z" fill="white" stroke="#263238" stroke-width="0.163528" stroke-miterlimit="10" stroke-linecap="round" stroke-linejoin="round"/>
<path d="M23.35 9.45469L20.939 7.61133" stroke="#263238" stroke-width="0.163528" stroke-miterlimit="10" stroke-linecap="round" stroke-linejoin="round"/>
<path d="M31.2714 15.6677L33.3379 17.443" stroke="#263238" stroke-width="0.163528" stroke-miterlimit="10" stroke-linecap="round" stroke-linejoin="round"/>
<path d="M20.8442 8.21879L20.7723 7.43457H21.5994" stroke="#263238" stroke-width="0.163528" stroke-miterlimit="10" stroke-linecap="round" stroke-linejoin="round"/>
<path d="M33.394 16.7017L33.5377 17.557L32.5309 17.5927" stroke="#263238" stroke-width="0.163528" stroke-miterlimit="10" stroke-linecap="round" stroke-linejoin="round"/>
<path d="M39.4904 37.5454H36.0791V38.7649H39.4904V37.5454Z" fill="#263238"/>
<path d="M40.8761 38.1552L38.6888 36.9036V39.4071L40.8761 38.1552Z" fill="#263238"/>
<path d="M33.6192 48.5943H25.7716C25.1598 48.5943 24.6641 48.1028 24.6641 47.4965V30.2277C24.6641 29.6213 25.16 29.1299 25.7716 29.1299H33.6192C34.2309 29.1299 34.7268 29.6214 34.7268 30.2277V47.4965C34.7269 48.1028 34.231 48.5943 33.6192 48.5943Z" fill="#263238" stroke="#263238" stroke-width="0.132562" stroke-miterlimit="10" stroke-linecap="round" stroke-linejoin="round"/>
<path d="M34.2793 30.4519H25.1116V47.4393H34.2793V30.4519Z" fill="white" stroke="#263238" stroke-width="0.132562" stroke-miterlimit="10" stroke-linecap="round" stroke-linejoin="round"/>
<path d="M32.5801 51.2763L33.2817 48.579C33.3574 48.2883 33.3957 47.9891 33.3957 47.6888V44.454C33.4079 44.4128 33.4165 44.3702 33.4165 44.3256C33.4165 44.0433 33.1561 43.8143 32.8346 43.8143C32.6661 43.8143 32.5157 43.8782 32.4093 43.9786C32.3841 43.7167 32.1371 43.5102 31.8324 43.5102C31.6254 43.5102 31.4447 43.6059 31.3416 43.749C31.3119 43.491 31.0669 43.2892 30.7656 43.2892C30.5584 43.2892 30.3777 43.3849 30.2746 43.5281C30.2738 43.0995 30.2671 41.0479 30.2021 40.8809C29.9904 40.3397 28.9281 40.5869 29.1135 41.161V44.2318C29.1135 44.2318 29.1135 45.8553 29.1135 45.906C29.1135 45.573 28.8641 45.1344 28.7599 44.8115C28.6624 44.5091 28.5944 44.18 28.4018 43.9081C28.0723 43.443 27.4928 43.6989 27.5252 44.1846C27.5537 44.6104 27.8645 44.946 28.0327 45.3325C28.3433 46.0467 28.1567 46.7927 28.4499 47.5086C28.5324 47.7102 29.0793 48.5846 29.2587 48.8235C29.4401 49.0654 29.6342 49.7009 29.6342 49.7009L29.3624 51.2763" fill="white"/>
<path d="M32.5801 51.2763L33.2817 48.579C33.3574 48.2883 33.3957 47.9891 33.3957 47.6888V44.454C33.4079 44.4128 33.4165 44.3702 33.4165 44.3256C33.4165 44.0433 33.1561 43.8143 32.8346 43.8143C32.6661 43.8143 32.5157 43.8782 32.4093 43.9786C32.3841 43.7167 32.1371 43.5102 31.8324 43.5102C31.6254 43.5102 31.4447 43.6059 31.3416 43.749C31.3119 43.491 31.0669 43.2892 30.7656 43.2892C30.5584 43.2892 30.3777 43.3849 30.2746 43.5281C30.2738 43.0995 30.2671 41.0479 30.2021 40.8809C29.9904 40.3397 28.9281 40.5869 29.1135 41.161V44.2318C29.1135 44.2318 29.1135 45.8553 29.1135 45.906C29.1135 45.573 28.8641 45.1344 28.7599 44.8115C28.6624 44.5091 28.5944 44.18 28.4018 43.9081C28.0723 43.443 27.4928 43.6989 27.5252 44.1846C27.5537 44.6104 27.8645 44.946 28.0327 45.3325C28.3433 46.0467 28.1567 46.7927 28.4499 47.5086C28.5324 47.7102 29.0793 48.5846 29.2587 48.8235C29.4401 49.0654 29.6342 49.7009 29.6342 49.7009L29.3624 51.2763" stroke="#263238" stroke-width="0.163528" stroke-miterlimit="10" stroke-linecap="round" stroke-linejoin="round"/>
<path d="M29.7039 39.248V40.1348" stroke="#263238" stroke-width="0.163528" stroke-miterlimit="10" stroke-linecap="round" stroke-linejoin="round"/>
<path d="M30.7104 40.9663H31.4375" stroke="#263238" stroke-width="0.163528" stroke-miterlimit="10" stroke-linecap="round" stroke-linejoin="round"/>
<path d="M27.6907 40.9663H28.4177" stroke="#263238" stroke-width="0.163528" stroke-miterlimit="10" stroke-linecap="round" stroke-linejoin="round"/>
<path d="M28.6972 40.0239L28.9768 40.4673" stroke="#263238" stroke-width="0.163528" stroke-miterlimit="10" stroke-linecap="round" stroke-linejoin="round"/>
<path d="M30.3749 40.5228L30.7664 40.0239" stroke="#263238" stroke-width="0.163528" stroke-miterlimit="10" stroke-linecap="round" stroke-linejoin="round"/>
<path d="M33.954 37.0308H25.4537V38.0839H33.954V37.0308Z" stroke="#263238" stroke-width="0.163528" stroke-miterlimit="10" stroke-linecap="round" stroke-linejoin="round"/>
<path d="M29.8157 31.377H25.7333V36.1994H29.8157V31.377Z" stroke="#263238" stroke-width="0.163528" stroke-miterlimit="10" stroke-linecap="round" stroke-linejoin="round"/>
<path d="M25.7333 31.377L29.8157 36.1994" stroke="#263238" stroke-width="0.163528" stroke-miterlimit="10" stroke-linecap="round" stroke-linejoin="round"/>
<path d="M25.6213 45.5118V38.6384H33.898V45.4563" stroke="#263238" stroke-width="0.163528" stroke-miterlimit="10" stroke-linecap="round" stroke-linejoin="round"/>
<path d="M50.5422 48.5943H42.6946C42.0828 48.5943 41.587 48.1028 41.587 47.4965V30.2277C41.587 29.6213 42.0829 29.1299 42.6946 29.1299H50.5422C51.154 29.1299 51.6499 29.6214 51.6499 30.2277V47.4965C51.6499 48.1028 51.154 48.5943 50.5422 48.5943Z" fill="#263238" stroke="#263238" stroke-width="0.132562" stroke-miterlimit="10" stroke-linecap="round" stroke-linejoin="round"/>
<path d="M51.2023 30.4519H42.0345V47.4393H51.2023V30.4519Z" fill="white" stroke="#263238" stroke-width="0.132562" stroke-miterlimit="10" stroke-linecap="round" stroke-linejoin="round"/>
<path d="M50.787 31.2659H42.5103V40.2456H50.787V31.2659Z" stroke="#263238" stroke-width="0.163528" stroke-miterlimit="10" stroke-linecap="round" stroke-linejoin="round"/>
<path d="M42.5103 41.0771H50.787" stroke="#263238" stroke-width="0.163528" stroke-miterlimit="10" stroke-linecap="round" stroke-linejoin="round"/>
<path d="M42.5103 41.7424H50.787" stroke="#263238" stroke-width="0.163528" stroke-miterlimit="10" stroke-linecap="round" stroke-linejoin="round"/>
<path d="M42.5103 42.4077H50.787" stroke="#263238" stroke-width="0.163528" stroke-miterlimit="10" stroke-linecap="round" stroke-linejoin="round"/>
<path d="M42.5103 43.0728H50.787" stroke="#263238" stroke-width="0.163528" stroke-miterlimit="10" stroke-linecap="round" stroke-linejoin="round"/>
<path d="M42.5103 43.738H50.787" stroke="#263238" stroke-width="0.163528" stroke-miterlimit="10" stroke-linecap="round" stroke-linejoin="round"/>
<path d="M42.5103 44.4031H50.787" stroke="#263238" stroke-width="0.163528" stroke-miterlimit="10" stroke-linecap="round" stroke-linejoin="round"/>
<path d="M42.5103 45.0681H50.787" stroke="#263238" stroke-width="0.163528" stroke-miterlimit="10" stroke-linecap="round" stroke-linejoin="round"/>
<path d="M42.5103 40.2456L50.787 31.2659" stroke="#263238" stroke-width="0.163528" stroke-miterlimit="10" stroke-linecap="round" stroke-linejoin="round"/>
<path d="M50.5422 26.2505H42.6946C42.0828 26.2505 41.587 25.759 41.587 25.1527V7.88386C41.587 7.27759 42.0829 6.78589 42.6946 6.78589H50.5422C51.154 6.78589 51.6499 7.27743 51.6499 7.88386V25.1527C51.6499 25.759 51.154 26.2505 50.5422 26.2505Z" fill="#263238" stroke="#263238" stroke-width="0.132562" stroke-miterlimit="10" stroke-linecap="round" stroke-linejoin="round"/>
<path d="M51.2023 8.10767H42.0345V25.0951H51.2023V8.10767Z" fill="white" stroke="#263238" stroke-width="0.132562" stroke-miterlimit="10" stroke-linecap="round" stroke-linejoin="round"/>
<path d="M31.4487 28.5503V23.373H38.7973" stroke="#263238" stroke-width="0.163528" stroke-linecap="round" stroke-linejoin="round"/>
<path d="M38.5588 24.1814L39.9707 23.3732L38.5588 22.5649V24.1814Z" fill="#263238"/>
<path d="M46.4312 28.414V24.4404" stroke="#263238" stroke-width="0.163528" stroke-linecap="round" stroke-linejoin="round"/>
<path d="M47.2465 24.677L46.4312 23.2773L45.6158 24.677H47.2465Z" fill="#263238"/>
<path d="M42.6428 50.3669H46.3498" stroke="#263238" stroke-width="0.163528" stroke-miterlimit="10" stroke-linecap="round" stroke-linejoin="round"/>
<path d="M42.6428 51.1936H46.3498" stroke="#263238" stroke-width="0.163528" stroke-miterlimit="10" stroke-linecap="round" stroke-linejoin="round"/>
<path d="M42.6428 52.0205H46.3498" stroke="#263238" stroke-width="0.163528" stroke-miterlimit="10" stroke-linecap="round" stroke-linejoin="round"/>
<path d="M33.6531 50.3669H37.3601" stroke="#263238" stroke-width="0.163528" stroke-miterlimit="10" stroke-linecap="round" stroke-linejoin="round"/>
<path d="M33.6531 51.1936H37.3601" stroke="#263238" stroke-width="0.163528" stroke-miterlimit="10" stroke-linecap="round" stroke-linejoin="round"/>
<path d="M33.6531 52.0205H37.3601" stroke="#263238" stroke-width="0.163528" stroke-miterlimit="10" stroke-linecap="round" stroke-linejoin="round"/>
<path d="M32.6337 25.0132H36.3408" stroke="#263238" stroke-width="0.163528" stroke-miterlimit="10" stroke-linecap="round" stroke-linejoin="round"/>
<path d="M32.6337 25.8401H36.3408" stroke="#263238" stroke-width="0.163528" stroke-miterlimit="10" stroke-linecap="round" stroke-linejoin="round"/>
<path d="M32.6337 26.6667H36.3408" stroke="#263238" stroke-width="0.163528" stroke-miterlimit="10" stroke-linecap="round" stroke-linejoin="round"/>
<path d="M35.4141 15.0005H39.1211" stroke="#263238" stroke-width="0.163528" stroke-miterlimit="10" stroke-linecap="round" stroke-linejoin="round"/>
<path d="M35.4141 15.8271H39.1211" stroke="#263238" stroke-width="0.163528" stroke-miterlimit="10" stroke-linecap="round" stroke-linejoin="round"/>
<path d="M35.4141 16.6541H39.1211" stroke="#263238" stroke-width="0.163528" stroke-miterlimit="10" stroke-linecap="round" stroke-linejoin="round"/>
<path d="M22.0685 17.8481H25.7756" stroke="#263238" stroke-width="0.163528" stroke-miterlimit="10" stroke-linecap="round" stroke-linejoin="round"/>
<path d="M22.0685 18.6748H25.7756" stroke="#263238" stroke-width="0.163528" stroke-miterlimit="10" stroke-linecap="round" stroke-linejoin="round"/>
<path d="M22.0685 19.5017H25.7756" stroke="#263238" stroke-width="0.163528" stroke-miterlimit="10" stroke-linecap="round" stroke-linejoin="round"/>
<path d="M7.03939 57.2986C7.03939 57.2986 6.69551 58.6095 6.69551 58.9415C6.69551 59.2735 6.61174 59.4949 7.33738 59.6332C8.06302 59.7715 8.53751 59.6885 8.64909 59.3565C8.76068 59.0246 8.84445 57.3647 8.84445 57.3647L7.08607 57.0327L7.03939 57.2986Z" fill="white" stroke="#263238" stroke-width="0.165431" stroke-miterlimit="10" stroke-linecap="round" stroke-linejoin="round"/>
<path d="M8.64904 59.3569C8.66583 59.3072 8.68182 59.2252 8.69701 59.1259C7.94978 59.1497 7.05884 59.0267 6.69499 58.9695C6.69115 59.2861 6.63216 59.4992 7.33717 59.6336C8.06297 59.7719 8.53746 59.6889 8.64904 59.3569Z" fill="white" stroke="#263238" stroke-width="0.165431" stroke-miterlimit="10" stroke-linecap="round" stroke-linejoin="round"/>
<path d="M23.9994 57.4202C23.9994 57.4202 24.5576 57.6138 25.3669 57.8627C26.1763 58.1117 27.8229 58.3884 27.9903 58.4161C28.1578 58.4438 28.1578 58.7758 28.0181 58.9141C27.8785 59.0525 27.1529 59.4675 26.2877 59.6887C25.4225 59.9101 22.492 60.1037 22.2408 59.9376C22.0306 59.7987 22.1013 58.4438 22.185 58.1394C22.269 57.835 23.9994 57.4202 23.9994 57.4202Z" fill="white" stroke="#263238" stroke-width="0.165431" stroke-miterlimit="10" stroke-linecap="round" stroke-linejoin="round"/>
<path d="M28.0184 58.9142C28.112 58.8215 28.1411 58.6434 28.1009 58.5266C27.5358 58.9741 26.4059 59.4641 25.2555 59.5782C24.1012 59.6926 22.6066 59.5991 22.1232 59.5631C22.1435 59.7529 22.1802 59.8973 22.2413 59.9377C22.4925 60.1038 25.423 59.91 26.2882 59.6888C27.1532 59.4674 27.8789 59.0525 28.0184 58.9142Z" fill="white" stroke="#263238" stroke-width="0.165431" stroke-miterlimit="10" stroke-linecap="round" stroke-linejoin="round"/>
<path d="M10.4979 33.3022C10.4979 33.3022 10.0116 36.1948 10.3898 37.8017C10.3898 37.8017 9.68737 44.1759 9.5793 47.0147C9.5793 47.0147 8.06616 51.9963 7.85002 53.5496C7.63388 55.103 7.03949 57.2991 7.03949 57.2991C7.03949 57.2991 7.3637 57.5134 8.12035 57.674C8.87685 57.8347 8.98508 57.2456 8.98508 57.2456C8.98508 57.2456 13.1461 47.7647 13.4703 46.372C13.7945 44.9793 14.8754 39.9978 14.8754 39.9978L19.3608 48.1397C19.3608 48.1397 19.5769 50.9251 20.2254 52.5319C20.8738 54.1388 22.1168 58.5846 22.1168 58.5846C22.1168 58.5846 22.9273 58.6381 23.5759 58.4239C24.2243 58.2096 24.2243 57.8883 24.2243 57.8883C24.2243 57.8883 23.2515 54.2995 23.2515 53.121C23.2515 51.9425 22.8733 47.9253 22.6031 46.8004C22.3329 45.6754 20.4955 39.7834 20.2254 39.1407C19.9552 38.498 19.3608 36.4626 19.3608 36.4626L18.9826 33.3022C18.9821 33.3022 14.3347 34.5878 10.4979 33.3022Z" fill="#263238" stroke="#263238" stroke-width="0.165431" stroke-miterlimit="10" stroke-linecap="round" stroke-linejoin="round"/>
<path d="M13.9269 19.6494C13.9269 19.6494 13.6787 19.1161 13.6787 18.788C13.6787 18.4598 13.5132 16.9012 13.5132 16.9012C13.5132 16.9012 15.9133 12.5944 16.5755 11.774C17.2375 10.9537 18.0239 10.3384 18.0239 10.3384C18.0239 10.3384 19.6377 10.0102 19.9688 10.0102C20.2999 10.0102 20.6722 9.84622 20.6722 9.64102C20.6722 9.43597 20.1343 9.47701 19.8032 9.47701C19.4721 9.47701 19.0584 9.18988 19.0584 9.18988C19.0584 9.18988 19.5974 7.6609 19.7618 7.05701C19.8487 6.73771 20.1341 6.07265 19.9272 6.07265C19.7204 6.07265 19.679 6.23666 19.5547 6.48291C19.4305 6.729 18.8926 7.54934 18.8926 7.54934L19.0168 5.74464C19.0168 5.74464 18.8513 5.49855 18.7271 5.78568C18.6029 6.07281 18.3546 6.9342 18.3132 7.13925C18.2718 7.3443 18.1062 7.52985 18.1062 7.52985L17.9406 6.18326C17.9406 6.18326 17.6589 5.88773 17.6098 6.40082C17.5825 6.68669 17.6098 7.63127 17.6098 7.79543C17.6098 7.95944 17.4435 7.56249 17.4435 7.56249C17.4435 7.56249 17.3459 7.11706 17.2373 7.05701C17.1121 6.98776 17.0304 7.13909 17.0718 7.4671C17.1132 7.79527 17.0304 9.14884 17.0304 9.14884C17.0304 9.14884 16.7822 9.47701 16.4097 9.92815C16.0372 10.3793 13.0577 13.0454 11.9404 13.9068C10.8231 14.7682 10.699 15.4654 10.5334 16.3268C10.368 17.1882 10.2023 22.1922 10.2023 23.997C10.2023 25.8019 10.3678 28.673 10.492 29.6163C10.6161 30.5597 10.4092 31.7903 10.2437 32.4466C10.0783 33.1029 10.2437 33.677 10.6989 34.0052C11.154 34.3334 13.099 34.5384 14.7128 34.5384C16.3267 34.5384 17.982 34.3744 18.4785 34.2103C18.9751 34.0463 19.3476 34.0052 19.3476 33.3489C19.3476 32.6925 19.0165 31.38 19.0165 31.011C19.0165 30.6417 19.6786 26.8271 19.6786 26.8271C19.6786 26.8271 23.8996 28.0986 24.6859 27.8115C25.4721 27.5244 32.0518 21.3718 32.0518 21.3718C32.0518 21.3718 33.0863 20.9616 33.6242 20.8796C34.1622 20.7976 34.9898 20.4285 35.0312 20.3054C35.0726 20.1823 34.9484 20.2233 34.6175 20.2233C34.2864 20.2233 33.7484 20.3873 33.7484 20.3873C33.7484 20.3873 34.8784 19.6784 35.0726 19.608C35.2071 19.5594 35.4397 19.2559 35.114 19.3209C34.7064 19.4022 33.707 19.6901 33.707 19.6901L35.0312 18.8697C35.0312 18.8697 35.2381 18.5416 34.9898 18.5416C34.7415 18.5416 33.5 19.2798 33.5 19.2798L34.4664 18.3904C34.6534 18.2183 34.4974 17.9765 34.2766 18.1033C34.2726 18.1056 33.1667 18.7317 33.1627 18.7343C32.7488 18.9803 32.3 19.1158 32.3 19.1158L32.0932 19.2389C32.0932 19.2389 32.176 18.7878 32.176 18.5828C32.176 18.3777 32.0518 17.8445 31.7621 17.8035C31.4724 17.7624 31.7207 18.1727 31.7207 18.3777C31.7207 18.5828 31.3068 19.6492 31.3068 19.8134C31.3068 19.9774 31.3068 20.3055 31.3068 20.3055C31.3068 20.3055 29.8998 21.5361 28.617 22.1923C27.3342 22.8485 24.4374 25.0224 24.4374 25.0224C24.4374 25.0224 21.1269 23.3407 20.3821 22.7255C19.6372 22.1102 18.8096 21.372 17.982 20.7156C17.1543 20.0593 16.6164 19.7722 16.6164 19.7722L13.9269 19.6494Z" fill="white" stroke="#263238" stroke-width="0.165431" stroke-miterlimit="10" stroke-linecap="round" stroke-linejoin="round"/>
<path d="M27.7555 22.6972C26.3502 23.5874 24.4377 25.0226 24.4377 25.0226C24.4377 25.0226 21.1272 23.3409 20.3824 22.7257C19.6375 22.1104 18.8099 21.3722 17.9823 20.7158C17.1546 20.0595 16.6167 19.7724 16.6167 19.7724L13.9269 19.6492C13.9269 19.6492 13.6786 19.116 13.6786 18.7878C13.6786 18.4597 13.5132 16.9011 13.5132 16.9011C13.5132 16.9011 14.7525 14.6774 15.6957 13.1213C15.6704 13.096 15.6461 13.0709 15.6204 13.0452C15.1579 12.587 14.5165 12.3399 13.956 12.2056C13.1765 12.8915 12.4008 13.5523 11.9407 13.907C10.8234 14.7683 10.6992 15.4656 10.5337 16.327C10.3681 17.1883 10.2026 22.1925 10.2026 23.9972C10.2026 25.8019 10.3681 28.6732 10.4923 29.6165C10.6165 30.5598 10.4095 31.7904 10.244 32.4468C10.0786 33.103 10.244 33.6772 10.6992 34.0054C11.1543 34.3336 13.0993 34.5386 14.7131 34.5386C16.327 34.5386 17.9823 34.3746 18.4788 34.2104C18.9754 34.0464 19.3479 34.0054 19.3479 33.3491C19.3479 32.6927 19.0168 31.3802 19.0168 31.0111C19.0168 30.6419 19.6788 26.8273 19.6788 26.8273C19.6788 26.8273 23.8998 28.0988 24.686 27.8117C25.1061 27.6583 27.1799 25.8304 29.0205 24.1612C28.6445 23.5204 28.166 23.0355 27.7555 22.6972Z" fill="#C6FF00" stroke="#263238" stroke-width="0.165431" stroke-miterlimit="10" stroke-linecap="round" stroke-linejoin="round"/>
<path d="M18.3951 21.4475C18.3951 21.4475 16.7301 21.8975 16.6292 23.1478" stroke="#263238" stroke-width="0.165431" stroke-miterlimit="10" stroke-linecap="round" stroke-linejoin="round"/>
<path d="M19.6788 26.8273C19.6788 26.8273 17.7391 26.2981 16.73 25.2979" stroke="#263238" stroke-width="0.165431" stroke-miterlimit="10" stroke-linecap="round" stroke-linejoin="round"/>
<path d="M18.597 26.5485C18.597 26.5485 16.932 26.9985 15.4183 26.3984" stroke="#263238" stroke-width="0.165431" stroke-miterlimit="10" stroke-linecap="round" stroke-linejoin="round"/>
<path d="M11.57 23.8982C11.57 23.8982 12.0947 27.5385 14.6305 29.3586" stroke="#263238" stroke-width="0.165431" stroke-miterlimit="10" stroke-linecap="round" stroke-linejoin="round"/>
<path d="M15.4312 30.3503C15.6235 30.4034 15.823 30.4489 16.0297 30.4854" stroke="#263238" stroke-width="0.165431" stroke-miterlimit="10" stroke-linecap="round" stroke-linejoin="round"/>
<path d="M11.57 27.5383C11.57 27.5383 12.5084 29.0813 14.4067 29.9712" stroke="#263238" stroke-width="0.165431" stroke-miterlimit="10" stroke-linecap="round" stroke-linejoin="round"/>
<path d="M11.0792 19.4471C11.0792 19.4471 12.6937 18.6469 13.6525 19.3971" stroke="#263238" stroke-width="0.165431" stroke-miterlimit="10" stroke-linecap="round" stroke-linejoin="round"/>
<path d="M11.5334 15.7959C11.5334 15.7959 12.9966 16.296 13.4002 17.2962" stroke="#263238" stroke-width="0.165431" stroke-miterlimit="10" stroke-linecap="round" stroke-linejoin="round"/>
<path d="M12.4919 15.4458C12.4919 15.4458 12.9965 15.7958 13.1982 16.546" stroke="#263238" stroke-width="0.165431" stroke-miterlimit="10" stroke-linecap="round" stroke-linejoin="round"/>
<path d="M19.3893 13.0865C19.3893 13.0865 19.6376 14.4811 19.6376 14.8503C19.6376 15.2195 19.2237 15.3425 19.3893 15.8347C19.5549 16.3268 19.9272 16.3679 19.8444 16.7781C19.7616 17.1882 19.2237 17.4345 19.2237 17.4345C19.2237 17.4345 18.934 18.583 18.6443 19.0752C18.3546 19.5673 17.2787 19.1983 17.2787 19.1983L17.1959 20.5108C17.1959 20.5108 16.8234 21.044 15.4578 20.88C14.0922 20.716 13.1818 20.2647 13.1818 20.2647L12.9749 19.9776C12.9749 19.9776 14.0508 19.4444 14.0922 19.0752C14.1336 18.7061 14.0922 17.8447 14.0922 16.6141C14.0922 15.3835 13.7197 13.0046 15.7475 12.3893C17.7753 11.774 19.3893 13.0865 19.3893 13.0865Z" fill="white" stroke="#263238" stroke-width="0.165431" stroke-miterlimit="10" stroke-linecap="round" stroke-linejoin="round"/>
<path d="M16.8614 16.4538C16.8614 16.4538 16.3943 15.3915 15.8717 15.9991C15.5321 16.3938 15.9545 17.5577 16.1614 17.7218C16.3682 17.8858 16.8235 17.8039 16.8235 17.8039C16.8235 17.8039 16.1614 18.4601 15.4579 18.4601C14.7545 18.4601 14.1338 17.8039 13.6786 16.6554C13.2235 15.5069 12.8924 13.538 13.3889 12.3486C13.8855 11.159 16.4512 11.1182 17.0306 11.1182C17.6099 11.1182 18.479 11.4463 18.479 11.4463C18.479 11.4463 20.3411 11.2823 20.3825 11.8975C20.4239 12.5128 20.1342 12.5537 20.1342 12.5537C20.1342 12.5537 21.4584 13.2509 20.8377 13.538C20.2169 13.8251 19.2652 13.6611 18.6444 13.6611C18.0237 13.6611 17.8168 14.1123 17.8168 14.1123C17.8168 14.1123 18.3962 14.4815 18.1893 14.6455C17.9824 14.8095 17.2374 15.1377 17.1548 15.4248C17.072 15.7119 17.4445 16.1631 17.1962 16.3683C16.9476 16.5732 16.8614 16.4538 16.8614 16.4538Z" fill="#263238" stroke="#263238" stroke-width="0.165431" stroke-miterlimit="10" stroke-linecap="round" stroke-linejoin="round"/>
<path d="M19.1626 15.9585C19.1626 16.1675 19.0759 16.337 18.969 16.337C18.862 16.337 18.7754 16.1676 18.7754 15.9585C18.7754 15.7495 18.862 15.5801 18.969 15.5801C19.0759 15.5801 19.1626 15.7495 19.1626 15.9585Z" fill="#263238"/>
<path d="M18.4855 15.4748C18.4855 15.4748 18.7532 14.856 19.1768 15.1875" stroke="#263238" stroke-width="0.165431" stroke-miterlimit="10" stroke-linecap="round" stroke-linejoin="round"/>
<path d="M14.8751 39.9974L14.4969 39.3011L12.6055 38.8191" stroke="white" stroke-width="0.165431" stroke-miterlimit="10" stroke-linecap="round" stroke-linejoin="round"/>
</svg>
