<svg width="77" height="403" viewBox="0 0 77 403" fill="none" xmlns="http://www.w3.org/2000/svg">
<rect width="77" height="403" rx="38.5" fill="white"/>
<rect x="17.311" y="31.4067" width="41.6682" height="41.6682" rx="0.93287" fill="white" stroke="#142534" stroke-width="0.621914"/>
<path d="M43.1205 57.216C45.8682 57.216 48.0958 54.9885 48.0958 52.2407C48.0958 49.4929 45.8682 47.2654 43.1205 47.2654C40.3727 47.2654 38.1451 49.4929 38.1451 52.2407C38.1451 54.9885 40.3727 57.216 43.1205 57.216Z" fill="#19BCFE"/>
<path fill-rule="evenodd" clip-rule="evenodd" d="M33.1698 67.1667C35.9176 67.1667 38.1451 64.9392 38.1451 62.1914C38.1451 61.4413 38.1451 59.7828 38.1451 57.2161C35.91 57.2161 34.2515 57.2161 33.1698 57.2161C30.422 57.2161 28.1945 59.4436 28.1945 62.1914C28.1945 64.9392 30.422 67.1667 33.1698 67.1667Z" fill="#09CF83"/>
<path fill-rule="evenodd" clip-rule="evenodd" d="M33.1698 57.216H38.1451V47.2654C35.7441 47.2654 34.0857 47.2654 33.1698 47.2654C30.422 47.2654 28.1945 49.4929 28.1945 52.2407C28.1945 54.9885 30.422 57.216 33.1698 57.216Z" fill="#A259FF"/>
<path fill-rule="evenodd" clip-rule="evenodd" d="M33.1698 47.2654H38.1451V37.3148C35.7441 37.3148 34.0857 37.3148 33.1698 37.3148C30.422 37.3148 28.1945 39.5423 28.1945 42.2901C28.1945 45.0379 30.422 47.2654 33.1698 47.2654Z" fill="#F24E1E"/>
<path fill-rule="evenodd" clip-rule="evenodd" d="M43.1205 47.2654H38.1451V37.3148H43.1205C45.8682 37.3148 48.0958 39.5423 48.0958 42.2901C48.0958 45.0379 45.8682 47.2654 43.1205 47.2654Z" fill="#FF7262"/>
<rect x="17.311" y="81.1597" width="41.6682" height="41.6682" rx="0.93287" fill="white" stroke="#142534" stroke-width="0.621914"/>
<g clip-path="url(#clip0_183_11262)">
<path d="M46.8689 89.2397H29.4214C27.0264 89.2397 25.085 91.1812 25.085 93.5761V110.371C25.085 112.766 27.0264 114.707 29.4214 114.707H46.8689C49.2639 114.707 51.2053 112.766 51.2053 110.371V93.5761C51.2053 91.1812 49.2639 89.2397 46.8689 89.2397Z" fill="#470137"/>
<path d="M38.8162 95.9371L35.557 101.317L39.0439 107.029C39.0664 107.069 39.0726 107.116 39.0615 107.16C39.0561 107.179 39.0445 107.184 39.0266 107.185L39.0068 107.184L38.9827 107.184C38.9697 107.184 38.9551 107.184 38.9388 107.187H36.4248L36.3754 107.186C36.2399 107.183 36.1422 107.163 36.0827 107.064C35.8501 106.611 35.6165 106.158 35.3818 105.706C35.1719 105.303 34.9562 104.902 34.7349 104.505L34.6371 104.33C34.3724 103.86 34.1125 103.387 33.8574 102.911H33.8399C33.6043 103.382 33.3619 103.849 33.1127 104.313C32.8614 104.78 32.6131 105.245 32.3679 105.706C32.1226 106.168 31.8715 106.626 31.6145 107.081C31.5732 107.174 31.5045 107.194 31.4089 107.197L31.3691 107.197H28.9686L28.9582 107.198L28.9239 107.201C28.9049 107.202 28.8934 107.198 28.8897 107.169C28.8832 107.126 28.8925 107.083 28.9161 107.046L32.2978 101.492L29.0036 95.9198C28.9686 95.8732 28.9628 95.8353 28.9861 95.8059C28.999 95.7909 29.0152 95.7792 29.0335 95.7715C29.0518 95.7639 29.0715 95.7607 29.0913 95.762H31.5619C31.6158 95.7591 31.6696 95.768 31.7196 95.7883C31.7615 95.8121 31.7975 95.8451 31.8247 95.8848C32.035 96.3521 32.2687 96.8194 32.5257 97.2865C32.7807 97.7506 33.0406 98.2121 33.3054 98.6708C33.5661 99.1223 33.8087 99.5841 34.0326 100.055H34.0502C34.2796 99.5842 34.5162 99.1169 34.7598 98.6533C34.9991 98.1977 35.2444 97.7391 35.4957 97.2777C35.7437 96.8222 35.9861 96.3637 36.2228 95.9023C36.2363 95.859 36.2604 95.8199 36.2929 95.7883C36.3362 95.7664 36.3848 95.7573 36.4331 95.762H38.7286C38.7497 95.7568 38.7719 95.7585 38.7919 95.767C38.812 95.7754 38.8287 95.7902 38.8396 95.809C38.8506 95.8278 38.8551 95.8496 38.8526 95.8712C38.85 95.8928 38.8405 95.913 38.8255 95.9287L38.8163 95.9373L38.8162 95.9371ZM43.9658 107.413L43.845 107.414C43.0385 107.427 42.2393 107.259 41.5057 106.924C40.8223 106.607 40.2509 106.091 39.8673 105.443C39.4805 104.801 39.282 104 39.272 103.042L39.2716 102.964C39.265 102.159 39.4705 101.368 39.8674 100.668C40.2647 99.9759 40.8438 99.4055 41.542 99.0188L41.6021 98.9861C42.3612 98.5656 43.2783 98.3553 44.3531 98.3553L44.4 98.3558L44.4537 98.3575L44.5139 98.3602L44.5808 98.364L44.6933 98.372L44.8206 98.3822L44.9138 98.3904V94.9384C44.9138 94.8568 44.9489 94.8158 45.0189 94.8158H47.2268C47.241 94.8137 47.2556 94.815 47.2693 94.8196C47.283 94.8241 47.2954 94.8318 47.3056 94.842C47.3158 94.8522 47.3235 94.8646 47.328 94.8783C47.3326 94.892 47.3339 94.9066 47.3319 94.9209V105.277C47.3319 105.451 47.3386 105.638 47.3521 105.838L47.3847 106.293L47.4021 106.556C47.4042 106.592 47.3953 106.628 47.3766 106.66C47.3578 106.691 47.33 106.716 47.2969 106.731C46.7273 106.969 46.134 107.145 45.5271 107.257C45.0119 107.352 44.4897 107.404 43.9658 107.413ZM44.9138 105.242V100.458C44.8191 100.432 44.7224 100.415 44.6247 100.405C44.5053 100.393 44.3854 100.388 44.2655 100.388C43.8403 100.384 43.4201 100.48 43.0389 100.668C42.6677 100.853 42.3507 101.131 42.119 101.474C41.8877 101.813 41.768 102.254 41.7602 102.8L41.7597 102.859C41.7512 103.241 41.8136 103.621 41.9437 103.98C42.0496 104.269 42.2171 104.532 42.4345 104.751C42.6426 104.952 42.8945 105.102 43.1703 105.189C43.4618 105.283 43.7664 105.331 44.0727 105.329C44.2362 105.329 44.388 105.323 44.5283 105.312C44.6402 105.303 44.7511 105.285 44.8597 105.257L44.9138 105.242Z" fill="#FF61F6"/>
</g>
<rect x="17.311" y="329.925" width="41.6682" height="41.6682" rx="0.93287" fill="white" stroke="#142534" stroke-width="0.621914"/>
<path opacity="0.4" d="M44.0816 340.187H32.2087C30.2378 340.187 28.6468 341.778 28.6468 343.749V344.746C28.6468 345.66 28.5044 346.563 28.2075 347.429C27.7564 348.771 26.4978 349.685 25.085 349.685V352.06C26.4978 352.06 27.7564 352.962 28.2075 354.316C28.4925 355.182 28.6468 356.096 28.6468 356.999V357.996C28.6468 359.967 30.2378 361.558 32.2087 361.558H44.0816C46.0525 361.558 47.6435 359.967 47.6435 357.996V356.999C47.6435 356.085 47.7859 355.182 48.0828 354.316C48.5339 352.974 49.7925 352.06 51.2053 352.06V349.685C49.7925 349.685 48.5339 348.783 48.0828 347.429C47.7978 346.563 47.6435 345.648 47.6435 344.746V343.749C47.6435 341.778 46.0525 340.187 44.0816 340.187Z" fill="#6C16EF"/>
<path d="M38.9406 356.714H35.4737C34.9869 356.714 34.5833 356.31 34.5833 355.823V345.933C34.5833 345.446 34.9869 345.043 35.4737 345.043H38.9406C40.7928 345.043 42.3006 346.55 42.3006 348.403C42.3006 349.376 41.8851 350.267 41.2083 350.872C41.8732 351.49 42.3006 352.368 42.3006 353.342C42.3006 355.206 40.7928 356.714 38.9406 356.714ZM36.3642 354.933H38.9406C39.8192 354.933 40.5197 354.22 40.5197 353.354C40.5197 352.487 39.8073 351.774 38.9406 351.774H36.3642V354.933ZM36.3642 349.982H38.9406C39.8192 349.982 40.5197 349.269 40.5197 348.403C40.5197 347.536 39.8073 346.824 38.9406 346.824H36.3642V349.982Z" fill="white"/>
<rect x="17.311" y="130.913" width="41.6682" height="41.6682" rx="0.93287" fill="white" stroke="#142534" stroke-width="0.621914"/>
<path d="M25.1298 141.634C25.1298 140.031 26.4292 138.732 28.032 138.732H48.3479C49.9506 138.732 51.2501 140.031 51.2501 141.634V161.95C51.2501 163.552 49.9506 164.852 48.3479 164.852H28.032C26.4292 164.852 25.1298 163.552 25.1298 161.95V141.634Z" fill="#03A9F4"/>
<path d="M35.3004 148.291H33.8478V151.508H35.2793C35.6762 151.508 35.9831 151.379 36.2008 151.119C36.4185 150.859 36.5266 150.481 36.5266 149.985C36.5266 149.47 36.4156 149.06 36.1935 148.756C35.9715 148.451 35.6733 148.296 35.3004 148.291Z" fill="#020F16"/>
<path d="M27.3064 140.908V162.675H49.0734V140.908H27.3064ZM37.7291 152.364C37.1298 152.95 36.2983 153.243 35.2354 153.243H33.8466V156.871H31.7635V146.554H35.2782C36.2983 146.554 37.1124 146.871 37.719 147.503C38.3256 148.136 38.6296 148.958 38.6296 149.969C38.6296 150.98 38.3292 151.778 37.7291 152.364ZM44.4892 156.389C43.9748 156.805 43.2986 157.012 42.4627 157.012C41.9004 157.012 41.4041 156.902 40.9746 156.683C40.5451 156.463 40.2077 156.157 39.9646 155.765C39.7216 155.373 39.5997 154.95 39.5997 154.496H41.5057C41.5159 154.845 41.5964 155.108 41.7502 155.283C41.9041 155.458 42.1551 155.545 42.5048 155.545C43.0432 155.545 43.3124 155.302 43.3124 154.815C43.3124 154.645 43.2311 154.488 43.0679 154.344C42.9046 154.2 42.5433 154.006 41.981 153.76C41.1545 153.425 40.5864 153.078 40.2766 152.718C39.9668 152.358 39.8122 151.913 39.8122 151.379C39.8122 150.708 40.0546 150.154 40.5385 149.717C41.0225 149.28 41.6646 149.062 42.462 149.062C43.3022 149.062 43.9755 149.28 44.4813 149.714C44.987 150.147 45.2395 150.732 45.2395 151.464H43.234C43.234 150.84 42.975 150.528 42.4548 150.528C42.2422 150.528 42.068 150.594 41.9302 150.726C41.7923 150.858 41.7248 151.044 41.7248 151.279C41.7248 151.449 41.8003 151.599 41.9519 151.729C42.1036 151.859 42.4591 152.045 43.0222 152.286C43.8399 152.588 44.4167 152.925 44.7548 153.296C45.0929 153.666 45.2612 154.147 45.2612 154.737C45.2612 155.423 45.0037 155.973 44.4892 156.389Z" fill="#020F16"/>
<rect x="17.311" y="180.666" width="41.6682" height="41.6682" rx="0.93287" fill="white" stroke="#142534" stroke-width="0.621914"/>
<path d="M25.1298 197.938C25.1298 194.629 25.1298 192.974 25.7737 191.711C26.3402 190.599 27.244 189.695 28.3557 189.129C29.6195 188.485 31.274 188.485 34.5828 188.485H41.7971C45.106 188.485 46.7604 188.485 48.0242 189.129C49.1359 189.695 50.0397 190.599 50.6062 191.711C51.2501 192.974 51.2501 194.629 51.2501 197.938V205.152C51.2501 208.461 51.2501 210.115 50.6062 211.379C50.0397 212.491 49.1359 213.395 48.0242 213.961C46.7604 214.605 45.106 214.605 41.7971 214.605H34.5828C31.274 214.605 29.6195 214.605 28.3557 213.961C27.244 213.395 26.3402 212.491 25.7737 211.379C25.1298 210.115 25.1298 208.461 25.1298 205.152V197.938Z" fill="#330000"/>
<path d="M37.7894 204.898H33.7417L32.9182 207.522C32.8953 207.62 32.8056 207.689 32.7079 207.684H30.6578C30.5409 207.684 30.5 207.618 30.5351 207.486L34.0396 197.134C34.0747 197.027 34.1097 196.904 34.1447 196.766C34.1906 196.526 34.214 196.282 34.2149 196.038C34.2048 195.966 34.2682 195.902 34.3375 195.912H37.1236C37.2052 195.912 37.2518 195.942 37.2637 196.002L41.2413 207.504C41.2763 207.624 41.2414 207.684 41.1362 207.684H38.8582C38.7784 207.693 38.7021 207.638 38.683 207.558L37.7894 204.898ZM34.3725 202.634H37.1411C36.6862 201.079 36.1729 199.545 35.7568 197.979C35.3079 199.548 34.8182 201.111 34.3725 202.634Z" fill="#FF9A00"/>
<path d="M43.6078 197.819C43.4291 197.826 43.2509 197.795 43.0848 197.727C42.9187 197.659 42.7685 197.555 42.6441 197.423C42.52 197.286 42.4235 197.125 42.3604 196.949C42.2972 196.773 42.2686 196.586 42.2761 196.399C42.2697 196.214 42.3015 196.029 42.3694 195.857C42.4374 195.685 42.54 195.53 42.6704 195.402C42.7995 195.274 42.9519 195.175 43.1189 195.109C43.2858 195.042 43.4639 195.011 43.6428 195.015C44.0634 195.015 44.3934 195.144 44.6329 195.402C44.7538 195.535 44.8477 195.692 44.9094 195.864C44.9709 196.035 44.9991 196.217 44.992 196.399C44.9994 196.587 44.9698 196.775 44.9051 196.95C44.8404 197.126 44.7418 197.287 44.6153 197.423C44.4831 197.557 44.3253 197.661 44.152 197.729C43.9786 197.797 43.7933 197.828 43.6078 197.819ZM42.3987 207.506V198.915C42.3987 198.807 42.4453 198.753 42.5389 198.753H44.6942C44.7875 198.753 44.8343 198.807 44.8344 198.915V207.506C44.8344 207.626 44.7876 207.685 44.6942 207.685H42.5565C42.4513 207.685 42.3987 207.625 42.3987 207.506Z" fill="#FF9A00"/>
<rect x="17.311" y="230.419" width="41.6682" height="41.6682" rx="0.93287" fill="white" stroke="#142534" stroke-width="0.621914"/>
<path d="M38.1292 265.951L27.4621 262.989L25.085 236.327H51.2053L48.8257 262.985L38.1292 265.951Z" fill="#264DE4"/>
<path d="M46.7885 261.288L48.822 238.507H38.1451V263.684L46.7885 261.288Z" fill="#2965F1"/>
<path d="M30.5344 248.396L30.8275 251.666H38.1451V248.396H30.5344Z" fill="#EBEBEB"/>
<path d="M29.9457 241.777L30.2429 245.047H38.1453V241.777H29.9457Z" fill="#EBEBEB"/>
<path d="M38.1452 256.888L38.1308 256.892L34.489 255.909L34.2562 253.301H30.9736L31.4318 258.435L38.1301 260.295L38.1452 260.291V256.888Z" fill="#EBEBEB"/>
<path d="M45.735 248.396L46.3253 241.777H38.1339V245.047H42.7417L42.4441 248.396H38.1339V251.666H42.1605L41.781 255.907L38.1339 256.891V260.293L44.8376 258.435L44.8868 257.883L45.6552 249.274L45.735 248.396Z" fill="white"/>
<rect x="17.311" y="280.172" width="41.6682" height="41.6682" rx="0.93287" fill="white" stroke="#142534" stroke-width="0.621914"/>
<path d="M27.5902 312.518L25.213 285.857H51.3334L48.953 312.514L38.2573 315.479L27.5902 312.518Z" fill="#E44F26"/>
<path d="M38.272 313.215L46.9153 310.818L48.9486 288.039H38.272V313.215Z" fill="#F1662A"/>
<path d="M38.272 297.926H33.945L33.6467 294.578H38.272V291.308H38.2603H30.073L30.1513 292.186L30.9543 301.196H38.272V297.926Z" fill="#EBEBEB"/>
<path d="M38.2737 306.416L38.2588 306.42L34.6174 305.437L34.3847 302.829H32.6148H31.1019L31.56 307.963L38.2588 309.822L38.2737 309.818V306.416Z" fill="#EBEBEB"/>
<path d="M38.2637 297.928V301.198H42.2902L41.9114 305.44L38.2637 306.424V309.826L44.9678 307.967L45.0165 307.415L45.7845 298.806L45.8649 297.928H44.9837H38.2637Z" fill="white"/>
<path d="M38.2637 291.308V293.339V294.571V294.578H46.1516H46.1622L46.2278 293.844L46.377 292.186L46.4552 291.308H38.2637Z" fill="white"/>
<defs>
<clipPath id="clip0_183_11262">
<rect width="26.1204" height="25.5082" fill="white" transform="translate(25.085 89.2397)"/>
</clipPath>
</defs>
</svg>
