<svg width="70" height="58" viewBox="0 0 70 58" fill="none" xmlns="http://www.w3.org/2000/svg">
<path opacity="0.7" d="M45.3385 1.19444C45.3385 1.19444 34.5029 -2.6585 23.8666 3.4756C13.2303 9.60984 7.86345 21.7868 3.25479 31.541C-1.35387 41.2952 1.29885 51.2169 9.41829 55.741C17.5377 60.2649 23.0588 53.596 34.449 53.2712C45.8394 52.9466 48.9028 54.5749 58.3543 48.1404C67.806 41.7058 69.5145 26.5097 62.0587 15.2656C54.6027 4.02146 45.3385 1.19444 45.3385 1.19444Z" fill="#C0C0C0"/>
<path d="M62.9861 51.29H58.3491V51.325H62.9861V51.29Z" fill="#EBEBEB"/>
<path d="M46.3708 51.6699H45.1538V51.7049H46.3708V51.6699Z" fill="#EBEBEB"/>
<path d="M58.2089 49.99H55.522V50.025H58.2089V49.99Z" fill="#EBEBEB"/>
<path d="M13.3913 50.2251H7.34424V50.2601H13.3913V50.2251Z" fill="#EBEBEB"/>
<path d="M15.5244 50.2251H14.6378V50.2601H15.5244V50.2251Z" fill="#EBEBEB"/>
<path d="M31.5206 50.8164H18.4059V50.8514H31.5206V50.8164Z" fill="#EBEBEB"/>
<path d="M33.182 42.7928H6.14812C5.70754 42.7928 5.349 42.4343 5.349 41.9937V3.99321C5.349 3.55263 5.70754 3.19409 6.14812 3.19409H33.182C33.6224 3.19409 33.981 3.55263 33.981 3.99321V41.9937C33.981 42.4343 33.6224 42.7928 33.182 42.7928ZM6.14812 3.22923C5.72672 3.22923 5.384 3.57195 5.384 3.99335V41.9938C5.384 42.4152 5.72672 42.758 6.14812 42.758H33.182C33.6032 42.758 33.946 42.4152 33.946 41.9938V3.99321C33.946 3.57195 33.6032 3.22909 33.182 3.22909L6.14812 3.22923Z" fill="#EBEBEB"/>
<path d="M63.4634 42.7928H36.4297C35.9891 42.7928 35.6307 42.4343 35.6307 41.9937V3.99321C35.6307 3.55263 35.9892 3.19409 36.4297 3.19409H63.4634C63.9041 3.19409 64.2625 3.55263 64.2625 3.99321V41.9937C64.2626 42.4343 63.9041 42.7928 63.4634 42.7928ZM36.4297 3.22923C36.0084 3.22923 35.6657 3.57195 35.6657 3.99335V41.9938C35.6657 42.4152 36.0084 42.758 36.4297 42.758H63.4634C63.8848 42.758 64.2275 42.4152 64.2275 41.9938V3.99321C64.2275 3.57195 63.8848 3.22909 63.4634 3.22909L36.4297 3.22923Z" fill="#EBEBEB"/>
<path d="M70 49.0366H0V49.0716H70V49.0366Z" fill="#EBEBEB"/>
<path d="M44.061 19.5666H23.663L24.8791 5.66504H45.2773L44.061 19.5666Z" fill="#F5F5F5"/>
<path d="M37.1095 17.0923H26.0365V17.2016H37.1095V17.0923Z" fill="#E0E0E0"/>
<path d="M37.3459 15.0751H26.1768L26.182 15.0157L26.8546 7.3269H38.0236L38.0184 7.3864L37.3459 15.0751ZM26.296 14.9657H37.2454L37.9042 7.43638H26.9548L26.296 14.9657Z" fill="#E0E0E0"/>
<path d="M26.6326 18.743H26.3314C26.2051 18.743 26.0904 18.6936 26.0081 18.604C25.9255 18.5138 25.8862 18.3944 25.8972 18.2675L25.9235 17.9665C25.9459 17.7095 26.1734 17.5005 26.4305 17.5005H26.7318C26.858 17.5005 26.973 17.5498 27.055 17.6395C27.1376 17.7294 27.177 17.8491 27.1659 17.9759L27.1396 18.2769C27.1172 18.5338 26.8897 18.743 26.6326 18.743ZM26.4306 17.6097C26.2287 17.6097 26.0504 17.7739 26.0326 17.9758L26.0063 18.2768C25.998 18.3728 26.0273 18.4628 26.0887 18.5299C26.1501 18.5968 26.2362 18.6335 26.3314 18.6335H26.6326C26.8345 18.6335 27.0129 18.4691 27.0307 18.2674L27.057 17.9664C27.0654 17.8702 27.036 17.7803 26.9745 17.713C26.9132 17.6464 26.8271 17.6097 26.7319 17.6097H26.4306Z" fill="#E0E0E0"/>
<path d="M31.6958 16.4516H26.0563L26.1084 15.8538H31.7478L31.6958 16.4516ZM26.1756 16.3422H31.5954L31.6287 15.9632H26.2089L26.1756 16.3422Z" fill="#E0E0E0"/>
<path d="M37.0461 18.4205H34.7998L34.8519 17.823H37.0982L37.0461 18.4205ZM34.9189 18.3112H36.9457L36.979 17.9325H34.9523L34.9189 18.3112Z" fill="#E0E0E0"/>
<path d="M37.2254 16.4516H36.6271L36.6792 15.8538H37.2774L37.2254 16.4516ZM36.7464 16.3422H37.125L37.1583 15.9632H36.7797L36.7464 16.3422Z" fill="#E0E0E0"/>
<path d="M36.3978 16.4516H35.7996L35.8516 15.8538H36.4499L36.3978 16.4516ZM35.9188 16.3422H36.2974L36.3307 15.9632H35.9522L35.9188 16.3422Z" fill="#E0E0E0"/>
<path d="M35.5701 16.4516H34.9722L35.0242 15.8538H35.6222L35.5701 16.4516ZM35.0913 16.3422H35.4696L35.5029 15.9632H35.1245L35.0913 16.3422Z" fill="#E0E0E0"/>
<path d="M38.0743 6.74795H29.6701L29.7162 6.21777H38.1204L38.0743 6.74795ZM29.7892 6.63847H37.9739L38.0012 6.32697H29.8165L29.7892 6.63847Z" fill="#E0E0E0"/>
<path d="M29.1249 6.78164H26.8786L26.9307 6.18384H29.177L29.1249 6.78164ZM26.9977 6.67216H29.0244L29.0577 6.29318H27.0309L26.9977 6.67216Z" fill="#E0E0E0"/>
<path d="M43.3511 9.84155H39.4045L39.6026 7.57397H43.5495L43.3511 9.84155ZM39.5238 9.73221H43.2508L43.4302 7.68345H39.703L39.5238 9.73221Z" fill="#E0E0E0"/>
<path d="M42.9786 14.0983H39.032L39.2303 11.8306H43.1769L42.9786 14.0983ZM39.1512 13.9889H42.8781L43.0576 11.94H39.3307L39.1512 13.9889Z" fill="#E0E0E0"/>
<path d="M42.6062 18.3556H38.6596L38.8578 16.0879H42.8044L42.6062 18.3556ZM38.7789 18.2463H42.5058L42.6853 16.1974H38.9584L38.7789 18.2463Z" fill="#E0E0E0"/>
<path d="M43.4649 7.57925L39.4403 9.73975L39.492 9.83609L43.5166 7.67559L43.4649 7.57925Z" fill="#E0E0E0"/>
<path d="M43.2732 9.83376L39.6251 7.67552L39.6806 7.5813L43.3288 9.73954L43.2732 9.83376Z" fill="#E0E0E0"/>
<path d="M43.0923 11.8405L39.0649 13.9956L39.1165 14.0921L43.1439 11.9371L43.0923 11.8405Z" fill="#E0E0E0"/>
<path d="M39.3096 11.837L39.254 11.9312L42.9022 14.0895L42.9578 13.9954L39.3096 11.837Z" fill="#E0E0E0"/>
<path d="M38.656 18.3967L38.8611 16.0513L40.7333 17.1589L42.7191 16.0942L42.7707 16.1908L40.8434 17.224L42.5838 18.254L42.5283 18.348L40.7308 17.2845L38.656 18.3967ZM38.955 16.2337L38.7824 18.2049L40.6208 17.2194L38.955 16.2337Z" fill="#E0E0E0"/>
<path d="M37.9333 7.33818L26.2047 14.9744L26.2644 15.0661L37.993 7.42992L37.9333 7.33818Z" fill="#E0E0E0"/>
<path d="M26.9368 7.33782L26.8719 7.42603L37.2628 15.0647L37.3276 14.9765L26.9368 7.33782Z" fill="#E0E0E0"/>
<path d="M52.1465 49.1136H40.9227L42.5054 31.0232H53.7292L52.1465 49.1136Z" fill="#F5F5F5"/>
<path d="M44.5931 48.3063H41.8589L42.0269 46.3838H44.7612L44.5931 48.3063ZM41.9801 48.195H44.4909L44.6398 46.4949H42.1288L41.9801 48.195Z" fill="#E0E0E0"/>
<path d="M47.9204 48.3063H45.1861L45.3542 46.3838H48.0884L47.9204 48.3063ZM45.3073 48.195H47.8184L47.9672 46.4949H45.4564L45.3073 48.195Z" fill="#E0E0E0"/>
<path d="M51.2477 48.3063H48.5135L48.6813 46.3838H51.4157L51.2477 48.3063ZM48.6347 48.195H51.1455L51.2945 46.4949H48.7834L48.6347 48.195Z" fill="#E0E0E0"/>
<path d="M51.5941 43.6519H42.3168V43.763H51.5941V43.6519Z" fill="#E0E0E0"/>
<path d="M48.6414 41.0612H42.5038L42.5656 40.3535H48.7032L48.6414 41.0612ZM42.6251 40.9501H48.5394L48.5819 40.4648H42.6676L42.6251 40.9501Z" fill="#E0E0E0"/>
<path d="M51.4861 45.5811H48.9409L49.002 44.8821H51.5472L51.4861 45.5811ZM49.0623 45.4699H51.3841L51.4261 44.9934H49.1042L49.0623 45.4699Z" fill="#E0E0E0"/>
<path d="M51.7254 42.8476H50.758L50.8426 41.8809H51.8097L51.7254 42.8476ZM50.8792 42.7363H51.6232L51.6883 41.992H50.9445L50.8792 42.7363Z" fill="#E0E0E0"/>
<path d="M47.5181 42.8476H46.5507L46.6353 41.8809H47.6027L47.5181 42.8476ZM46.672 42.7363H47.4159L47.4813 41.992H46.7372L46.672 42.7363Z" fill="#E0E0E0"/>
<path d="M43.3111 42.8476H42.3437L42.428 41.8809H43.3954L43.3111 42.8476ZM42.4649 42.7363H43.2089L43.2741 41.992H42.53L42.4649 42.7363Z" fill="#E0E0E0"/>
<path d="M46.1254 32.7061H43.2351L43.3002 31.9597H46.1905L46.1254 32.7061ZM43.3563 32.5948H46.0233L46.0694 32.0709H43.4024L43.3563 32.5948Z" fill="#E0E0E0"/>
<path d="M43.0109 45.7753H42.7679C42.588 45.7753 42.4249 45.7051 42.3083 45.5779C42.1909 45.4499 42.1351 45.2801 42.1511 45.0995L42.1723 44.8564C42.2045 44.4891 42.5296 44.1902 42.897 44.1902H43.1399C43.3198 44.1902 43.4829 44.2603 43.5998 44.3879C43.7171 44.5158 43.7729 44.6856 43.7571 44.866L43.7358 45.109C43.7034 45.4764 43.3783 45.7753 43.0109 45.7753ZM42.8968 44.3013C42.5855 44.3013 42.3102 44.5546 42.2829 44.866L42.2616 45.109C42.2486 45.2582 42.2943 45.398 42.3903 45.5027C42.4855 45.6067 42.6198 45.6641 42.7679 45.6641H43.0109C43.3223 45.6641 43.5977 45.4108 43.6248 45.0995L43.6461 44.8564C43.6591 44.7075 43.6135 44.5675 43.5174 44.4628C43.4221 44.3587 43.2878 44.3013 43.1397 44.3013H42.8968Z" fill="#E0E0E0"/>
<path d="M51.9826 39.7614H42.6128L42.618 39.7011L43.1819 33.2556H52.5515L52.5464 33.3161L51.9826 39.7614ZM42.7339 39.6503H51.8804L52.4302 33.3669H43.2838L42.7339 39.6503Z" fill="#E0E0E0"/>
<path d="M43.2653 33.2675L43.1994 33.3572L51.8978 39.7517L51.9637 39.662L43.2653 33.2675Z" fill="#E0E0E0"/>
<path d="M42.7038 39.7524L42.6429 39.659L52.4 33.3201L52.4607 33.4133L42.7038 39.7524Z" fill="#E0E0E0"/>
<path d="M44.509 48.2953L42.0449 46.484L42.1109 46.3945L44.5751 48.2058L44.509 48.2953Z" fill="#E0E0E0"/>
<path d="M44.6678 46.392L41.8865 48.2029L41.9473 48.2963L44.7286 46.4854L44.6678 46.392Z" fill="#E0E0E0"/>
<path d="M47.8364 48.2953L45.3724 46.484L45.4385 46.3945L47.9025 48.2058L47.8364 48.2953Z" fill="#E0E0E0"/>
<path d="M47.9967 46.3916L45.2157 48.2031L45.2765 48.2965L48.0575 46.485L47.9967 46.3916Z" fill="#E0E0E0"/>
<path d="M51.1636 48.2953L48.6995 46.484L48.7655 46.3945L51.2297 48.2058L51.1636 48.2953Z" fill="#E0E0E0"/>
<path d="M51.324 46.3916L48.543 48.2031L48.6039 48.2965L51.3848 46.485L51.324 46.3916Z" fill="#E0E0E0"/>
<path d="M55.5473 9.84108C55.5473 9.52188 55.5002 9.21318 55.4116 8.9231L56.2169 8.2147L55.7098 7.33634L54.6934 7.68004C54.2729 7.2312 53.7232 6.90528 53.1036 6.76136L52.8926 5.70996H51.8784L51.6682 6.76136C51.0485 6.90528 50.4982 7.2312 50.0776 7.68004L49.0612 7.33634L48.5541 8.2147L49.3594 8.9231C49.2714 9.21318 49.2238 9.52188 49.2238 9.84108C49.2238 10.161 49.2715 10.469 49.3594 10.7598L48.5541 11.4675L49.0612 12.3458L50.0776 12.0021C50.4982 12.451 51.0485 12.7769 51.6682 12.9215L51.8784 13.9729H52.8926L53.1036 12.9215C53.7232 12.7769 54.2729 12.451 54.6934 12.0021L55.7098 12.3458L56.2169 11.4675L55.4116 10.7598C55.5002 10.4688 55.5473 10.161 55.5473 9.84108ZM52.3855 11.5478C51.478 11.5478 50.7428 10.8118 50.7428 9.90436C50.7428 8.99688 51.478 8.2609 52.3855 8.2609C53.293 8.2609 54.029 8.99688 54.029 9.90436C54.0291 10.812 53.293 11.5478 52.3855 11.5478Z" fill="#EBEBEB"/>
<path d="M20.8217 36.4483C21.0931 35.9338 21.2799 35.3962 21.3835 34.8531L23.2841 34.396L23.2137 32.5487L21.283 32.2385C20.9867 31.1571 20.3779 30.1645 19.5015 29.4056L20.0554 27.5311L18.4207 26.6687L17.1875 28.1848C16.0663 27.8898 14.9019 27.9472 13.8422 28.3131L12.4961 26.8947L10.9318 27.8796L11.6276 29.7064C11.2391 30.0993 10.8996 30.5562 10.6281 31.0707C10.3561 31.5865 10.1712 32.1235 10.0656 32.6671L8.16553 33.123L8.23595 34.9703L10.1667 35.2805C10.4629 36.3619 11.0729 37.3552 11.9489 38.1152L11.3938 39.989L13.0286 40.8514L14.2629 39.3359C15.3849 39.6296 16.5479 39.5717 17.6077 39.2057L18.9538 40.6242L20.5181 39.6393L19.8216 37.8137C20.212 37.4204 20.5496 36.9639 20.8217 36.4483ZM14.2733 36.5111C12.8104 35.7394 12.251 33.9277 13.0228 32.4647C13.7945 31.0017 15.6057 30.4406 17.0687 31.2123C18.5315 31.9839 19.0921 33.7964 18.3204 35.2592C17.5486 36.7222 15.7363 37.2828 14.2733 36.5111Z" fill="#EBEBEB"/>
<path d="M55.4374 31.5294L56.5354 32.1378C56.5904 32.1688 56.6271 32.1963 56.6453 32.2206C56.6635 32.2448 56.6726 32.2757 56.6726 32.3131C56.6726 32.3606 56.6555 32.4016 56.6214 32.4363C56.5872 32.471 56.5474 32.4884 56.5022 32.4884C56.4725 32.4884 56.4279 32.4719 56.3684 32.4388L54.9519 31.651C54.8564 31.598 54.8564 31.4606 54.9519 31.4076L56.3684 30.6198C56.4279 30.5877 56.472 30.5718 56.5007 30.5718C56.547 30.5718 56.5872 30.5889 56.6214 30.623C56.6555 30.6572 56.6726 30.6981 56.6726 30.7454C56.6726 30.7829 56.6635 30.8137 56.6453 30.8379C56.6271 30.8621 56.5904 30.8897 56.5354 30.9205L55.4374 31.5294Z" fill="#EBEBEB"/>
<path d="M58.2626 30.3951L57.1762 32.7366C57.1486 32.7949 57.1238 32.833 57.1017 32.8507C57.073 32.8738 57.0383 32.8854 56.9975 32.8854C56.9512 32.8854 56.9113 32.8689 56.8776 32.8357C56.844 32.8026 56.8271 32.7651 56.8271 32.7233C56.8271 32.6936 56.8403 32.6499 56.8668 32.5926L57.9565 30.2528C57.9841 30.1944 58.0083 30.1564 58.0293 30.1387C58.0591 30.1156 58.0939 30.104 58.1335 30.104C58.1798 30.104 58.2194 30.1202 58.2525 30.1527C58.2857 30.1852 58.3022 30.2224 58.3022 30.2643C58.3023 30.2941 58.289 30.3378 58.2626 30.3951Z" fill="#EBEBEB"/>
<path d="M59.6287 31.5296L58.5307 30.921C58.4755 30.8902 58.439 30.8626 58.4208 30.8384C58.4026 30.8142 58.3935 30.7832 58.3935 30.7459C58.3935 30.6984 58.4106 30.6577 58.4447 30.6235C58.4789 30.5893 58.5191 30.5723 58.5654 30.5723C58.5941 30.5723 58.6382 30.5882 58.6977 30.6203L60.1142 31.4081C60.2097 31.4611 60.2097 31.5985 60.1142 31.6515L58.6977 32.4393C58.6382 32.4723 58.5941 32.4889 58.5654 32.4889C58.5185 32.4889 58.4779 32.4714 58.4435 32.4364C58.411 32.4033 58.3935 32.3598 58.3935 32.3134C58.3935 32.2761 58.4026 32.2451 58.4208 32.221C58.439 32.1968 58.4755 32.1692 58.5307 32.1383L59.6287 31.5296Z" fill="#EBEBEB"/>
<path d="M15.8968 21.5883H10.7149C10.4784 21.5883 10.2635 21.496 10.1101 21.3286C9.95565 21.1601 9.88215 20.9366 9.90301 20.6988L10.9866 8.31317C11.0289 7.82947 11.457 7.43593 11.9409 7.43593H13.2878C13.4141 7.43593 13.5132 7.53057 13.5182 7.65615L13.5199 7.69829C13.5269 7.87315 13.6654 8.00489 13.8419 8.00489H15.1224C15.3049 8.00489 15.4722 7.86783 15.5113 7.68625L15.5204 7.64411C15.5463 7.52343 15.6538 7.43579 15.776 7.43579H17.123C17.3594 7.43579 17.5743 7.52805 17.7279 7.69563C17.8823 7.86405 17.9557 8.08763 17.935 8.32521L16.8514 20.7109C16.8088 21.1947 16.3807 21.5883 15.8968 21.5883ZM11.9407 7.57593C11.5276 7.57593 11.162 7.91207 11.1259 8.32535L10.0423 20.711C10.025 20.9091 10.0857 21.0948 10.2131 21.2339C10.3398 21.3721 10.518 21.4483 10.7147 21.4483H15.8967C16.3098 21.4483 16.6752 21.1121 16.7115 20.6988L17.7951 8.31317C17.8123 8.11521 17.7517 7.92943 17.6243 7.79041C17.4976 7.65209 17.3194 7.57593 17.1225 7.57593H15.7756C15.7207 7.57593 15.6685 7.61891 15.6567 7.67365L15.6476 7.71593C15.595 7.96051 15.3689 8.14503 15.1219 8.14503H13.8418C13.5887 8.14503 13.3901 7.95547 13.3799 7.70403L13.3782 7.66189C13.3763 7.61219 13.3382 7.57607 13.2878 7.57607L11.9407 7.57593Z" fill="#407BFF"/>
<path d="M17.7661 9.38086H10.9573V9.52086H17.7661V9.38086Z" fill="#407BFF"/>
<path d="M17.1225 7.43604H15.7756V7.57604H17.1225V7.43604Z" fill="#407BFF"/>
<path d="M15.8562 15.1661H11.8832L12.2308 11.1936H16.2039L15.8562 15.1661ZM12.0359 15.0261H15.728L16.0511 11.3336H12.359L12.0359 15.0261Z" fill="#407BFF"/>
<path d="M15.9038 19.6535H11.0341L11.1629 18.1802H16.0328L15.9038 19.6535ZM11.1868 19.5135H15.7756L15.88 18.3202H11.2912L11.1868 19.5135Z" fill="#407BFF"/>
<path d="M12.7007 17.2098C12.588 17.2098 12.4857 17.1657 12.4122 17.0856C12.3384 17.0051 12.3033 16.8986 12.3131 16.7855C12.333 16.5582 12.5341 16.3733 12.7615 16.3733C12.8742 16.3733 12.9767 16.4174 13.05 16.4975C13.1237 16.578 13.159 16.6845 13.149 16.7976C13.1293 17.025 12.9282 17.2098 12.7007 17.2098ZM12.7618 16.5133C12.6051 16.5133 12.4665 16.6408 12.4528 16.7976C12.4464 16.8711 12.4686 16.9399 12.5157 16.991C12.5621 17.0418 12.6279 17.0698 12.7009 17.0698C12.8575 17.0698 12.9961 16.9423 13.0099 16.7855C13.0163 16.712 12.994 16.6433 12.9471 16.5921C12.9004 16.5413 12.8346 16.5133 12.7618 16.5133Z" fill="#407BFF"/>
<path d="M13.7078 17.2098C13.5951 17.2098 13.4927 17.1657 13.4192 17.0856C13.3455 17.0051 13.3103 16.8986 13.3203 16.7855C13.3401 16.5582 13.5413 16.3733 13.7687 16.3733C13.8814 16.3733 13.9839 16.4174 14.0572 16.4975C14.1309 16.578 14.1661 16.6845 14.1562 16.7976C14.1363 17.025 13.9353 17.2098 13.7078 17.2098ZM13.7687 16.5133C13.612 16.5133 13.4734 16.6408 13.4597 16.7976C13.4533 16.8711 13.4755 16.9399 13.5226 16.991C13.5692 17.0418 13.6348 17.0698 13.7078 17.0698C13.8644 17.0698 14.003 16.9423 14.0168 16.7855C14.0232 16.712 14.0009 16.6433 13.954 16.5921C13.9074 16.5413 13.8416 16.5133 13.7687 16.5133Z" fill="#407BFF"/>
<path d="M14.7148 17.2098C14.6021 17.2098 14.4996 17.1655 14.4262 17.0855C14.3526 17.005 14.3174 16.8983 14.3272 16.7853C14.3471 16.5582 14.5483 16.3733 14.7757 16.3733C14.8884 16.3733 14.9908 16.4174 15.0642 16.4976C15.1378 16.5781 15.173 16.6846 15.1632 16.7976C15.1433 17.025 14.9421 17.2098 14.7148 17.2098ZM14.7757 16.5133C14.619 16.5133 14.4804 16.6408 14.4667 16.7976C14.4602 16.8711 14.4825 16.9399 14.5294 16.991C14.5759 17.0418 14.6417 17.0698 14.7146 17.0698C14.8713 17.0698 15.0099 16.9423 15.0236 16.7855V16.7853C15.03 16.712 15.0078 16.6432 14.9609 16.5921C14.9144 16.5414 14.8486 16.5133 14.7757 16.5133Z" fill="#407BFF"/>
<path d="M56.4035 35.6172H49.5948V35.7572H56.4035V35.6172Z" fill="#407BFF"/>
<path d="M54.5305 47.8244H49.3486C49.1121 47.8244 48.8972 47.7322 48.7438 47.5647C48.5895 47.3963 48.516 47.1726 48.5367 46.9349L49.6203 34.5494C49.6626 34.0657 50.0907 33.6721 50.5745 33.6721H51.9215C52.0478 33.6721 52.1469 33.7668 52.1519 33.8923L52.1536 33.9345C52.1606 34.1093 52.2991 34.2411 52.4756 34.2411H53.7562C53.9389 34.2411 54.106 34.1042 54.145 33.9226L54.1541 33.8803C54.1795 33.7616 54.2894 33.6721 54.4097 33.6721H55.7566C55.9932 33.6721 56.208 33.7644 56.3616 33.9318C56.5159 34.1002 56.5894 34.3238 56.5686 34.5615L55.485 46.9471C55.4425 47.4309 55.0145 47.8244 54.5305 47.8244ZM50.5745 33.8121C50.1614 33.8121 49.7959 34.1483 49.7597 34.5617L48.6761 46.9472C48.6588 47.1453 48.7195 47.3309 48.8469 47.4701C48.9736 47.6083 49.1517 47.6844 49.3486 47.6844H54.5305C54.9437 47.6844 55.3092 47.3483 55.3453 46.9349L56.4289 34.5494C56.4463 34.3514 56.3855 34.1658 56.2581 34.0266C56.1314 33.8884 55.9532 33.8123 55.7565 33.8123H54.4096C54.3547 33.8123 54.3025 33.8552 54.2907 33.91L54.2816 33.9523C54.2291 34.1968 54.003 34.3812 53.7559 34.3812H52.4753C52.2222 34.3812 52.0235 34.1917 52.0135 33.9404L52.0118 33.8981C52.0098 33.8484 51.9717 33.8123 51.9213 33.8123H50.5745V33.8121Z" fill="#407BFF"/>
<path d="M55.3994 37.5619H50.2833C50.1747 37.5619 50.0759 37.5194 50.005 37.4421C49.9339 37.3644 49.8999 37.2616 49.9094 37.1526C49.9286 36.9336 50.1225 36.7554 50.3416 36.7554H55.4576C55.5662 36.7554 55.6651 36.7979 55.7359 36.8754C55.807 36.9529 55.8409 37.0558 55.8315 37.1647C55.8124 37.3838 55.6185 37.5619 55.3994 37.5619ZM50.3416 36.8954C50.1932 36.8954 50.0617 37.0162 50.0488 37.1649C50.0427 37.2343 50.0638 37.2991 50.1082 37.3476C50.1522 37.3957 50.2145 37.4221 50.2833 37.4221H55.3994C55.5478 37.4221 55.6791 37.3012 55.6921 37.1526C55.6981 37.0831 55.6771 37.0182 55.6327 36.9699C55.5888 36.9217 55.5265 36.8954 55.4576 36.8954H50.3416Z" fill="#407BFF"/>
<path d="M55.2826 38.8953H50.1666C50.0579 38.8953 49.9591 38.8527 49.8882 38.7753C49.8171 38.6976 49.7831 38.5949 49.7927 38.4858C49.8119 38.2668 50.0057 38.0886 50.2249 38.0886H55.3409C55.4496 38.0886 55.5484 38.1312 55.6193 38.2085C55.6904 38.2862 55.7243 38.3889 55.7148 38.498C55.6957 38.7172 55.5018 38.8953 55.2826 38.8953ZM50.2249 38.2286C50.0764 38.2286 49.9451 38.3494 49.9322 38.4981C49.926 38.5676 49.9472 38.6325 49.9914 38.6808C50.0354 38.729 50.0975 38.7553 50.1666 38.7553H55.2826C55.4311 38.7553 55.5624 38.6345 55.5753 38.4859C55.5813 38.4164 55.5603 38.3515 55.5161 38.3031C55.4721 38.2549 55.4098 38.2286 55.3409 38.2286H50.2249Z" fill="#407BFF"/>
<path d="M55.166 40.2286H50.05C49.9413 40.2286 49.8425 40.186 49.7717 40.1086C49.7005 40.0309 49.6667 39.9281 49.676 39.8191C49.6952 39.6 49.8891 39.4219 50.1082 39.4219H55.2242C55.3329 39.4219 55.4317 39.4644 55.5026 39.5417C55.5737 39.6193 55.6076 39.7222 55.5982 39.8311C55.579 40.0505 55.3852 40.2286 55.166 40.2286ZM50.1084 39.562C49.96 39.562 49.8286 39.6828 49.8156 39.8315C49.8094 39.901 49.8306 39.9658 49.875 40.0142C49.9189 40.0624 49.9812 40.0887 50.0501 40.0887H55.1661C55.3145 40.0887 55.4459 39.9679 55.4589 39.8192C55.4649 39.7498 55.4439 39.6848 55.3995 39.6365C55.3556 39.5883 55.2933 39.562 55.2244 39.562H50.1084Z" fill="#407BFF"/>
<path d="M54.8463 43.8817H49.7303C49.6217 43.8817 49.5227 43.8392 49.4519 43.7619C49.3807 43.6842 49.3469 43.5814 49.3564 43.4724C49.3756 43.2534 49.5695 43.0752 49.7886 43.0752H54.9046C55.0132 43.0752 55.1121 43.1178 55.1829 43.1952C55.254 43.2729 55.288 43.3756 55.2785 43.4847C55.2595 43.7037 55.0656 43.8817 54.8463 43.8817ZM49.7887 43.2151C49.6402 43.2151 49.5088 43.3359 49.496 43.4846C49.4899 43.554 49.5109 43.619 49.5552 43.6673C49.5991 43.7154 49.6614 43.7417 49.7303 43.7417H54.8463C54.9947 43.7417 55.1262 43.6209 55.1391 43.4722C55.1451 43.4028 55.124 43.338 55.0797 43.2895C55.0358 43.2414 54.9735 43.2151 54.9046 43.2151H49.7887Z" fill="#407BFF"/>
<path d="M54.7297 45.2151H49.6137C49.5051 45.2151 49.4062 45.1726 49.3354 45.0951C49.2643 45.0174 49.2304 44.9147 49.2398 44.8056C49.2589 44.5867 49.4528 44.4084 49.6719 44.4084H54.788C54.8966 44.4084 54.9954 44.451 55.0663 44.5283C55.1374 44.606 55.1713 44.7087 55.1618 44.8178C55.1429 45.0369 54.949 45.2151 54.7297 45.2151ZM49.6721 44.5484C49.5237 44.5484 49.3922 44.6693 49.3793 44.8179C49.3733 44.8874 49.3943 44.9522 49.4387 45.0006C49.4828 45.0488 49.545 45.0751 49.6138 45.0751H54.7299C54.8784 45.0751 55.0097 44.9543 55.0226 44.8056C55.0286 44.7362 55.0076 44.6712 54.9634 44.6229C54.9194 44.5748 54.8573 44.5484 54.7882 44.5484H49.6721Z" fill="#407BFF"/>
<path d="M54.6131 46.5482H49.4971C49.3885 46.5482 49.2895 46.5057 49.2186 46.4284C49.1475 46.3507 49.1136 46.2479 49.1232 46.1389C49.1423 45.9199 49.3362 45.7417 49.5553 45.7417H54.6714C54.78 45.7417 54.8788 45.7843 54.9497 45.8615C55.0208 45.9392 55.0548 46.042 55.0453 46.1511C55.0261 46.3702 54.8322 46.5482 54.6131 46.5482ZM49.5553 45.8816C49.4068 45.8816 49.2755 46.0024 49.2626 46.1511C49.2566 46.2205 49.2776 46.2855 49.3218 46.3338C49.3659 46.3819 49.4281 46.4082 49.497 46.4082H54.613C54.7614 46.4082 54.8928 46.2874 54.9057 46.1387C54.9117 46.0693 54.8907 46.0045 54.8464 45.956C54.8024 45.9079 54.7401 45.8816 54.6712 45.8816H49.5553Z" fill="#407BFF"/>
<path d="M57.8981 22.6475H52.7162C52.4797 22.6475 52.2648 22.5553 52.1114 22.3878C51.9569 22.2194 51.8834 21.9958 51.9043 21.7583L52.9879 9.3726C53.0302 8.8889 53.4583 8.49536 53.9421 8.49536H55.2891C55.4154 8.49536 55.5145 8.59 55.5194 8.71558L55.5211 8.75786C55.5281 8.93272 55.6665 9.06446 55.8431 9.06446H57.1235C57.3061 9.06446 57.4734 8.92754 57.5124 8.74596L57.5215 8.70382C57.5474 8.58314 57.6549 8.4955 57.7772 8.4955H59.1241C59.3607 8.4955 59.5756 8.58776 59.729 8.75534C59.8833 8.92376 59.9568 9.14734 59.9361 9.38492L58.8525 21.7706C58.8101 22.254 58.382 22.6475 57.8981 22.6475ZM53.942 8.63522C53.5289 8.63522 53.1635 8.97136 53.1272 9.38464L52.0436 21.7703C52.0262 21.9684 52.087 22.154 52.2144 22.2932C52.3411 22.4314 52.5193 22.5075 52.716 22.5075H57.898C58.3111 22.5075 58.6765 22.1714 58.7128 21.7581L59.7964 9.37246C59.8137 9.1745 59.753 8.98872 59.6256 8.8497C59.4989 8.71138 59.3207 8.63522 59.1238 8.63522H57.7769C57.722 8.63522 57.6698 8.6782 57.658 8.73294L57.6489 8.77522C57.5963 9.01994 57.3702 9.20432 57.1232 9.20432H55.8428C55.5897 9.20432 55.391 9.01476 55.3809 8.76332L55.3792 8.72104C55.3773 8.67134 55.3392 8.63522 55.2888 8.63522H53.942Z" fill="#407BFF"/>
<path d="M59.7673 10.4404H52.9585V10.5804H59.7673V10.4404Z" fill="#407BFF"/>
<path d="M58.2289 21.2005H52.7187L53.0662 17.228H58.5764L58.2289 21.2005ZM52.8713 21.0605H58.1006L58.4235 17.368H53.1944L52.8713 21.0605Z" fill="#407BFF"/>
<path d="M53.1723 17.2414L53.0875 17.3528L58.1222 21.1852L58.207 21.0738L53.1723 17.2414Z" fill="#407BFF"/>
<path d="M58.4605 17.2402L52.7554 21.0725L52.8334 21.1887L58.5386 17.3564L58.4605 17.2402Z" fill="#407BFF"/>
<path d="M58.9495 12.9646H53.4391L53.5681 11.4912H59.0783L58.9495 12.9646ZM53.5919 12.8246H58.8212L58.9256 11.6312H53.6963L53.5919 12.8246Z" fill="#407BFF"/>
<path d="M58.9879 11.4926L53.5015 12.8274L53.5346 12.9634L59.021 11.6287L58.9879 11.4926Z" fill="#407BFF"/>
<path d="M53.6489 11.4913L53.6144 11.627L58.8677 12.9602L58.9022 12.8245L53.6489 11.4913Z" fill="#407BFF"/>
<path d="M58.7818 14.8808H53.2715L53.4003 13.4075H58.9107L58.7818 14.8808ZM53.4243 14.7408H58.6536L58.758 13.5475H53.5287L53.4243 14.7408Z" fill="#407BFF"/>
<path d="M58.8189 13.4092L53.3325 14.7434L53.3656 14.8794L58.852 13.5452L58.8189 13.4092Z" fill="#407BFF"/>
<path d="M53.4813 13.4075L53.4469 13.5432L58.7002 14.8765L58.7346 14.7408L53.4813 13.4075Z" fill="#407BFF"/>
<path d="M58.6142 16.7971H53.1038L53.2328 15.3237H58.743L58.6142 16.7971ZM53.2567 16.6571H58.486L58.5904 15.4637H53.361L53.2567 16.6571Z" fill="#407BFF"/>
<path d="M58.6526 15.3254L53.1662 16.6602L53.1993 16.7962L58.6857 15.4614L58.6526 15.3254Z" fill="#407BFF"/>
<path d="M53.3137 15.3238L53.2793 15.4595L58.5326 16.7927L58.567 16.657L53.3137 15.3238Z" fill="#407BFF"/>
<path d="M57.1026 29.0152C55.8683 29.0152 54.8639 28.0108 54.8639 26.7764C54.8639 25.5421 55.8681 24.5378 57.1026 24.5378C58.3372 24.5378 59.3414 25.5421 59.3414 26.7764C59.3412 28.0108 58.337 29.0152 57.1026 29.0152ZM57.1026 24.6778C55.9454 24.6778 55.0039 25.6193 55.0039 26.7764C55.0039 27.9337 55.9454 28.8752 57.1026 28.8752C58.2599 28.8752 59.2014 27.9337 59.2014 26.7764C59.2012 25.6192 58.2599 24.6778 57.1026 24.6778Z" fill="#407BFF"/>
<path d="M56.7165 28.0722L55.6728 26.6911L55.7845 26.6067L56.6609 27.7663C57.0672 26.4718 57.8954 25.3336 59.0047 24.5501L59.3163 24.3298L59.3971 24.4441L59.0854 24.6643C57.9643 25.4564 57.1368 26.619 56.7553 27.9378L56.7165 28.0722Z" fill="#407BFF"/>
<path d="M41.6035 10.5916H37.9682L34.3021 52.495H37.9375C39.6225 52.495 41.1081 51.129 41.2555 49.4438L44.3877 13.6426C44.5351 11.9575 43.2886 10.5916 41.6035 10.5916Z" fill="#263238"/>
<path d="M37.1931 52.495H22.2144C20.5293 52.495 19.2828 51.129 19.4302 49.4439L22.5624 13.6427C22.7098 11.9577 24.1954 10.5916 25.8804 10.5916H40.8591C42.5442 10.5916 43.7907 11.9575 43.6433 13.6427L40.5111 49.4439C40.3637 51.129 38.8781 52.495 37.1931 52.495Z" fill="#407BFF"/>
<path d="M40.7979 11.2915H36.9047C36.6497 11.2915 36.4179 11.4811 36.3634 11.7339L36.3372 11.8558C36.2044 12.4735 35.6382 12.9364 35.0154 12.9364H31.314C30.6913 12.9364 30.2061 12.4735 30.1813 11.8558L30.1764 11.7339C30.1662 11.4809 29.9675 11.2915 29.7126 11.2915H25.8193C24.5208 11.2915 23.3762 12.3442 23.2625 13.6427L20.1303 49.4439C20.0166 50.7424 20.9772 51.7949 22.2757 51.7949H37.2544C38.5529 51.7949 39.6975 50.7422 39.8112 49.4439L42.9434 13.6427C43.0568 12.3442 42.0964 11.2915 40.7979 11.2915Z" fill="white"/>
<g opacity="0.2">
<path d="M32.3678 11.6881C32.3534 11.8525 32.2086 11.9856 32.0443 11.9856C31.8799 11.9856 31.7584 11.8525 31.7728 11.6881C31.7872 11.5238 31.932 11.3906 32.0964 11.3906C32.2607 11.3906 32.3822 11.5239 32.3678 11.6881Z" fill="#070D29"/>
<path d="M34.5032 11.3906C34.3856 11.3906 33.6008 11.3906 33.4832 11.3906C33.3188 11.3906 33.1741 11.5238 33.1597 11.6881C33.1452 11.8525 33.2669 11.9856 33.4311 11.9856C33.5332 11.9856 34.3491 11.9856 34.4512 11.9856C34.6155 11.9856 34.7603 11.8525 34.7747 11.6881C34.7891 11.5239 34.6676 11.3906 34.5032 11.3906Z" fill="#070D29"/>
</g>
<path d="M24.955 12.9305H25.27L25.2976 12.6155H24.9826L24.955 12.9305Z" fill="#263238"/>
<path d="M25.6126 12.6155L25.585 12.9305H25.9L25.9276 12.6155L25.9552 12.3005H25.6402L25.6126 12.6155Z" fill="#263238"/>
<path d="M26.2978 11.9856L26.2702 12.3006L26.2426 12.6156L26.215 12.9306H26.53L26.5576 12.6156L26.5852 12.3006L26.6128 11.9856H26.2978Z" fill="#263238"/>
<path d="M39.8419 12.0066L39.8217 12.2376H39.6677L39.6273 12.6996H39.7813L39.7611 12.9306H41.1471L41.2279 12.0066H39.8419ZM40.3973 12.6996H39.9353L39.9757 12.2376H40.4377L40.3973 12.6996Z" fill="#263238"/>
<path opacity="0.8" d="M39.2136 36.9756H18.9538L20.6583 17.4932H40.9181L39.2136 36.9756Z" fill="#263238"/>
<path d="M38.678 36.3887H18.4182L20.1227 16.9062H40.3825L38.678 36.3887Z" fill="#407BFF"/>
<g opacity="0.8">
<path d="M38.678 36.3887H18.4182L20.1227 16.9062H40.3825L38.678 36.3887Z" fill="white"/>
<path d="M38.7421 36.4586H18.3419L18.3484 36.3824L20.0585 16.8362H40.4588L38.7421 36.4586ZM18.4946 36.3186H38.614L40.3062 16.9762H20.1868L18.4946 36.3186Z" fill="#407BFF"/>
</g>
<path opacity="0.8" d="M37.5506 31.023H20.4844L21.5753 18.5542H38.6415L37.5506 31.023Z" fill="white"/>
<path d="M37.6147 31.0929H20.4081L21.5112 18.4841H38.7179L37.6147 31.0929ZM20.5609 30.9529H37.4865L38.565 18.6241H21.6394L20.5609 30.9529Z" fill="#407BFF"/>
<path d="M21.6188 18.4997L21.5327 18.6101L37.5077 31.0792L37.5938 30.9689L21.6188 18.4997Z" fill="#407BFF"/>
<path d="M38.6025 18.4937L20.4487 30.9692L20.528 31.0846L38.6818 18.6091L38.6025 18.4937Z" fill="#407BFF"/>
<path d="M27.1009 32.8487C27.0699 33.2041 26.7565 33.4922 26.4011 33.4922C26.0456 33.4922 25.7827 33.2041 25.8138 32.8487C25.8449 32.4932 26.1582 32.2051 26.5136 32.2051C26.8691 32.2052 27.132 32.4933 27.1009 32.8487Z" fill="#407BFF"/>
<path d="M29.5012 32.8487C29.4701 33.2041 29.1568 33.4922 28.8013 33.4922C28.4459 33.4922 28.183 33.2041 28.2142 32.8487C28.2453 32.4932 28.5586 32.2051 28.914 32.2051C29.2695 32.2052 29.5324 32.4933 29.5012 32.8487Z" fill="#407BFF"/>
<path d="M31.9017 32.8487C31.8706 33.2041 31.5573 33.4922 31.2018 33.4922C30.8463 33.4922 30.5834 33.2041 30.6145 32.8487C30.6456 32.4932 30.9589 32.2051 31.3144 32.2051C31.67 32.2052 31.9329 32.4933 31.9017 32.8487Z" fill="#407BFF"/>
<path d="M26.9444 47.3632H17.458L18.2561 38.241H27.7425L26.9444 47.3632Z" fill="#407BFF"/>
<g opacity="0.8">
<path d="M26.9444 47.3632H17.458L18.2561 38.241H27.7425L26.9444 47.3632Z" fill="white"/>
<path d="M27.0085 47.4333H17.3817L18.192 38.1709H27.8189L27.0085 47.4333ZM17.5345 47.2933H26.8803L27.6661 38.3109H18.3203L17.5345 47.2933Z" fill="#407BFF"/>
</g>
<path d="M26.4165 44.851H18.4255L18.9363 39.0127H26.9272L26.4165 44.851Z" fill="white"/>
<path d="M26.4806 44.9209H18.3491L18.8722 38.9426H27.0038L26.4806 44.9209ZM18.5019 44.7809H26.3524L26.8509 39.0826H19.0004L18.5019 44.7809Z" fill="#407BFF"/>
<path d="M18.9795 38.9586L18.8932 39.0691L26.3734 44.9076L26.4596 44.7972L18.9795 38.9586Z" fill="#407BFF"/>
<path d="M26.8894 38.9549L18.3891 44.7964L18.4684 44.9118L26.9687 39.0703L26.8894 38.9549Z" fill="#407BFF"/>
<path d="M21.5236 45.7058C21.509 45.8723 21.3623 46.0071 21.1959 46.0071C21.0294 46.0071 20.9063 45.8721 20.9209 45.7058C20.9355 45.5394 21.0822 45.4045 21.2486 45.4045C21.415 45.4045 21.5382 45.5394 21.5236 45.7058Z" fill="#407BFF"/>
<path d="M22.6475 45.7058C22.633 45.8723 22.4862 46.0071 22.3198 46.0071C22.1533 46.0071 22.0302 45.8721 22.0448 45.7058C22.0594 45.5394 22.2061 45.4045 22.3726 45.4045C22.539 45.4045 22.6621 45.5394 22.6475 45.7058Z" fill="#407BFF"/>
<path d="M23.7715 45.7058C23.7569 45.8723 23.6102 46.0071 23.4437 46.0071C23.2773 46.0071 23.1542 45.8721 23.1688 45.7058C23.1833 45.5394 23.3301 45.4045 23.4965 45.4045C23.663 45.4045 23.786 45.5394 23.7715 45.7058Z" fill="#407BFF"/>
<path d="M37.7178 47.3632H28.2314L29.0296 38.241H38.516L37.7178 47.3632Z" fill="#407BFF"/>
<g opacity="0.8">
<path d="M37.7178 47.3632H28.2314L29.0296 38.241H38.516L37.7178 47.3632Z" fill="white"/>
<path d="M37.782 47.4333H28.1552L28.9655 38.1709H38.5923L37.782 47.4333ZM28.3079 47.2933H37.6537L38.4396 38.3109H29.0937L28.3079 47.2933Z" fill="#407BFF"/>
</g>
<path d="M37.1899 44.851H29.199L29.7097 39.0127H37.7008L37.1899 44.851Z" fill="white"/>
<path d="M37.254 44.9209H29.1226L29.6456 38.9426H37.7772L37.254 44.9209ZM29.2754 44.7809H37.1259L37.6245 39.0826H29.7738L29.2754 44.7809Z" fill="#407BFF"/>
<path d="M29.7532 38.9589L29.6669 39.0693L37.147 44.9079L37.2333 44.7974L29.7532 38.9589Z" fill="#407BFF"/>
<path d="M37.6634 38.9546L29.1631 44.7961L29.2424 44.9115L37.7427 39.07L37.6634 38.9546Z" fill="#407BFF"/>
<path d="M32.297 45.7058C32.2825 45.8723 32.1358 46.0071 31.9693 46.0071C31.8028 46.0071 31.6798 45.8721 31.6943 45.7058C31.7089 45.5394 31.8556 45.4045 32.0221 45.4045C32.1885 45.4045 32.3116 45.5394 32.297 45.7058Z" fill="#407BFF"/>
<path d="M33.4209 45.7058C33.4064 45.8723 33.2597 46.0071 33.0932 46.0071C32.9267 46.0071 32.8037 45.8721 32.8182 45.7058C32.8328 45.5394 32.9795 45.4045 33.146 45.4045C33.3124 45.4045 33.4355 45.5394 33.4209 45.7058Z" fill="#407BFF"/>
<path d="M34.5449 45.7058C34.5303 45.8723 34.3836 46.0071 34.2172 46.0071C34.0507 46.0071 33.9276 45.8721 33.9422 45.7058C33.9568 45.5394 34.1035 45.4045 34.27 45.4045C34.4364 45.4045 34.5595 45.5394 34.5449 45.7058Z" fill="#407BFF"/>
<path d="M37.5474 16.0983H27.5211L27.6387 14.7554H37.665L37.5474 16.0983Z" fill="#407BFF"/>
<path d="M26.4135 15.7976H24.8635V15.9376H26.4135V15.7976Z" fill="#263238"/>
<path d="M26.4593 15.2742H24.9092V15.4142H26.4593V15.2742Z" fill="#263238"/>
<path d="M26.5051 14.751H24.955V14.891H26.5051V14.751Z" fill="#263238"/>
<g opacity="0.2">
<path d="M31.3249 12.9365L20.985 51.3844C21.3401 51.6432 21.7833 51.7949 22.2757 51.7949H23.0841L33.5344 12.9365H31.3249Z" fill="white"/>
<path d="M40.798 11.2915H36.9047C36.6498 11.2915 36.4179 11.4811 36.3635 11.734L36.3373 11.856C36.2078 12.4578 35.6668 12.9113 35.0633 12.9344L24.6123 51.7948H32.5835L42.9436 13.271C42.8634 12.1496 41.9696 11.2915 40.798 11.2915Z" fill="white"/>
</g>
<path d="M42.8995 13.9595H23.2255V14.1695H42.8995V13.9595Z" fill="#407BFF"/>
<path d="M44.6153 19.0089C44.6361 18.9657 44.6586 18.9207 44.6982 18.8938C44.729 18.8728 44.7668 18.8655 44.8034 18.8585C45.0867 18.8047 45.3824 18.7514 45.6599 18.8301C45.6805 18.836 45.702 18.8432 45.715 18.8602C45.7262 18.8747 45.729 18.8938 45.7316 18.912C45.7531 19.0698 45.7745 19.2275 45.7961 19.3853C45.8009 19.4203 45.8055 19.4569 45.7932 19.4899C45.7808 19.5229 45.7533 19.5477 45.7268 19.571C45.5914 19.6901 45.0192 20.0516 44.9295 20.0703C44.7917 20.099 44.3579 19.9592 44.2285 19.9037C44.081 19.8407 44.4886 19.2715 44.6153 19.0089Z" fill="#CB7A63"/>
<path d="M41.4663 23.8106C41.5922 22.8124 43.8229 20.1202 44.1161 19.7304C44.2793 19.5135 44.9571 19.6744 45.0926 20.0863C44.4842 20.9313 44.148 21.6448 43.7312 22.599C43.6345 22.8202 43.1873 23.69 43.0469 23.8864C41.9203 25.4616 41.4116 24.2447 41.4663 23.8106Z" fill="#407BFF"/>
<g opacity="0.1">
<path d="M41.4663 23.8106C41.5922 22.8124 43.8229 20.1202 44.1161 19.7304C44.2793 19.5135 44.9571 19.6744 45.0926 20.0863C44.4842 20.9313 44.148 21.6448 43.7312 22.599C43.6345 22.8202 43.1873 23.69 43.0469 23.8864C41.9203 25.4616 41.4116 24.2447 41.4663 23.8106Z" fill="#070D29"/>
</g>
<path d="M49.5113 26.1899C49.5113 26.1899 48.8021 26.1997 48.5821 26.3943L48.2752 26.6658C48.2153 26.7189 48.2106 26.8111 48.265 26.8722C48.4305 27.0575 48.792 27.4203 49.1967 27.5638C49.2888 27.5964 49.3905 27.5786 49.4638 27.5169C49.4638 27.5169 49.953 26.9044 49.8754 26.7786L49.5113 26.1899Z" fill="#CB7A63"/>
<path d="M51.3817 26.2574C51.3183 26.2919 51.2535 26.3263 51.1871 26.3605L50.1857 26.7313C49.5043 27.065 49.4524 26.2243 49.4524 26.2243L49.7257 25.9875L51.5843 24.4437C51.5843 24.4437 49.8542 23.1612 48.7336 22.0793C47.8896 21.1075 48.0007 20.4724 48.9928 20.579C49.7052 20.6541 52.9756 23.709 53.2602 24.0363C53.5541 24.3754 52.8982 25.4261 51.3817 26.2574Z" fill="#407BFF"/>
<path opacity="0.1" d="M51.3817 26.2574C51.3183 26.2919 51.2535 26.3263 51.1871 26.3605L50.1857 26.7313C49.5043 27.065 49.4524 26.2243 49.4524 26.2243L49.7257 25.9875L51.5843 24.4437C51.5843 24.4437 49.8542 23.1612 48.7336 22.0793C47.8896 21.1075 48.0007 20.4724 48.9928 20.579C49.7052 20.6541 52.9756 23.709 53.2602 24.0363C53.5541 24.3754 52.8982 25.4261 51.3817 26.2574Z" fill="#070D29"/>
<path d="M51.917 22.8894C51.9115 22.8842 51.9059 22.879 51.9005 22.8723C51.9005 22.8723 51.906 22.8775 51.917 22.8894Z" fill="#263238"/>
<path d="M45.4461 16.6346C45.3886 16.6248 45.3288 16.6858 45.312 16.7729C45.2952 16.86 45.327 16.9406 45.3845 16.9504C45.442 16.9602 45.5018 16.8992 45.5186 16.8121C45.5398 16.7221 45.5036 16.6444 45.4461 16.6346Z" fill="#263238"/>
<path d="M45.2912 17.7879C45.1405 17.7973 44.9932 17.7394 44.8892 17.63C45.1053 17.4341 45.2938 17.2098 45.4494 16.9631L45.2912 17.7879Z" fill="#B74D3C"/>
<path d="M45.8942 16.3797C45.8074 16.2779 45.6769 16.2245 45.5438 16.2359C45.5383 16.2379 45.5325 16.239 45.5267 16.239C45.4975 16.2394 45.4734 16.2161 45.473 16.1868C45.4725 16.1575 45.4959 16.1335 45.5252 16.133C45.6915 16.1139 45.8567 16.1764 45.9687 16.3009C45.9772 16.3103 45.9821 16.3223 45.9826 16.3349C45.9835 16.3642 45.9606 16.3887 45.9313 16.3897C45.918 16.3912 45.9047 16.3877 45.8942 16.3797Z" fill="#263238"/>
<path d="M46.5798 21.6665C48.0763 21.6515 48.2884 20.8325 48.2884 20.8325C47.835 20.4067 47.796 19.6089 47.876 18.895C47.7654 19.0583 47.6256 19.2011 47.4397 19.3297C47.0866 19.5723 46.7006 19.6282 46.3485 19.5485C46.3422 19.5485 46.3361 19.5466 46.3298 19.5425C46.334 19.5571 46.3363 19.5715 46.3384 19.5861C46.4398 20.1546 46.3732 20.7664 45.7784 20.9574C45.7784 20.9574 44.9314 21.6828 46.5798 21.6665Z" fill="#CB7A63"/>
<path d="M46.2841 19.3327C46.3015 19.4012 46.3187 19.4696 46.3299 19.5421C46.3362 19.5462 46.3424 19.5483 46.3487 19.5482C46.7008 19.6278 47.0869 19.572 47.4398 19.3293C47.6256 19.2007 47.7656 19.058 47.8762 18.8946C47.8952 18.7136 47.9246 18.5367 47.9542 18.3743L46.3442 19.2988L46.2841 19.3327Z" fill="#CB7A63"/>
<path d="M48.4434 20.7674C48.4434 20.7674 48.2174 20.1167 47.8929 19.9165C47.5684 19.7162 46.1671 19.9602 45.9486 20.0509C45.7302 20.1416 45.5185 20.654 45.5185 20.654L48.4434 20.7674Z" fill="#407BFF"/>
<path opacity="0.8" d="M48.4434 20.7674C48.4434 20.7674 48.2174 20.1167 47.8929 19.9165C47.5684 19.7162 46.1671 19.9602 45.9486 20.0509C45.7302 20.1416 45.5185 20.654 45.5185 20.654L48.4434 20.7674Z" fill="white"/>
<path d="M46.6064 52.9521C46.4658 52.9522 46.3408 52.9343 46.2977 52.8726C46.2747 52.8404 46.2752 52.797 46.2987 52.7646C46.3162 52.7348 46.3454 52.7138 46.3793 52.7071C46.554 52.6592 46.9207 52.8675 46.9404 52.8759C46.9491 52.8811 46.9536 52.8912 46.9515 52.9011C46.9504 52.9118 46.9423 52.9204 46.9316 52.9223C46.8241 52.9414 46.7153 52.9514 46.6064 52.9521ZM46.4406 52.7491C46.4248 52.7468 46.4087 52.7468 46.3929 52.7492C46.3719 52.7527 46.3537 52.7658 46.3433 52.7844C46.3263 52.8153 46.3317 52.8293 46.3429 52.8391C46.3916 52.9063 46.6574 52.9073 46.8529 52.8804C46.7258 52.8093 46.5857 52.7638 46.4406 52.7464V52.7491Z" fill="#407BFF"/>
<path d="M46.9245 52.9196H46.9147C46.7871 52.8624 46.5371 52.6398 46.5578 52.518C46.5581 52.49 46.5821 52.455 46.651 52.4478C46.7017 52.4418 46.7525 52.4569 46.7912 52.4896C46.9309 52.6 46.9515 52.8817 46.9527 52.8943C46.9525 52.9031 46.9483 52.9112 46.9413 52.9167C46.9362 52.9198 46.9302 52.9207 46.9245 52.9196ZM46.6702 52.4995H46.6562C46.6113 52.4996 46.6083 52.522 46.6068 52.5276C46.595 52.599 46.7637 52.7768 46.8939 52.8551C46.882 52.7354 46.8337 52.6225 46.7558 52.5315C46.7322 52.5086 46.7006 52.4956 46.6676 52.4953L46.6702 52.4995Z" fill="#407BFF"/>
<path d="M47.9872 50.4761L46.9414 50.4776L47.0302 52.8942L48.082 52.8926L47.9872 50.4761Z" fill="#CB7A63"/>
<path d="M46.783 52.8552C46.0676 53.2942 45.8478 53.3142 45.0208 53.4955C44.84 53.5351 44.9547 53.9731 45.3874 53.9724C46.1037 53.9714 46.1787 53.9374 46.7891 53.9365C47.3122 53.9357 47.9126 53.9588 48.3284 53.9652C48.3412 53.9654 48.3539 53.964 48.3665 53.961C48.4484 53.9414 48.4992 53.8592 48.4799 53.7775L48.2762 52.8431C48.2665 52.8014 48.2294 52.7719 48.1865 52.7717L47.0365 52.7734C46.9463 52.7768 46.8584 52.805 46.783 52.8552Z" fill="#263238"/>
<path opacity="0.2" d="M47.9886 50.4773L48.0363 51.8252L46.9861 51.8268L46.9414 50.4788L47.9886 50.4773Z" fill="#070D29"/>
<path d="M55.7981 52.5171C55.7849 52.3717 55.7908 52.2411 55.8493 52.1899C55.8811 52.163 55.9269 52.1595 55.9631 52.1809C55.9946 52.1969 56.0187 52.2243 56.0303 52.2576C56.0978 52.4338 55.9179 52.833 55.9095 52.8528C55.9059 52.8631 55.8954 52.8694 55.8845 52.8679C55.8738 52.8669 55.8649 52.8595 55.8622 52.8491C55.831 52.7402 55.8097 52.6292 55.7981 52.5171ZM55.9939 52.3262C55.9949 52.3097 55.9934 52.2931 55.9895 52.2768C55.9839 52.2554 55.9687 52.2378 55.9484 52.2288C55.9147 52.2138 55.8993 52.221 55.8916 52.2331C55.8262 52.2894 55.8511 52.5641 55.9001 52.7639C55.9591 52.6257 55.991 52.477 55.9939 52.3262Z" fill="#407BFF"/>
<path d="M55.8598 52.842C55.8591 52.8387 55.8587 52.8353 55.859 52.8318C55.9055 52.6963 56.1153 52.4164 56.241 52.4255C56.2702 52.4233 56.3089 52.4451 56.3227 52.5143C56.3343 52.5662 56.3232 52.6203 56.2921 52.6631C56.193 52.8174 55.9001 52.8651 55.8885 52.8675C55.8796 52.8697 55.87 52.8665 55.8642 52.8591C55.8605 52.8543 55.8588 52.848 55.8598 52.842ZM56.2735 52.54C56.2735 52.54 56.2725 52.5298 56.2721 52.5241C56.2678 52.4776 56.2443 52.4765 56.2384 52.4769C56.1629 52.471 55.9951 52.6628 55.927 52.8044C56.0501 52.7813 56.1626 52.7213 56.2497 52.6327C56.2696 52.606 56.2797 52.5732 56.278 52.5398L56.2735 52.54Z" fill="#407BFF"/>
<path d="M55.1146 50.4612L54.0948 50.5348L54.6966 52.9711L55.7237 52.8966L55.1146 50.4612Z" fill="#CB7A63"/>
<path d="M55.9721 52.6996C56.2911 53.0165 56.4592 53.1796 57.3203 53.377C57.51 53.4195 57.3863 53.8738 56.9344 53.8692C56.1872 53.8611 56.596 53.8307 55.9597 53.8244C55.4151 53.8182 54.9391 53.8261 54.5059 53.829C54.4914 53.8296 54.4768 53.8283 54.4625 53.825C54.3763 53.8048 54.322 53.7188 54.3414 53.6329L54.5598 52.6621C54.5691 52.6184 54.6084 52.5876 54.6533 52.5889L55.7008 52.6124C55.799 52.6044 55.8965 52.6358 55.9721 52.6996Z" fill="#263238"/>
<path opacity="0.2" d="M55.116 50.4626L55.4279 51.7137L54.4051 51.7877L54.0948 50.5349L55.116 50.4626Z" fill="#070D29"/>
<path d="M49.5815 29.2419C49.5815 29.2419 50.154 30.1171 50.5498 31.189C51.1095 32.705 50.911 33.4977 51.0983 34.5236C51.4281 36.3303 51.9215 37.7161 52.2673 39.0865C53.3477 43.375 55.6295 50.9893 55.6295 50.9893L53.7856 51.3955C53.7856 51.3955 50.3661 42.3156 49.3959 39.2484C48.5212 36.4878 46.2775 29.2349 46.2775 29.2349L49.5815 29.2419Z" fill="#407BFF"/>
<path opacity="0.4" d="M49.5815 29.2419C49.5815 29.2419 50.154 30.1171 50.5498 31.189C51.1095 32.705 50.911 33.4977 51.0983 34.5236C51.4281 36.3303 51.9215 37.7161 52.2673 39.0865C53.3477 43.375 55.6295 50.9893 55.6295 50.9893L53.7856 51.3955C53.7856 51.3955 50.3661 42.3156 49.3959 39.2484C48.5212 36.4878 46.2775 29.2349 46.2775 29.2349L49.5815 29.2419Z" fill="#070D29"/>
<path d="M55.8459 50.6487L55.8652 51.3047L53.6441 51.5448C53.6441 51.5448 53.4472 50.8286 53.4556 50.8286L55.8459 50.6487Z" fill="#407BFF"/>
<path opacity="0.8" d="M55.8459 50.6487L55.8652 51.3047L53.6441 51.5448C53.6441 51.5448 53.4472 50.8286 53.4556 50.8286L55.8459 50.6487Z" fill="white"/>
<path opacity="0.3" d="M47.3143 32.5775C48.0214 34.8542 48.917 37.7355 49.3945 39.2472C49.4175 39.3202 49.4431 39.3958 49.4673 39.4765C49.2794 36.9514 48.784 32.719 47.5143 32.5632C47.4474 32.5531 47.379 32.558 47.3143 32.5775Z" fill="#070D29"/>
<path d="M47.8807 29.2327C47.8807 29.2327 48.4202 36.1902 48.4813 39.4794C48.5377 42.5448 48.312 51.4777 48.312 51.4777L46.535 51.4803C46.535 51.4803 45.6865 42.3612 45.3716 39.2481C45.0721 36.3006 44.2949 29.295 44.2949 29.295L47.8807 29.2327Z" fill="#407BFF"/>
<path opacity="0.4" d="M47.8807 29.2327C47.8807 29.2327 48.4202 36.1902 48.4813 39.4794C48.5377 42.5448 48.312 51.4777 48.312 51.4777L46.535 51.4803C46.535 51.4803 45.6865 42.3612 45.3716 39.2481C45.0721 36.3006 44.2949 29.295 44.2949 29.295L47.8807 29.2327Z" fill="#070D29"/>
<path d="M48.5761 50.8541L48.5152 51.5066L46.354 51.5098C46.354 51.5098 46.2523 50.7783 46.2607 50.7783L48.5761 50.8541Z" fill="#407BFF"/>
<path opacity="0.8" d="M48.5761 50.8541L48.5152 51.5066L46.354 51.5098C46.354 51.5098 46.2523 50.7783 46.2607 50.7783L48.5761 50.8541Z" fill="white"/>
<path d="M51.3262 31.4539L50.8297 31.3106C50.0332 31.0796 49.1914 31.0544 48.383 31.2375L47.8016 29.91L47.9794 31.3065L47.7245 31.3012C46.9903 31.284 46.2615 31.4326 45.5924 31.7339C45.2367 31.8945 44.9233 32.0313 44.9221 32.0127C44.9221 31.9702 44.2954 29.2951 44.2954 29.2951C43.6583 24.9554 43.7632 22.7582 43.9543 21.6882C44.0579 21.1148 44.5039 20.6647 45.0773 20.5572C45.2938 20.5173 45.5367 20.4789 45.7849 20.4536C46.5324 20.4032 47.2823 20.3952 48.0311 20.431C48.0378 20.4323 48.5197 20.4683 48.5262 20.4683C49.3095 20.5094 50.1113 21.1719 49.9706 21.9446C49.5006 24.5094 49.4224 26.3852 49.4542 27.6211L51.3262 31.4539Z" fill="#407BFF"/>
<path opacity="0.2" d="M43.8353 25.199C43.8353 25.199 43.82 23.0617 43.8409 22.6645L45.433 21.5698C45.1399 22.0937 44.4118 23.233 43.8353 25.199Z" fill="#070D29"/>
<path d="M45.1871 18.1341C45.2092 18.6869 45.5214 19.1473 45.9501 19.3925H45.9522C45.9543 19.3946 45.9564 19.3944 45.9585 19.3944C46.0736 19.464 46.1987 19.5126 46.3301 19.5424C46.3364 19.5465 46.3425 19.5486 46.3488 19.5484C46.7009 19.6281 47.087 19.5722 47.44 19.3296C47.6258 19.2009 47.7658 19.0583 47.8764 18.8949C48.1613 18.4867 48.2721 17.9472 48.4663 17.1886C48.5264 16.9656 48.5345 16.7306 48.4886 16.5045C48.3246 15.6955 47.5357 15.1733 46.7288 15.3372C45.5959 15.5628 45.1437 17.1243 45.1871 18.1341Z" fill="#CB7A63"/>
<path opacity="0.2" d="M45.9584 19.3945C46.0735 19.464 46.1986 19.5126 46.3299 19.5424C46.3362 19.5465 46.2755 18.8779 46.2755 18.8779C46.2795 18.8667 46.0375 19.3936 45.9584 19.3945Z" fill="#070D29"/>
<path d="M49.7828 17.3594C49.6619 17.516 49.504 17.6807 49.3062 17.6979C49.1907 17.7085 49.0739 17.6887 48.9677 17.6448C48.6173 18.2515 47.8751 18.8953 47.8751 18.8953C47.6879 18.9658 47.4915 19.0016 47.2937 19.0016C47.0879 19.0016 46.8808 18.9618 46.6857 18.8848C46.6232 18.8596 46.5782 18.8423 46.5714 18.841C46.517 18.8291 46.2356 17.6448 45.8426 17.4644C45.755 17.422 45.755 17.422 45.755 17.422C45.7816 17.2972 45.7417 16.952 45.8637 16.8338C45.9301 16.7701 45.7496 16.6055 45.7629 16.4807C45.7642 16.4701 45.7656 16.4609 45.7683 16.4502C45.6434 16.3718 45.6347 16.2033 45.6819 16.0241C45.8009 15.5731 46.039 15.6962 46.039 15.6962C46.039 15.6962 45.9129 15.5475 45.9594 15.2886C46.0085 15.031 46.4904 14.9023 46.4904 14.9023C46.4904 14.9023 46.5541 14.9129 46.6616 14.9354C46.7704 14.8492 46.9112 14.8027 47.0505 14.8119C47.2363 14.8226 47.4726 14.95 47.567 15.1107C47.7183 14.9899 47.9334 14.9514 48.1166 15.0138C48.3011 15.0749 48.4498 15.2342 48.4976 15.4228C48.6755 15.3552 48.8627 15.4268 49.002 15.5569C49.1414 15.6857 49.1984 15.8967 49.1453 16.0787C49.2834 16.1264 49.3737 16.2247 49.3896 16.3694C49.4056 16.5142 49.3724 16.6602 49.3538 16.8048C49.3352 16.9496 49.3352 17.1049 49.4095 17.231C49.4841 17.3553 49.6566 17.4323 49.7828 17.3594Z" fill="#263238"/>
<path d="M46.2633 16.7439C45.9505 16.8427 45.7962 17.3097 45.7888 17.6042C45.7803 17.9297 46.0018 18.1308 46.2808 17.907C46.4908 17.7348 46.6385 17.4985 46.7011 17.2343C46.7716 16.914 46.5759 16.6451 46.2633 16.7439Z" fill="#CB7A63"/>
<path d="M43.5869 21.6538C43.5869 21.6538 43.5869 21.6538 41.6119 23.8964C41.3387 24.5317 42.2851 25.2315 42.9547 24.6107L45.3238 21.8817C45.495 21.5091 45.5184 21.2013 45.2668 20.9538C44.936 20.6278 44.3554 20.4201 43.5869 21.6538Z" fill="#407BFF"/>
<path d="M16.6058 25.9272C17.5129 26.8999 18.0574 27.3821 18.3966 27.6491C18.7648 27.939 21.9151 26.022 22.3058 25.8039C22.3058 25.8039 21.9538 25.4565 21.808 25.4938C21.2579 25.6339 18.8043 26.4803 18.8043 26.4803C18.6897 26.4448 17.5574 25.145 17.5574 25.145L16.6058 25.9272Z" fill="#B97964"/>
<path d="M22.7137 25.321L22.7041 25.3141L22.7157 25.3245C22.7157 25.3245 22.4358 25.7832 22.0543 25.8975L21.7659 25.6152L21.8966 24.7771L21.904 24.7264L21.9345 24.6964L22.3289 24.3129C22.4094 24.2347 22.5373 24.2346 22.618 24.3125L22.9138 24.5984C22.9792 24.6616 22.9958 24.7597 22.9551 24.8409L22.7137 25.321Z" fill="#B97964"/>
<path d="M18.2916 25.554C17.4885 24.4088 16.0768 23.6608 15.6747 23.655C15.0954 23.6452 14.916 23.7796 15.1351 24.2204C15.5068 24.9678 16.1223 25.73 16.9705 26.6403L18.2916 25.554Z" fill="#263238"/>
<path d="M16.0069 23.7116C15.6776 23.5933 15.5401 23.5496 15.0193 23.4148C14.4078 23.2679 13.7871 23.1656 13.1615 23.1085C12.7658 23.0638 12.3756 23.0502 12.0646 23.0479C12.0275 23.0477 11.9903 23.0518 11.9539 23.0599C11.6731 23.1229 11.4913 23.412 11.5482 23.7059C12.1632 26.955 12.1926 28.3963 12.104 30.0698L15.8442 30.2034C15.94 30.2068 16.0236 30.1354 16.043 30.0357C16.2084 29.1922 16.7265 27.3184 16.7265 27.3184C17.254 26.9455 17.2313 26.5164 17.094 25.9664C17.051 25.7942 16.9509 25.6292 16.5262 24.7C16.5262 24.7003 16.1991 23.782 16.0069 23.7116Z" fill="#263238"/>
<path d="M13.6427 30.1244L15.0066 30.1741C15.2101 28.5555 15.1068 27.3474 15.1007 25.5098C15.1064 27.2255 14.1226 29.2903 13.6427 30.1244Z" fill="white"/>
<path d="M15.0571 30.7771C15.0571 30.7771 16.7381 39.0941 16.6524 42.5414C16.5616 46.1732 15.8499 52.4249 15.8499 52.4249L14.9629 52.4156C14.9629 52.4156 14.1666 47.787 14.6226 42.7099C12.2994 37.6197 11.6964 31.1043 11.6964 31.1043L15.0571 30.7771Z" fill="#B97964"/>
<path d="M15.0571 30.7771C15.0571 30.7771 16.7381 39.0941 16.6524 42.5414C16.5616 46.1732 15.8499 52.4249 15.8499 52.4249L14.9629 52.4156C14.9629 52.4156 14.1666 47.787 14.6226 42.7099C12.2994 37.6197 11.6964 31.1043 11.6964 31.1043L15.0571 30.7771Z" fill="#A86955"/>
<path d="M14.302 32.828C14.302 32.828 14.7403 39.3373 14.2838 42.7554C13.8023 46.3562 12.4216 52.495 12.4216 52.495L11.5407 52.3902C11.5407 52.3902 11.2474 47.7028 12.2476 42.7043C10.4861 37.3937 10.9256 32.7915 10.9256 32.7915L14.302 32.828Z" fill="#B97964"/>
<path d="M14.302 32.828C14.302 32.828 14.7403 39.3373 14.2838 42.7554C13.8023 46.3562 12.4216 52.495 12.4216 52.495L11.5407 52.3902C11.5407 52.3902 11.2474 47.7028 12.2476 42.7043C10.4861 37.3937 10.9256 32.7915 10.9256 32.7915L14.302 32.828Z" fill="#B97964"/>
<path d="M10.9563 40.3118C11.4888 40.4235 12.3159 40.658 13.714 40.7941C13.7416 40.7959 13.7691 40.799 13.7978 40.8008C13.8565 40.8071 13.9177 40.8112 13.9812 40.8141C14.3571 40.834 16.8718 41.1602 17.0456 40.125C17.0456 40.125 16.5043 37.5601 15.9831 34.7128C15.6673 32.9873 15.9246 30.5604 15.9246 30.5604C14.834 30.4321 13.7334 30.3996 12.6368 30.4632L11.9988 30.5002C11.9988 30.5002 9.84256 32.6342 10.3781 34.7466C11.1797 37.9078 10.9563 40.3118 10.9563 40.3118Z" fill="#407BFF"/>
<g opacity="0.4">
<path d="M10.9563 40.3118C11.4888 40.4235 12.3159 40.658 13.714 40.7941C13.7416 40.7959 13.7691 40.799 13.7978 40.8008C13.8565 40.8071 13.9177 40.8112 13.9812 40.8141C14.3571 40.834 16.8718 41.1602 17.0456 40.125C17.0456 40.125 16.5043 37.5601 15.9831 34.7128C15.6673 32.9873 15.9246 30.5604 15.9246 30.5604C14.834 30.4321 13.7334 30.3996 12.6368 30.4632L11.9988 30.5002C11.9988 30.5002 9.84256 32.6342 10.3781 34.7466C11.1797 37.9078 10.9563 40.3118 10.9563 40.3118Z" fill="#070D29"/>
</g>
<path opacity="0.1" d="M12.6245 23.0569C12.7137 23.3855 12.859 23.6964 13.0592 23.9718C13.6016 24.7178 14.4008 25.5276 14.7532 25.6169C14.8543 25.3823 15.0111 24.9243 15.0111 24.9243C15.2424 25.0384 15.3061 25.3646 15.3832 25.6137C15.7542 25.0117 16.0373 23.976 15.9436 23.5994C15.9436 23.5994 15.4937 23.4662 15.2719 23.4114C14.66 23.2688 14.0392 23.1692 13.4138 23.113C13.1404 23.0762 12.869 23.0588 12.6245 23.0569Z" fill="#070D29"/>
<path d="M12.6137 22.9888L12.7375 23.2122C13.215 24.079 14.3207 25.1938 14.7532 25.3035C14.8543 25.0689 14.958 24.664 14.958 24.664C15.1893 24.7781 15.3592 25.1043 15.4364 25.3534C15.8074 24.7514 16.0266 23.9079 15.9328 23.5313C15.7151 23.4652 15.4829 23.3981 15.2611 23.3432C14.6493 23.2007 14.0284 23.1011 13.403 23.0448C13.1296 23.0081 12.8581 22.9906 12.6137 22.9888Z" fill="white"/>
<path d="M12.1072 30.5001L14.0017 30.551L14.1601 30.5547L14.5695 30.5651L14.7269 30.57L15.8386 30.599C15.873 30.5955 15.9037 30.5825 15.9051 30.5603L15.9488 30.2036C15.9527 30.1794 15.922 30.1574 15.8834 30.156L14.7838 30.1126L14.6518 30.1072L14.1088 30.0864L13.9801 30.0811L12.1562 30.0093C12.1313 30.0064 12.1066 30.0164 12.0902 30.0374L12.0452 30.442C12.0305 30.4692 12.0627 30.4983 12.1072 30.5001Z" fill="#407BFF"/>
<path opacity="0.2" d="M12.1072 30.5001L14.0017 30.551L14.1601 30.5547L14.5695 30.5651L14.7269 30.57L15.8386 30.599C15.873 30.5955 15.9037 30.5825 15.9051 30.5603L15.9488 30.2036C15.9527 30.1794 15.922 30.1574 15.8834 30.156L14.7838 30.1126L14.6518 30.1072L14.1088 30.0864L13.9801 30.0811L12.1562 30.0093C12.1313 30.0064 12.1066 30.0164 12.0902 30.0374L12.0452 30.442C12.0305 30.4692 12.0627 30.4983 12.1072 30.5001Z" fill="white"/>
<path d="M15.3147 30.6323L15.1932 30.6305C15.1684 30.6331 15.1509 30.6162 15.1519 30.5998L15.2199 30.0945C15.2184 30.0798 15.2435 30.0664 15.2685 30.0664L15.39 30.0696C15.4148 30.067 15.4323 30.0839 15.4312 30.0989L15.3636 30.6054C15.3557 30.6212 15.3399 30.6337 15.3147 30.6323Z" fill="#263238"/>
<path d="M13.2041 30.602L13.0887 30.599C13.0652 30.6016 13.0487 30.5855 13.0498 30.5713L13.1177 30.0635C13.1163 30.0497 13.1414 30.0368 13.1639 30.0382L13.2791 30.0411C13.3026 30.0386 13.319 30.0534 13.318 30.0688L13.25 30.5741C13.248 30.5908 13.2277 30.602 13.2041 30.602Z" fill="#263238"/>
<path d="M17.2231 29.1228H14.3662L14.7004 25.3035H17.5571L17.2231 29.1228Z" fill="#407BFF"/>
<path d="M12.123 28.411C12.2303 28.2856 12.3022 28.152 12.2766 27.9926C12.2766 27.9926 12.2807 27.7602 12.2847 27.4067C12.2968 26.3718 12.3053 24.3096 12.1971 24.0367C11.9616 23.4454 11.5583 23.1249 11.3467 23.4704C11.0998 23.874 11.0817 26.9374 11.0817 26.9374C11.1395 28.9632 11.8813 28.6937 12.123 28.411Z" fill="#B97964"/>
<path d="M16.0692 28.1031L16.0639 28.0924L16.0692 28.107C16.0692 28.107 15.6058 28.3791 15.2155 28.2995L15.0947 27.9145L15.6058 27.2374L15.6363 27.1963L15.6775 27.1844L16.2061 27.0328C16.3139 27.0018 16.4269 27.0622 16.4611 27.169L16.5866 27.5607C16.6144 27.6472 16.5827 27.7417 16.5084 27.7939L16.0692 28.1031Z" fill="#B97964"/>
<path d="M11.5108 28.5225C11.8461 28.9344 15.2642 28.3254 15.2915 28.3128C15.4026 28.2627 15.4198 27.9698 15.2922 27.8636C15.2222 27.805 11.7257 27.4875 11.484 27.4688C11.0703 28.1043 11.34 28.3128 11.5108 28.5225Z" fill="#B97964"/>
<path d="M16.3555 19.0169C16.8197 19.5804 17.0631 20.0005 16.7818 21.8821C16.7287 22.2373 16.8825 23.0713 16.9495 23.0791C15.1235 22.8671 14.6027 22.5674 13.736 22.0381C13.1562 21.684 12.683 20.4016 12.8341 19.7397C12.997 19.0254 13.7753 18.1914 14.5272 18.1209C15.3713 18.0415 15.8284 18.3769 16.3555 19.0169Z" fill="#263238"/>
<path d="M15.1078 22.5622C14.9131 22.9471 14.7955 23.3847 15.2666 23.7743C15.3661 23.8568 15.4421 23.9685 15.4664 24.0962C15.505 24.3007 15.4203 24.52 14.6936 24.2345C13.6426 23.8224 13.6178 23.1664 13.6178 23.1664C14.0953 22.9298 14.2211 21.818 14.2373 21.1929L15.1078 22.5622Z" fill="#B97964"/>
<path opacity="0.2" d="M14.4406 22.0938C14.4095 22.3647 14.7498 22.7328 14.9834 22.8629C15.0151 22.7588 15.0564 22.6579 15.1067 22.5617L14.5912 21.751C14.5183 21.8536 14.467 21.9704 14.4406 22.0938Z" fill="#070D29"/>
<path d="M13.7595 19.653C14.0274 18.9557 14.8082 18.6088 15.5048 18.8771C16.4878 19.249 16.6674 20.7201 16.4808 21.6217C16.2781 22.6276 15.0724 22.9502 14.2954 22.1943C13.7761 21.6918 13.7614 21.2676 13.6755 20.2734C13.6549 20.0625 13.6837 19.8501 13.7595 19.653Z" fill="#B97964"/>
<path d="M13.879 21.3253C13.879 21.3253 14.2994 20.9198 14.222 20.1789C14.222 20.1789 14.6756 19.7147 14.6535 19.2169C14.6535 19.2169 14.7877 19.6133 14.6543 19.8963C14.6543 19.8963 15.8317 19.8106 15.8041 19.2169C15.8041 19.2169 15.9055 19.7316 15.7284 19.8865C15.7284 19.8865 16.541 19.8232 16.4764 19.2668C16.3769 18.4095 15.6479 18.3651 15.6479 18.3651C15.6479 18.3651 14.8666 17.7014 13.7865 18.874C13.7865 18.874 12.5144 19.6682 13.4162 20.9923L13.879 21.3253Z" fill="#263238"/>
<path d="M15.8917 21.2711C15.9918 21.2937 16.0966 21.2712 16.1785 21.2096C16.0545 21.0536 15.9524 20.8813 15.8754 20.6978L15.8917 21.2711Z" fill="#B74D3C"/>
<path d="M15.1361 21.361C15.1285 21.3501 15.1312 21.3351 15.1421 21.3275C15.1529 21.32 15.1679 21.3226 15.1754 21.3336C15.3035 21.4941 15.5005 21.5832 15.7045 21.5728C15.7172 21.5732 15.7274 21.5833 15.7283 21.5961C15.7283 21.5965 15.7283 21.5969 15.7283 21.5973C15.7286 21.6098 15.7186 21.62 15.7063 21.6203C15.6678 21.6221 15.629 21.6208 15.5907 21.6162C15.4113 21.5958 15.2477 21.5038 15.1361 21.361Z" fill="#263238"/>
<path d="M13.3021 20.8741C13.2958 20.6702 13.455 20.5 13.6577 20.4937C13.9384 20.4902 14.1239 20.8403 14.1641 21.0831C14.2047 21.3524 14.0419 21.5832 13.7762 21.4721C13.5768 21.3858 13.4193 21.2239 13.3378 21.0218C13.3158 20.9754 13.3037 20.9252 13.3021 20.8741Z" fill="#B97964"/>
<path d="M15.2133 20.422C15.2103 20.5215 15.261 20.6042 15.3271 20.6069C15.3932 20.6096 15.4471 20.5302 15.449 20.429C15.451 20.3279 15.4013 20.2468 15.3366 20.2444C15.2718 20.2421 15.2165 20.3212 15.2133 20.422Z" fill="#263238"/>
<path d="M16.1406 20.5271C16.1378 20.6268 16.1888 20.7095 16.2535 20.7119C16.3183 20.7143 16.3734 20.635 16.3765 20.5341C16.3796 20.4331 16.3284 20.3518 16.2637 20.3494C16.1989 20.3472 16.1424 20.426 16.1406 20.5271Z" fill="#263238"/>
<path d="M16.2348 20.354L16.4762 20.2927C16.4762 20.2927 16.3478 20.476 16.2348 20.354Z" fill="#263238"/>
<path d="M14.9334 20.0926C14.9251 20.0903 14.9176 20.0861 14.9111 20.0805C14.8917 20.0619 14.891 20.031 14.9096 20.0115C14.9099 20.0112 14.91 20.0111 14.9103 20.0108C15.0352 19.8739 15.219 19.8068 15.4028 19.831C15.4287 19.8369 15.4456 19.8623 15.4412 19.8884C15.4361 19.9143 15.4113 19.9314 15.3853 19.9269C15.2333 19.9094 15.0822 19.9661 14.9793 20.0794C14.9674 20.0916 14.9499 20.0965 14.9334 20.0926Z" fill="#263238"/>
<path d="M16.496 20.2134C16.4885 20.2093 16.4819 20.2037 16.4769 20.1967C16.3917 20.0695 16.2512 19.9904 16.0989 19.9841C16.072 19.9853 16.0492 19.9646 16.0476 19.9377C16.0476 19.9374 16.0476 19.9373 16.0476 19.937C16.0472 19.9099 16.0685 19.8875 16.0955 19.8865C16.2809 19.8918 16.4528 19.9864 16.5572 20.1407C16.5736 20.1621 16.5697 20.1928 16.5483 20.2092C16.5333 20.2208 16.5128 20.2225 16.496 20.2134Z" fill="#263238"/>
<path d="M15.3077 20.2488L15.5491 20.1875C15.5491 20.1875 15.4204 20.3708 15.3077 20.2488Z" fill="#263238"/>
<path d="M11.7533 23.0993C11.9923 23.0421 12.2494 23.1071 12.4188 23.285C12.6055 23.4813 12.7225 23.7554 12.7576 24.03C12.812 24.4549 12.3547 25.9802 12.3663 26.4121C11.915 26.1648 11.2505 25.8267 10.6196 25.7647C10.7066 24.7602 10.8228 24.0919 11.0177 23.7594C11.1296 23.5685 11.2452 23.3732 11.4169 23.2349C11.493 23.1735 11.6276 23.1294 11.7533 23.0993Z" fill="#263238"/>
<path d="M16.081 52.5357C16.3999 52.8525 16.568 53.0156 17.4292 53.213C17.6189 53.2556 17.4951 53.7099 17.0432 53.7053C16.296 53.6972 16.7048 53.6668 16.0685 53.6603C15.5239 53.6542 15.0479 53.662 14.6147 53.665C14.6002 53.6655 14.5856 53.6643 14.5713 53.6609C14.485 53.6407 14.4308 53.5548 14.4502 53.4688L14.6686 52.4981C14.6779 52.4544 14.7172 52.4236 14.7622 52.4248L15.8096 52.4484C15.9078 52.4407 16.0054 52.472 16.081 52.5357Z" fill="#263238"/>
<path d="M12.7399 52.6046C12.944 53.0052 13.0528 53.2126 13.8092 53.669C13.9762 53.7687 13.7168 54.1617 13.2888 54.0162C12.5815 53.7753 12.9794 53.874 12.3769 53.6693C11.8614 53.4935 11.4068 53.3524 10.9944 53.2198C10.9804 53.2159 10.9669 53.21 10.9545 53.2023C10.8787 53.1562 10.8541 53.0577 10.8994 52.9821L11.41 52.1279C11.4324 52.0893 11.4793 52.0723 11.5217 52.0876L12.5094 52.437C12.6052 52.4603 12.6881 52.5205 12.7399 52.6046Z" fill="#263238"/>
</svg>
